<svg width="88" height="86" viewBox="0 0 88 86" fill="none" xmlns="http://www.w3.org/2000/svg">
<path d="M1.62945 78.5356L87.6672 0L7.37071 84.2377C7.04326 84.7023 6.61813 85.0932 6.12385 85.3837C5.62956 85.6743 5.07756 85.8579 4.50485 85.9224C3.93214 85.9868 3.35198 85.9307 2.80327 85.7575C2.25456 85.5844 1.75002 85.2984 1.32345 84.9186C0.896891 84.5388 0.558154 84.074 0.330029 83.5555C0.101904 83.0369 -0.0103638 82.4766 0.000751728 81.9122C0.0118672 81.3477 0.146069 80.7921 0.394437 80.2825C0.642805 79.773 0.999556 79.3214 1.44075 78.9579L1.62945 78.5356Z" fill="url(#paint0_linear)"/>
<defs>
<linearGradient id="paint0_linear" x1="44181.7" y1="44276.3" x2="47149.2" y2="44276.3" gradientUnits="userSpaceOnUse">
<stop stop-color="#FFAF11"/>
<stop offset="1" stop-color="#2B94F2" stop-opacity="0.1"/>
</linearGradient>
</defs>
</svg>
