<svg width="906" height="754" viewBox="0 0 906 754" fill="none" xmlns="http://www.w3.org/2000/svg">
<g id="spinner">
<path id="slotBg" d="M780.201 122.882H60.7119V564.128H780.201V122.882Z" fill="#44356B" fill-opacity="0.5"/>
<path id="Vector" d="M727.906 83.9976V113.839H110.931V83.0438C110.931 74.3058 114.402 65.9258 120.581 59.7472C126.76 53.5685 135.14 50.0974 143.877 50.0974H694.005C702.996 50.0974 711.619 53.669 717.977 60.0266C724.334 66.3841 727.906 75.0067 727.906 83.9976Z" fill="url(#paint0_linear)"/>
<path id="Vector_2" opacity="0.5" d="M707.509 113.839H599.852L616.17 50.0974H617.985C622.548 60.4218 642.879 96.9686 707.509 113.839Z" fill="#212121"/>
<path id="Vector_3" opacity="0.5" d="M231.484 113.839H123.827C188.457 97.006 208.778 60.4218 213.342 50.0974H215.156L231.484 113.839Z" fill="#212121"/>
<path id="Vector_4" d="M794.425 720.779C794.425 722.098 793.49 723.398 791.806 724.688C791.404 724.978 790.955 725.277 790.469 725.567C787.439 727.382 782.735 729.14 776.441 730.842C727.887 744.065 586.385 753.632 419.4 753.632C257.932 753.632 120.302 744.692 67.4827 732.123C58.6453 730.019 52.1832 727.821 48.377 725.577C47.289 724.973 46.3041 724.199 45.4592 723.285C44.8094 722.608 44.4273 721.717 44.3838 720.779C44.4204 719.865 44.7856 718.995 45.4125 718.329C48.882 714.205 61.0019 710.296 80.1918 706.742C111.567 700.925 161.833 696.044 224.05 692.714C280.937 689.666 347.821 687.908 419.381 687.908C490.941 687.908 557.787 689.666 614.712 692.714C676.929 696.044 727.195 700.925 758.57 706.742C778.209 710.38 790.366 714.383 793.555 718.6C794.08 719.209 794.386 719.976 794.425 720.779Z" fill="url(#paint1_linear)"/>
<path id="Vector_5" d="M794.424 692.714V720.77C794.424 722.088 793.489 723.388 791.806 724.679C791.404 724.969 790.955 725.268 790.468 725.558H48.3951C47.3071 724.954 46.3222 724.18 45.4773 723.267C44.8274 722.589 44.4453 721.698 44.4019 720.76V692.705L794.424 692.714Z" fill="url(#paint2_linear)"/>
<path id="Vector_6" d="M794.434 692.715C794.439 692.792 794.439 692.871 794.434 692.948C794.041 697.886 781.248 702.562 758.635 706.742C698.559 717.88 569.262 725.577 419.446 725.577C269.63 725.577 140.277 717.88 80.2288 706.742C57.2702 702.497 44.4302 697.737 44.4302 692.715C44.4302 686.299 65.3969 680.314 101.663 675.255L108.77 674.32C176.197 665.594 290.195 659.862 419.437 659.862C558.573 659.862 680.024 666.511 744.748 676.377H745L746.515 676.611C777.021 681.38 794.434 686.87 794.434 692.715Z" fill="url(#paint3_linear)"/>
<path id="Vector_7" opacity="0.5" d="M794.425 718.31V720.779C794.425 722.098 793.49 723.398 791.806 724.688C791.245 724.987 790.656 725.277 790.048 725.567C785.649 727.629 781.116 729.392 776.479 730.842C727.924 744.065 586.422 753.632 419.437 753.632C257.969 753.632 120.339 744.692 67.52 732.123C61.4364 730.405 55.4956 728.216 49.7516 725.577C48.1805 724.816 46.7528 724.052 45.4685 723.285C44.8186 722.608 44.4365 721.717 44.3931 720.779V717.974L45.4218 718.348C53.8529 721.27 62.4497 723.69 71.1672 725.595C137.752 740.773 268.939 751.098 419.886 751.098C570.833 751.098 702.011 740.811 768.605 725.595C777.062 723.745 785.408 721.416 793.602 718.619L794.425 718.31Z" fill="#212121"/>
<path id="Vector_8" opacity="0.5" d="M750.191 681.24C750.191 685.243 744.486 689.105 733.938 692.715C730.73 693.818 727.055 694.894 722.968 695.95C718.049 697.197 712.531 698.419 706.415 699.616C701.733 700.526 696.711 701.412 691.35 702.272C632.33 711.755 534.483 717.955 423.758 717.955C309.872 717.955 209.602 711.409 151.2 701.449C146.586 700.664 142.241 699.859 138.163 699.036C133.207 698.036 128.662 696.998 124.547 695.95C120.432 694.903 116.785 693.818 113.578 692.715C103.029 689.105 97.3242 685.233 97.3242 681.24C97.3242 679.192 98.8018 677.191 101.645 675.255L108.752 674.32C176.178 665.594 290.177 659.862 419.418 659.862C558.554 659.862 680.006 666.511 744.73 676.377H744.982L747.984 676.92C748.629 677.449 749.158 678.106 749.538 678.85C749.918 679.593 750.14 680.407 750.191 681.24Z" fill="#212121"/>
<path id="Vector_9" d="M717.029 674.899C717.029 676.386 715.954 677.855 713.869 679.295C692.818 693.837 569.009 705.003 419.428 705.003C269.846 705.003 146.047 693.837 124.977 679.295C122.892 677.864 121.807 676.386 121.807 674.899C121.807 670.298 132.01 665.931 150.237 662.041C175.14 656.71 215.026 652.24 264.403 649.191C309.554 646.386 362.597 644.787 419.428 644.787C476.258 644.787 529.311 646.395 574.434 649.191C623.811 652.24 663.696 656.673 688.6 662.041C706.836 665.931 717.029 670.298 717.029 674.899Z" fill="url(#paint4_linear)"/>
<path id="Vector_10" d="M717.029 649.191V674.899C717.029 676.386 715.954 677.855 713.869 679.295H124.977C122.892 677.864 121.807 676.386 121.807 674.899V649.191H717.029Z" fill="url(#paint5_linear)"/>
<path id="Vector_11" d="M419.418 679.285C583.784 679.285 717.029 665.808 717.029 649.182C717.029 632.556 583.784 619.079 419.418 619.079C255.052 619.079 121.807 632.556 121.807 649.182C121.807 665.808 255.052 679.285 419.418 679.285Z" fill="url(#paint6_linear)"/>
<path id="Vector_12" d="M754.324 112.38H85.4848C74.7188 112.383 64.3944 116.661 56.7817 124.273C49.169 131.886 44.8912 142.21 44.8887 152.976V535.96C44.8912 546.726 49.169 557.05 56.7817 564.663C64.3944 572.276 74.7188 576.554 85.4848 576.556H754.324C765.088 576.551 775.409 572.272 783.018 564.659C790.627 557.047 794.902 546.724 794.902 535.96V152.976C794.902 142.213 790.627 131.89 783.018 124.277C775.409 116.665 765.088 112.385 754.324 112.38ZM774.898 519.323C774.896 530.088 770.618 540.412 763.005 548.023C755.392 555.634 745.067 559.91 734.302 559.91H105.535C94.7707 559.91 84.4473 555.634 76.8358 548.022C69.2243 540.411 64.9482 530.088 64.9482 519.323V169.623C64.9532 158.862 69.2315 148.543 76.8424 140.936C84.4534 133.328 94.774 129.055 105.535 129.055H734.265C745.032 129.055 755.357 133.332 762.971 140.945C770.584 148.558 774.861 158.884 774.861 169.651L774.898 519.323Z" fill="url(#paint7_linear)"/>
<path id="Vector_13" d="M248.701 24.0342H582.981C587.436 24.0354 591.848 24.9146 595.963 26.6217C600.079 28.3287 603.817 30.83 606.966 33.9826C610.114 37.1352 612.61 40.8774 614.312 44.9952C616.013 49.113 616.886 53.5257 616.881 57.9812V112.418H215.746V56.9899C215.744 52.6617 216.596 48.3757 218.252 44.3768C219.907 40.3779 222.335 36.7444 225.395 33.6839C228.456 30.6235 232.089 28.196 236.088 26.5403C240.087 24.8845 244.373 24.033 248.701 24.0342Z" fill="url(#paint8_linear)"/>
<path id="Vector_14" d="M262.692 91.1332C259.971 90.089 257.556 88.3783 255.668 86.158L263.814 76.535C264.802 77.8332 265.996 78.961 267.349 79.8736C268.415 80.5777 269.662 80.9577 270.94 80.9678C271.611 81.0069 272.282 80.9011 272.908 80.6574C273.534 80.4137 274.101 80.0379 274.568 79.5557C275.481 78.365 275.927 76.8815 275.822 75.3848V58.3084H260.55V46.8899H290.766V74.4777C290.766 80.6062 289.207 85.1948 286.09 88.2435C282.973 91.2922 278.362 92.8227 272.259 92.8352C268.99 92.8835 265.743 92.3057 262.692 91.1332Z" fill="white"/>
<path id="Vector_15" d="M327.312 83.9791H310.274L307.253 91.8065H291.86L311.499 46.918H326.377L346.016 91.8065H330.361L327.312 83.9791ZM323.142 73.0749L318.802 61.778L314.444 73.0749H323.142Z" fill="white"/>
<path id="Vector_16" d="M358.173 89.8519C354.467 87.9617 351.364 85.0721 349.214 81.5101C347.029 77.836 345.909 73.6268 345.978 69.3528C345.908 65.0787 347.029 60.8693 349.214 57.1955C351.362 53.63 354.466 50.7371 358.173 48.8443C362.151 46.8007 366.569 45.7635 371.041 45.8237C375.055 45.7511 379.038 46.5387 382.722 48.1336C386.059 49.6122 388.97 51.9087 391.185 54.8108L381.627 63.3489C378.853 59.8451 375.58 58.0901 371.808 58.0839C370.393 58.0247 368.981 58.2658 367.666 58.7912C366.351 59.3167 365.162 60.1146 364.177 61.1326C362.174 63.3697 361.136 66.3071 361.287 69.306C361.132 72.3082 362.171 75.2499 364.177 77.4888C365.161 78.5082 366.35 79.3071 367.665 79.8327C368.981 80.3582 370.393 80.5985 371.808 80.5375C375.549 80.5375 378.822 78.7856 381.627 75.2818L391.185 83.8106C388.97 86.7127 386.059 89.0092 382.722 90.4878C379.036 92.0782 375.055 92.8657 371.041 92.7977C366.576 92.881 362.158 91.8696 358.173 89.8519Z" fill="white"/>
<path id="Vector_17" d="M413.835 76.9185L410.441 80.6592V91.8065H395.581V46.9179H410.469V63.1901L425.226 46.8899H441.685L423.72 66.6502L442.583 91.8065H425.067L413.835 76.9185Z" fill="white"/>
<path id="Vector_18" d="M477.11 48.9471C480.014 50.1657 482.491 52.2195 484.226 54.8481C485.932 57.5299 486.804 60.6575 486.732 63.8351C486.834 66.9999 485.967 70.1202 484.247 72.779C482.528 75.4378 480.037 77.5083 477.11 78.7138C473.679 80.156 469.982 80.8572 466.261 80.7712H459.781V91.8063H444.64V46.9178H466.261C469.98 46.823 473.677 47.5145 477.11 48.9471ZM469.918 67.7161C470.908 66.6647 471.46 65.2748 471.46 63.8305C471.46 62.3861 470.908 60.9962 469.918 59.9448C468.6 58.9322 466.955 58.4426 465.298 58.5701H459.781V69.0908H465.298C466.955 69.2184 468.6 68.7287 469.918 67.7161Z" fill="white"/>
<path id="Vector_19" d="M502.836 89.7772C499.077 87.8403 495.925 84.9059 493.724 81.2957C491.523 77.6855 490.359 73.539 490.359 69.3108C490.359 65.0826 491.523 60.9361 493.724 57.3259C495.925 53.7157 499.077 50.7813 502.836 48.8444C506.891 46.8568 511.347 45.8235 515.863 45.8235C520.379 45.8235 524.835 46.8568 528.89 48.8444C532.648 50.7813 535.801 53.7157 538.002 57.3259C540.203 60.9361 541.367 65.0826 541.367 69.3108C541.367 73.539 540.203 77.6855 538.002 81.2957C535.801 84.9059 532.648 87.8403 528.89 89.7772C524.835 91.7648 520.379 92.7981 515.863 92.7981C511.347 92.7981 506.891 91.7648 502.836 89.7772ZM520.969 79.1629C522.525 78.2311 523.793 76.8882 524.635 75.2819C525.521 73.4294 525.981 71.4019 525.981 69.3482C525.981 67.2946 525.521 65.267 524.635 63.4145C523.809 61.8025 522.557 60.4474 521.016 59.4961C519.466 58.596 517.706 58.1219 515.914 58.1219C514.122 58.1219 512.362 58.596 510.813 59.4961C509.267 60.4442 508.011 61.7999 507.184 63.4145C506.298 65.267 505.838 67.2946 505.838 69.3482C505.838 71.4019 506.298 73.4294 507.184 75.2819C508.008 76.8985 509.264 78.2549 510.813 79.2003C512.362 80.1004 514.122 80.5745 515.914 80.5745C517.706 80.5745 519.466 80.1004 521.016 79.2003L520.969 79.1629Z" fill="white"/>
<path id="Vector_20" d="M555.842 58.6357H542.684V46.8899H584.131V58.6357H570.982V91.8065H555.842V58.6357Z" fill="white"/>
<path id="Vector_21" d="M44.8886 232.719H0V456.208H44.8886V232.719Z" fill="url(#paint9_linear)"/>
<path id="Vector_22" opacity="0.5" d="M44.8886 425.646V456.208H0V426.675C11.8768 430.902 26.7835 431.912 44.8886 425.646Z" fill="#212121"/>
<path id="Vector_23" opacity="0.5" d="M416.314 653.587C542.346 653.587 644.516 645.862 644.516 636.333C644.516 626.804 542.346 619.079 416.314 619.079C290.281 619.079 188.111 626.804 188.111 636.333C188.111 645.862 290.281 653.587 416.314 653.587Z" fill="#212121"/>
<g id="lever">
<path id="Vector_24" d="M905.665 285.407V240.519H878.713V285.407H905.665Z" fill="url(#paint10_linear)"/>
<path id="Vector_25" d="M878.722 255.444H839.323V270.491H878.722V255.444Z" fill="#666766"/>
<path id="Vector_26" opacity="0.5" d="M905.674 276.495V285.407H878.666V276.813C887.622 278.233 896.754 278.125 905.674 276.495Z" fill="#212121"/>
<path id="Vector_27" opacity="0.5" d="M878.713 265.076V270.482H839.323V265.254C852.441 266.118 865.603 266.059 878.713 265.076Z" fill="#212121"/>
<path id="Vector_28" opacity="0.8" d="M899.296 241.949H882.07V243.857H899.296V241.949Z" fill="white"/>
<path id="Vector_29" opacity="0.8" d="M860.252 257.155H843.026V258.109H860.252V257.155Z" fill="white"/>
<path id="Vector_30" opacity="0.8" d="M902.728 241.949H900.409V243.857H902.728V241.949Z" fill="white"/>
</g>
<g id="leverHeight">
<path id="Vector_31" d="M839.323 232.719H794.434V456.208H839.323V232.719Z" fill="url(#paint11_linear)"/>
<path id="Vector_32" opacity="0.5" d="M839.323 425.646V456.208H794.434V426.675C806.311 430.902 821.218 431.912 839.323 425.646Z" fill="#212121"/>
<path id="Vector_33" opacity="0.8" d="M815.008 234.627H797.782V235.581H815.008V234.627Z" fill="white"/>
<path id="Vector_34" opacity="0.8" d="M817.215 234.478H816.738C816.444 234.478 816.205 234.716 816.205 235.011V235.216C816.205 235.511 816.444 235.749 816.738 235.749H817.215C817.51 235.749 817.748 235.511 817.748 235.216V235.011C817.748 234.716 817.51 234.478 817.215 234.478Z" fill="white"/>
<path id="Vector_35" opacity="0.8" d="M820.357 235.104C820.357 234.809 820.119 234.571 819.824 234.571C819.53 234.571 819.291 234.809 819.291 235.104C819.291 235.398 819.53 235.637 819.824 235.637C820.119 235.637 820.357 235.398 820.357 235.104Z" fill="white"/>
</g>
<path id="Vector_36" opacity="0.8" d="M24.5014 234.786H1.69238V237.965H24.5014V234.786Z" fill="white"/>
<path id="Vector_37" opacity="0.8" d="M32.5722 234.786H29.3926V237.965H32.5722V234.786Z" fill="white"/>
<path id="Vector_38" opacity="0.8" d="M695.978 52.8096C695.978 52.8096 726.259 53.221 725.221 85.9336C725.221 85.9336 721.602 56.7841 695.978 52.8096Z" fill="white"/>
<path id="Vector_39" opacity="0.8" d="M753.296 113.839C753.296 113.839 793.415 120.264 792.377 152.967C792.377 152.967 778.929 117.833 753.296 113.839Z" fill="white"/>
<path id="Vector_40" opacity="0.8" d="M584.131 27.9712C584.131 27.9712 614.422 28.392 613.384 61.1046C613.384 61.1046 609.737 31.9551 584.131 27.9712Z" fill="white"/>
<path id="Vector_41" opacity="0.8" d="M613.411 67.7255C614.222 67.7255 614.88 67.0682 614.88 66.2573C614.88 65.4464 614.222 64.7891 613.411 64.7891C612.6 64.7891 611.943 65.4464 611.943 66.2573C611.943 67.0682 612.6 67.7255 613.411 67.7255Z" fill="white"/>
<path id="Vector_42" opacity="0.8" d="M725.25 93.0317C726.061 93.0317 726.718 92.3743 726.718 91.5635C726.718 90.7526 726.061 90.0952 725.25 90.0952C724.439 90.0952 723.782 90.7526 723.782 91.5635C723.782 92.3743 724.439 93.0317 725.25 93.0317Z" fill="white"/>
<path id="Vector_43" opacity="0.8" d="M706.06 641.832C706.06 641.832 725.063 647.63 707.556 656.542C707.556 656.542 718.675 650.884 706.06 641.832Z" fill="white"/>
<path id="Vector_44" opacity="0.8" d="M781.51 685.354C781.51 685.354 805.825 691.153 783.381 700.065C783.418 700.065 797.633 694.37 781.51 685.354Z" fill="white"/>
<path id="Vector_45" opacity="0.8" d="M780.116 685.187C780.617 685.187 781.023 684.994 781.023 684.756C781.023 684.519 780.617 684.326 780.116 684.326C779.615 684.326 779.209 684.519 779.209 684.756C779.209 684.994 779.615 685.187 780.116 685.187Z" fill="white"/>
<path id="Vector_46" opacity="0.45" d="M774.861 169.623V519.323C774.858 530.088 770.58 540.412 762.967 548.023C755.354 555.634 745.03 559.91 734.265 559.91H105.535C94.7707 559.91 84.4473 555.634 76.8358 548.022C69.2243 540.411 64.9482 530.088 64.9482 519.323V169.623C64.9532 158.862 69.2315 148.543 76.8424 140.936C84.4534 133.328 94.774 129.055 105.535 129.055H734.265C745.027 129.055 755.348 133.328 762.961 140.935C770.573 148.542 774.854 158.861 774.861 169.623Z" fill="url(#paint12_linear)"/>
<path id="Vector_47" opacity="0.79" d="M774.861 289.232V306.701L665.408 180.835L674.058 173.316L774.861 289.232Z" fill="white"/>
<path id="Vector_48" opacity="0.8" d="M184.716 559.91H169.529L96.4917 475.912L105.133 468.394L184.716 559.91Z" fill="white"/>
<path id="Vector_49" opacity="0.8" d="M145.747 559.91H130.56L122.574 550.726L131.224 543.208L145.747 559.91Z" fill="white"/>
<path id="Vector_50" opacity="0.79" d="M643.038 137.649L634.387 145.168L620.35 129.026H635.538L643.038 137.649Z" fill="white"/>
<path id="Vector_51" opacity="0.79" d="M733.217 202.167L728.897 205.926L662.022 129.026H669.616L733.217 202.167Z" fill="white"/>
<path id="Vector_52" opacity="0.8" d="M111.034 519.987L102.383 527.506L64.9482 484.46V466.991L111.034 519.987Z" fill="white"/>
<g id="bulb">
<path id="Vector_53" d="M577.931 24.0341C584.568 24.0341 589.948 18.6539 589.948 12.017C589.948 5.38021 584.568 0 577.931 0C571.294 0 565.914 5.38021 565.914 12.017C565.914 18.6539 571.294 24.0341 577.931 24.0341Z" fill="#FEF5A3"/>
<path id="Vector_54" d="M815.009 232.719C821.646 232.719 827.026 227.339 827.026 220.702C827.026 214.065 821.646 208.685 815.009 208.685C808.372 208.685 802.992 214.065 802.992 220.702C802.992 227.339 808.372 232.719 815.009 232.719Z" fill="#FEF5A3"/>
<path id="Vector_55" d="M24.5019 229.96C31.1387 229.96 36.5189 224.58 36.5189 217.943C36.5189 211.306 31.1387 205.926 24.5019 205.926C17.8651 205.926 12.4849 211.306 12.4849 217.943C12.4849 224.58 17.8651 229.96 24.5019 229.96Z" fill="#FEF5A3"/>
<path id="Vector_56" d="M72.729 691.312C79.3658 691.312 84.746 685.932 84.746 679.295C84.746 672.658 79.3658 667.278 72.729 667.278C66.0921 667.278 60.7119 672.658 60.7119 679.295C60.7119 685.932 66.0921 691.312 72.729 691.312Z" fill="#FEF5A3"/>
<path id="Vector_57" d="M420.456 721.163C427.093 721.163 432.473 715.783 432.473 709.146C432.473 702.509 427.093 697.129 420.456 697.129C413.819 697.129 408.439 702.509 408.439 709.146C408.439 715.783 413.819 721.163 420.456 721.163Z" fill="#FEF5A3"/>
<path id="Vector_58" d="M772.851 691.312C779.487 691.312 784.868 685.932 784.868 679.295C784.868 672.658 779.487 667.278 772.851 667.278C766.214 667.278 760.833 672.658 760.833 679.295C760.833 685.932 766.214 691.312 772.851 691.312Z" fill="#FEF5A3"/>
<path id="Vector_59" d="M496.645 24.0341C503.282 24.0341 508.662 18.6539 508.662 12.017C508.662 5.38021 503.282 0 496.645 0C490.008 0 484.628 5.38021 484.628 12.017C484.628 18.6539 490.008 24.0341 496.645 24.0341Z" fill="#FEF5A3"/>
<path id="Vector_60" d="M412.676 24.0341C419.313 24.0341 424.693 18.6539 424.693 12.017C424.693 5.38021 419.313 0 412.676 0C406.039 0 400.659 5.38021 400.659 12.017C400.659 18.6539 406.039 24.0341 412.676 24.0341Z" fill="#FEF5A3"/>
<path id="Vector_61" d="M328.706 24.0341C335.343 24.0341 340.723 18.6539 340.723 12.017C340.723 5.38021 335.343 0 328.706 0C322.069 0 316.689 5.38021 316.689 12.017C316.689 18.6539 322.069 24.0341 328.706 24.0341Z" fill="#FEF5A3"/>
<path id="Vector_62" d="M255.669 24.0341C262.305 24.0341 267.686 18.6539 267.686 12.017C267.686 5.38021 262.305 0 255.669 0C249.032 0 243.652 5.38021 243.652 12.017C243.652 18.6539 249.032 24.0341 255.669 24.0341Z" fill="#FEF5A3"/>
</g>
</g>
<defs>
<linearGradient id="paint0_linear" x1="419.418" y1="50.0974" x2="419.418" y2="113.839" gradientUnits="userSpaceOnUse">
<stop stop-color="#804DA0"/>
<stop offset="1" stop-color="#6A4DA0"/>
</linearGradient>
<linearGradient id="paint1_linear" x1="419.404" y1="687.908" x2="419.404" y2="753.632" gradientUnits="userSpaceOnUse">
<stop stop-color="#6A4DA0"/>
<stop offset="1" stop-color="#6A4DA0"/>
</linearGradient>
<linearGradient id="paint2_linear" x1="419.413" y1="692.705" x2="419.413" y2="725.558" gradientUnits="userSpaceOnUse">
<stop stop-color="#6A4DA0"/>
<stop offset="1" stop-color="#6A4DA0"/>
</linearGradient>
<linearGradient id="paint3_linear" x1="419.434" y1="659.862" x2="419.434" y2="725.577" gradientUnits="userSpaceOnUse">
<stop stop-color="#AB60A7"/>
<stop offset="1" stop-color="#8D5FB5"/>
</linearGradient>
<linearGradient id="paint4_linear" x1="419.418" y1="644.787" x2="419.418" y2="705.003" gradientUnits="userSpaceOnUse">
<stop stop-color="#6A4DA0"/>
<stop offset="1" stop-color="#6A4DA0"/>
</linearGradient>
<linearGradient id="paint5_linear" x1="419.418" y1="649.191" x2="419.418" y2="679.295" gradientUnits="userSpaceOnUse">
<stop stop-color="#6A4DA0"/>
<stop offset="1" stop-color="#6A4DA0"/>
</linearGradient>
<linearGradient id="paint6_linear" x1="419.418" y1="619.079" x2="419.418" y2="679.285" gradientUnits="userSpaceOnUse">
<stop stop-color="#AB60A7"/>
<stop offset="1" stop-color="#8D5FB5"/>
</linearGradient>
<linearGradient id="paint7_linear" x1="419.895" y1="112.38" x2="419.895" y2="576.556" gradientUnits="userSpaceOnUse">
<stop stop-color="#7E4DA0"/>
<stop offset="1" stop-color="#6A4DA0"/>
</linearGradient>
<linearGradient id="paint8_linear" x1="416.313" y1="24.0342" x2="416.313" y2="112.418" gradientUnits="userSpaceOnUse">
<stop stop-color="#AF60A5"/>
<stop offset="1" stop-color="#8D5FB5"/>
</linearGradient>
<linearGradient id="paint9_linear" x1="22.4443" y1="232.719" x2="22.4443" y2="456.208" gradientUnits="userSpaceOnUse">
<stop stop-color="#B260A3"/>
<stop offset="1" stop-color="#8D5FB5"/>
</linearGradient>
<linearGradient id="paint10_linear" x1="892.447" y1="285.206" x2="892.447" y2="240.565" gradientUnits="userSpaceOnUse">
<stop stop-color="#F04A48"/>
<stop offset="1" stop-color="#FFAF74"/>
</linearGradient>
<linearGradient id="paint11_linear" x1="816.879" y1="232.719" x2="816.879" y2="456.208" gradientUnits="userSpaceOnUse">
<stop stop-color="#B55FA2"/>
<stop offset="1" stop-color="#8D5FB5"/>
</linearGradient>
<linearGradient id="paint12_linear" x1="763.898" y1="128.963" x2="64.9359" y2="559.665" gradientUnits="userSpaceOnUse">
<stop stop-color="#FDF8BF"/>
<stop offset="1" stop-color="#ACAA93"/>
</linearGradient>
</defs>
</svg>
