<svg width="341" height="275" viewBox="0 0 341 275" fill="none" xmlns="http://www.w3.org/2000/svg">
<path d="M21.1369 152.627C48.5091 137.541 101.989 120.151 164.457 107.188C240.137 91.5142 306.06 87.1554 330.135 94.947" stroke="url(#paint0_linear)" stroke-width="1.71" stroke-miterlimit="10"/>
<path d="M63.0534 272.346C49.7287 261.709 87.1283 192.692 146.615 118.164C206.102 43.6355 265.092 -8.15021 278.417 2.46439" stroke="url(#paint1_linear)" stroke-width="1.71" stroke-miterlimit="10"/>
<path d="M258.801 162.269C273.709 109.763 243.229 55.1132 190.722 40.2059C138.216 25.2986 83.5662 55.7787 68.6589 108.285C53.7516 160.792 84.2316 215.441 136.738 230.349C189.244 245.256 243.894 214.776 258.801 162.269Z" fill="url(#paint2_linear)"/>
<path d="M94.7393 101.361C80.9403 112.947 73.894 142.013 96.5686 146.394C116.669 150.211 125.115 119.022 115.946 104.229C112.4 98.5153 105.76 95.1954 99.3239 98.312C97.6844 99.1501 96.1462 100.173 94.7393 101.361V101.361Z" fill="url(#paint3_linear)"/>
<path d="M223.718 93.5016C220.013 85.9663 215.014 79.14 208.948 73.3338C202.817 67.5199 194.803 64.0982 186.364 63.6903C182.721 63.5063 179.117 64.5044 176.088 66.5359C169.674 71.2786 169.516 80.877 171.571 88.6008C174.62 100.367 181.079 110.372 188.103 120.219C193.749 128.01 199.53 134.921 210.1 135.034C218.84 135.034 229.206 129.298 231.351 120.332C233.497 111.366 227.828 101.225 223.718 93.5016Z" fill="url(#paint4_linear)"/>
<path d="M154.588 209.494C162.65 211.369 171.842 211.437 178.437 206.423C181.655 203.74 183.997 200.156 185.16 196.131C186.323 192.106 186.255 187.824 184.963 183.839C183.582 179.888 181.321 176.302 178.352 173.352C175.382 170.403 171.782 168.166 167.822 166.81C159.833 164.166 151.227 164.032 143.16 166.426C133.584 169.023 117.527 179.502 123.737 191.698C128.593 201.251 144.899 207.236 154.588 209.494Z" fill="url(#paint5_linear)"/>
<path style="mix-blend-mode:screen" opacity="0.13" d="M102.937 104.184C104.314 102.989 105.831 101.965 107.454 101.135C108.86 100.425 110.398 100.018 111.971 99.9381C110.227 98.4487 108.086 97.5013 105.811 97.2124C103.536 96.9235 101.226 97.3057 99.1657 98.312C97.5499 99.1546 96.0346 100.177 94.6489 101.361C80.8499 112.947 73.8036 142.013 96.4782 146.394L97.6526 146.575C83.9213 137.993 90.8321 114.347 102.937 104.184Z" fill="url(#paint6_linear)"/>
<path d="M196.21 122.906C189.187 113.172 182.66 103.168 179.679 91.4238C177.669 83.7 177.804 74.1017 184.195 69.359C187.256 67.3038 190.904 66.3045 194.584 66.5134C196.344 66.5235 198.099 66.705 199.824 67.0554C195.617 64.93 190.985 63.7798 186.273 63.6903C182.631 63.5063 179.026 64.5044 175.997 66.5359C169.583 71.2786 169.425 80.877 171.48 88.6008C174.529 100.367 180.988 110.372 188.012 120.219C193.206 127.423 198.559 133.769 207.638 134.876C203.069 131.687 199.184 127.617 196.21 122.906V122.906Z" fill="url(#paint7_linear)"/>
<path style="mix-blend-mode:screen" opacity="0.32" d="M131.936 194.521C125.747 182.348 141.782 171.937 151.381 169.272C157.818 167.418 164.599 167.086 171.187 168.301C170.093 167.751 168.969 167.261 167.822 166.833C159.833 164.189 151.227 164.055 143.16 166.449C133.584 169.046 117.527 179.525 123.737 191.721C128.006 200.099 141.172 205.768 150.839 208.523C143.002 205.361 135.075 200.687 131.936 194.521Z" fill="url(#paint8_linear)"/>
<path style="mix-blend-mode:screen" opacity="0.18" d="M96.049 157.98C93.6292 158.113 91.2896 158.893 89.2737 160.238C84.5988 164.1 87.1282 171.53 90.1319 176.883C95.6425 186.504 102.418 196.486 112.874 200.167C114.478 200.732 116.646 200.935 117.504 199.49C117.821 198.781 117.908 197.991 117.752 197.231C116.827 191.133 112.468 185.555 113.236 179.435C113.913 174.24 118.069 170.288 122.269 167.126C132.974 158.951 145.96 152.853 159.42 153.282C172.881 153.711 186.522 161.887 190.654 174.76C191.693 178.125 192.077 181.693 193.365 184.99C193.899 186.674 194.841 188.199 196.105 189.432C197.369 190.665 198.918 191.567 200.614 192.059C202.832 192.376 205.094 191.98 207.073 190.93C213.849 187.813 218.365 181.354 222.069 174.828C226.293 167.212 229.641 159.143 232.051 150.775C232.819 148.043 233.339 144.655 231.216 142.758C230.099 141.902 228.738 141.427 227.331 141.403C219.969 140.883 213.126 145.152 205.786 145.784C192.506 146.913 181.327 136.163 173.536 125.458C167.726 117.821 163.308 109.221 160.482 100.051C157.643 90.8569 158.139 80.9562 161.882 72.0917C163.847 67.8232 166.828 63.5774 166.241 58.9024C165.563 53.4145 159.895 49.6655 154.384 49.2138C148.874 48.7621 143.499 50.8399 138.349 52.8499C128.57 56.7118 118.678 60.6188 110.322 66.965C107.002 69.4945 103.66 73.4467 105.06 77.3764C105.986 79.9284 108.583 81.3738 110.887 82.8418C115.887 86.0003 120.202 90.1323 123.573 94.9919C126.944 99.8516 129.304 105.34 130.511 111.13C131.719 116.92 131.749 122.894 130.601 128.696C129.453 134.498 127.149 140.01 123.828 144.903C116.42 156.037 108.764 156.083 96.049 157.98Z" fill="url(#paint9_linear)"/>
<path d="M191.806 160.057C191.913 160.319 191.939 160.607 191.882 160.883C191.825 161.16 191.686 161.413 191.484 161.611C191.283 161.809 191.026 161.942 190.749 161.993C190.471 162.045 190.184 162.013 189.925 161.901C189.665 161.789 189.445 161.602 189.292 161.364C189.139 161.126 189.061 160.849 189.066 160.566C189.072 160.284 189.162 160.009 189.324 159.778C189.486 159.546 189.713 159.369 189.977 159.267C190.325 159.133 190.711 159.141 191.053 159.288C191.395 159.436 191.666 159.712 191.806 160.057V160.057Z" fill="url(#paint10_linear)"/>
<path d="M233.203 90.927C233.273 91.1005 233.308 91.286 233.306 91.473C233.304 91.66 233.265 91.8448 233.192 92.0168C233.118 92.1888 233.012 92.3446 232.878 92.4754C232.744 92.6062 232.586 92.7093 232.413 92.7789C232.065 92.9129 231.679 92.9052 231.337 92.7574C230.995 92.6096 230.724 92.3335 230.583 91.9884C230.487 91.8124 230.429 91.6179 230.413 91.4179C230.398 91.2178 230.424 91.0166 230.492 90.8276C230.559 90.6386 230.666 90.466 230.805 90.3211C230.943 90.1762 231.111 90.0624 231.297 89.987C231.483 89.9116 231.683 89.8765 231.884 89.8838C232.084 89.8912 232.281 89.9409 232.461 90.0296C232.641 90.1184 232.8 90.2443 232.928 90.3989C233.056 90.5536 233.15 90.7335 233.203 90.927V90.927Z" fill="url(#paint11_linear)"/>
<path d="M230.087 77.9862C230.316 78.5702 230.305 79.2215 230.055 79.7972C229.805 80.3729 229.338 80.8262 228.754 81.0576C228.467 81.1718 228.159 81.2282 227.85 81.2236C227.54 81.219 227.235 81.1535 226.951 81.0308C226.666 80.9081 226.409 80.7307 226.194 80.5086C225.978 80.2865 225.808 80.0241 225.694 79.7364C225.58 79.4487 225.524 79.1414 225.528 78.8319C225.533 78.5224 225.598 78.2169 225.721 77.9327C225.844 77.6486 226.021 77.3913 226.243 77.1758C226.465 76.9602 226.728 76.7904 227.015 76.6763C227.597 76.4455 228.245 76.4536 228.821 76.699C229.396 76.9443 229.851 77.4069 230.087 77.9862V77.9862Z" fill="url(#paint12_linear)"/>
<path style="mix-blend-mode:multiply" opacity="0.47" d="M244.428 159.922C244.701 160.616 244.762 161.375 244.605 162.103C244.447 162.832 244.076 163.497 243.54 164.016C243.005 164.534 242.327 164.882 241.594 165.015C240.86 165.148 240.103 165.062 239.419 164.765C238.735 164.469 238.154 163.976 237.75 163.35C237.346 162.724 237.136 161.992 237.147 161.246C237.159 160.501 237.391 159.775 237.815 159.162C238.238 158.548 238.834 158.074 239.527 157.799C239.988 157.613 240.481 157.52 240.978 157.526C241.475 157.532 241.965 157.637 242.421 157.835C242.878 158.032 243.29 158.319 243.634 158.677C243.979 159.035 244.248 159.458 244.428 159.922V159.922Z" fill="url(#paint13_linear)"/>
<path style="mix-blend-mode:multiply" opacity="0.47" d="M206.283 178.622C206.602 179.437 206.587 180.345 206.24 181.148C205.893 181.952 205.243 182.586 204.431 182.913C203.616 183.236 202.707 183.223 201.902 182.875C201.097 182.528 200.463 181.875 200.14 181.061C199.816 180.246 199.83 179.336 200.177 178.532C200.524 177.727 201.177 177.093 201.992 176.77C202.807 176.45 203.715 176.466 204.518 176.813C205.322 177.16 205.956 177.81 206.283 178.622Z" fill="url(#paint14_linear)"/>
<g style="mix-blend-mode:multiply" opacity="0.47">
<path style="mix-blend-mode:multiply" opacity="0.47" d="M224.983 177.267C225.356 178.216 225.441 179.254 225.226 180.25C225.011 181.247 224.506 182.158 223.775 182.869C223.044 183.58 222.119 184.059 221.116 184.245C220.114 184.432 219.078 184.318 218.14 183.918C217.203 183.517 216.404 182.849 215.845 181.996C215.286 181.143 214.991 180.144 214.998 179.125C215.006 178.105 215.314 177.11 215.885 176.265C216.456 175.42 217.264 174.763 218.207 174.376C218.842 174.119 219.521 173.99 220.205 173.996C220.89 174.002 221.566 174.144 222.196 174.413C222.826 174.681 223.396 175.072 223.874 175.561C224.352 176.051 224.729 176.631 224.983 177.267V177.267Z" fill="url(#paint15_linear)"/>
<path style="mix-blend-mode:multiply" opacity="0.47" d="M216.988 157.144C217.32 157.919 217.413 158.775 217.257 159.603C217.101 160.431 216.702 161.194 216.11 161.794C215.519 162.395 214.763 162.806 213.937 162.975C213.112 163.144 212.254 163.064 211.475 162.744C210.695 162.425 210.028 161.88 209.558 161.18C209.089 160.48 208.839 159.657 208.839 158.814C208.839 157.971 209.09 157.148 209.56 156.448C210.03 155.749 210.697 155.205 211.477 154.886C212.509 154.47 213.662 154.473 214.691 154.895C215.721 155.317 216.545 156.124 216.988 157.144V157.144Z" fill="url(#paint16_linear)"/>
<path style="mix-blend-mode:multiply" opacity="0.47" d="M235.236 149.398C235.65 150.436 235.746 151.573 235.513 152.666C235.28 153.759 234.727 154.758 233.926 155.537C233.124 156.316 232.11 156.839 231.011 157.041C229.912 157.243 228.777 157.114 227.751 156.671C226.726 156.228 225.854 155.49 225.248 154.551C224.642 153.612 224.328 152.515 224.346 151.397C224.364 150.28 224.713 149.193 225.349 148.274C225.985 147.355 226.879 146.646 227.919 146.236C229.308 145.687 230.859 145.712 232.231 146.305C233.602 146.898 234.683 148.01 235.236 149.398V149.398Z" fill="url(#paint17_linear)"/>
<path style="mix-blend-mode:multiply" opacity="0.47" d="M197.791 136.909C198.071 137.602 198.138 138.362 197.984 139.094C197.83 139.825 197.463 140.494 196.928 141.016C196.394 141.538 195.716 141.89 194.981 142.026C194.247 142.163 193.488 142.078 192.802 141.782C192.115 141.487 191.532 140.994 191.126 140.367C190.72 139.739 190.51 139.005 190.522 138.258C190.534 137.511 190.768 136.784 191.193 136.17C191.619 135.556 192.218 135.082 192.913 134.808C193.839 134.444 194.871 134.461 195.785 134.854C196.698 135.248 197.419 135.986 197.791 136.909V136.909Z" fill="url(#paint18_linear)"/>
<path style="mix-blend-mode:multiply" opacity="0.47" d="M231.013 131.308C231.113 131.565 231.135 131.846 231.075 132.116C231.016 132.386 230.878 132.632 230.68 132.824C230.481 133.015 230.23 133.144 229.958 133.193C229.686 133.243 229.406 133.21 229.152 133.101C228.899 132.991 228.683 132.809 228.533 132.578C228.383 132.346 228.304 132.075 228.308 131.799C228.311 131.523 228.396 131.254 228.552 131.026C228.708 130.798 228.927 130.621 229.183 130.517C229.355 130.448 229.539 130.413 229.725 130.415C229.91 130.418 230.093 130.457 230.263 130.53C230.433 130.604 230.587 130.71 230.716 130.844C230.845 130.977 230.946 131.135 231.013 131.308V131.308Z" fill="url(#paint19_linear)"/>
<path style="mix-blend-mode:multiply" opacity="0.47" d="M241.695 119.97C241.926 120.548 241.917 121.194 241.672 121.766C241.426 122.338 240.963 122.789 240.385 123.019C239.807 123.25 239.161 123.241 238.59 122.996C238.018 122.75 237.567 122.287 237.336 121.709C237.209 121.425 237.143 121.117 237.141 120.805C237.139 120.493 237.201 120.185 237.324 119.898C237.447 119.612 237.628 119.354 237.856 119.141C238.083 118.928 238.352 118.764 238.646 118.66C238.931 118.534 239.239 118.467 239.551 118.465C239.862 118.463 240.171 118.525 240.457 118.648C240.744 118.771 241.002 118.952 241.215 119.18C241.428 119.407 241.591 119.677 241.695 119.97Z" fill="url(#paint20_linear)"/>
<path style="mix-blend-mode:multiply" opacity="0.47" d="M239.911 138.399C240.049 138.743 240.082 139.12 240.007 139.483C239.931 139.846 239.749 140.178 239.484 140.438C239.219 140.697 238.883 140.872 238.519 140.941C238.155 141.01 237.778 140.969 237.437 140.824C237.096 140.678 236.806 140.435 236.603 140.125C236.4 139.815 236.294 139.451 236.297 139.08C236.301 138.71 236.415 138.348 236.624 138.042C236.833 137.736 237.128 137.499 237.472 137.36C237.933 137.181 238.447 137.189 238.903 137.383C239.359 137.577 239.72 137.942 239.911 138.399V138.399Z" fill="url(#paint21_linear)"/>
<path style="mix-blend-mode:multiply" opacity="0.47" d="M198.04 193.55C198.225 194.014 198.219 194.533 198.022 194.993C197.825 195.452 197.454 195.815 196.989 196C196.525 196.186 196.006 196.18 195.547 195.983C195.087 195.786 194.725 195.414 194.539 194.95C194.447 194.72 194.401 194.475 194.404 194.227C194.407 193.98 194.459 193.735 194.557 193.507C194.654 193.28 194.796 193.074 194.973 192.901C195.15 192.728 195.359 192.592 195.589 192.5C195.819 192.408 196.065 192.362 196.312 192.365C196.56 192.368 196.804 192.42 197.032 192.517C197.259 192.615 197.466 192.756 197.638 192.933C197.811 193.111 197.948 193.32 198.04 193.55V193.55Z" fill="url(#paint22_linear)"/>
<path style="mix-blend-mode:multiply" opacity="0.47" d="M201.518 202.29C201.703 202.757 201.695 203.279 201.496 203.74C201.297 204.202 200.923 204.566 200.456 204.752C199.992 204.937 199.473 204.931 199.014 204.734C198.554 204.537 198.191 204.166 198.006 203.702C197.82 203.237 197.826 202.718 198.023 202.259C198.22 201.799 198.592 201.437 199.056 201.251C199.52 201.065 200.04 201.069 200.501 201.264C200.962 201.458 201.327 201.827 201.518 202.29V202.29Z" fill="url(#paint23_linear)"/>
<path style="mix-blend-mode:multiply" opacity="0.47" d="M200.795 213.221C201.241 214.346 201.343 215.578 201.089 216.761C200.835 217.945 200.235 219.026 199.367 219.869C198.498 220.711 197.399 221.278 196.209 221.496C195.018 221.714 193.79 221.574 192.679 221.095C191.568 220.615 190.624 219.816 189.966 218.8C189.309 217.784 188.968 216.596 188.985 215.386C189.003 214.176 189.379 212.998 190.066 212.002C190.753 211.005 191.72 210.235 192.845 209.788C193.593 209.491 194.391 209.344 195.195 209.356C195.999 209.368 196.793 209.538 197.531 209.857C198.27 210.176 198.938 210.637 199.498 211.214C200.058 211.791 200.499 212.473 200.795 213.221V213.221Z" fill="url(#paint24_linear)"/>
<path style="mix-blend-mode:multiply" opacity="0.47" d="M159.692 221.961C159.898 222.48 159.947 223.049 159.83 223.595C159.713 224.142 159.437 224.641 159.036 225.031C158.636 225.42 158.128 225.682 157.579 225.783C157.029 225.884 156.462 225.819 155.949 225.597C155.436 225.376 155.001 225.007 154.698 224.538C154.394 224.068 154.237 223.519 154.246 222.961C154.255 222.402 154.43 221.859 154.748 221.399C155.066 220.94 155.513 220.585 156.033 220.38C156.377 220.241 156.745 220.172 157.115 220.176C157.486 220.181 157.852 220.259 158.193 220.406C158.533 220.553 158.841 220.766 159.098 221.033C159.355 221.3 159.557 221.615 159.692 221.961V221.961Z" fill="url(#paint25_linear)"/>
</g>
<path d="M105.286 77.4668C105.563 78.1594 105.629 78.9187 105.475 79.6486C105.32 80.3785 104.953 81.0463 104.419 81.5675C103.885 82.0887 103.209 82.4398 102.476 82.5765C101.742 82.7132 100.985 82.6293 100.299 82.3354C99.6132 82.0415 99.03 81.5508 98.6232 80.9254C98.2163 80.3001 98.0041 79.5681 98.0133 78.8221C98.0225 78.0761 98.2528 77.3496 98.675 76.7345C99.0972 76.1193 99.6923 75.6433 100.385 75.3664C101.314 74.9954 102.351 75.0083 103.27 75.4021C104.189 75.796 104.914 76.5386 105.286 77.4668V77.4668Z" fill="url(#paint26_linear)"/>
<path d="M110.029 66.4682C110.167 66.8121 110.201 67.1893 110.125 67.5522C110.049 67.915 109.867 68.2472 109.602 68.5067C109.337 68.7663 109.002 68.9414 108.637 69.0101C108.273 69.0788 107.896 69.038 107.555 68.8927C107.214 68.7474 106.924 68.5043 106.721 68.194C106.518 67.8837 106.412 67.5202 106.415 67.1495C106.419 66.7788 106.533 66.4175 106.742 66.1113C106.951 65.8051 107.246 65.5678 107.59 65.4293C107.818 65.3342 108.062 65.2857 108.31 65.2866C108.557 65.2876 108.801 65.3379 109.028 65.4347C109.255 65.5315 109.461 65.6728 109.633 65.8503C109.805 66.0278 109.939 66.2379 110.029 66.4682V66.4682Z" fill="url(#paint27_linear)"/>
<path d="M122.563 85.2809C122.979 86.3231 122.965 87.488 122.522 88.5193C122.079 89.5506 121.245 90.3639 120.203 90.7802C119.161 91.1964 117.996 91.1817 116.965 90.7391C115.933 90.2965 115.12 89.4623 114.704 88.4201C114.498 87.9041 114.395 87.3525 114.402 86.7968C114.409 86.2412 114.526 85.6923 114.745 85.1817C114.964 84.671 115.282 84.2085 115.679 83.8206C116.077 83.4327 116.548 83.127 117.064 82.9208C117.58 82.7147 118.131 82.6122 118.687 82.6193C119.243 82.6263 119.791 82.7428 120.302 82.9619C121.333 83.4045 122.147 84.2387 122.563 85.2809Z" fill="url(#paint28_linear)"/>
<path d="M125.228 71.5723C125.414 72.0365 125.407 72.5554 125.21 73.015C125.013 73.4745 124.642 73.837 124.178 74.0227C123.714 74.2083 123.195 74.202 122.735 74.0051C122.276 73.8081 121.913 73.4367 121.727 72.9725C121.635 72.7426 121.59 72.4969 121.593 72.2494C121.596 72.0019 121.647 71.7573 121.745 71.5298C121.842 71.3023 121.984 71.0962 122.161 70.9232C122.338 70.7503 122.548 70.614 122.778 70.5221C123.007 70.4302 123.253 70.3844 123.501 70.3874C123.748 70.3904 123.993 70.4422 124.22 70.5397C124.448 70.6372 124.654 70.7786 124.827 70.9558C125 71.1329 125.136 71.3424 125.228 71.5723Z" fill="url(#paint29_linear)"/>
<path d="M131.348 56.4634C131.495 56.8773 131.517 57.3249 131.413 57.7514C131.309 58.1779 131.083 58.5649 130.763 58.8649C130.442 59.1649 130.041 59.3651 129.609 59.4408C129.176 59.5165 128.731 59.4645 128.328 59.2912C127.924 59.1179 127.58 58.8308 127.337 58.465C127.095 58.0992 126.964 57.6706 126.961 57.2315C126.958 56.7925 127.083 56.3622 127.321 55.9931C127.558 55.624 127.899 55.3322 128.299 55.1535C128.584 55.0266 128.892 54.9599 129.204 54.9578C129.515 54.9557 129.824 55.0181 130.111 55.1412C130.397 55.2642 130.655 55.4452 130.868 55.6727C131.081 55.9003 131.244 56.1695 131.348 56.4634Z" fill="url(#paint30_linear)"/>
<path d="M154.113 49.9591C154.459 50.8268 154.539 51.7777 154.345 52.6912C154.15 53.6047 153.688 54.4398 153.018 55.0909C152.348 55.742 151.501 56.1796 150.582 56.3485C149.663 56.5174 148.715 56.41 147.857 56.0397C147 55.6695 146.271 55.0531 145.764 54.2686C145.257 53.4842 144.994 52.5669 145.009 51.6329C145.023 50.699 145.315 49.7903 145.846 49.022C146.377 48.2536 147.124 47.6602 147.993 47.3167C149.156 46.8634 150.45 46.8866 151.596 47.3812C152.741 47.8758 153.646 48.8021 154.113 49.9591V49.9591Z" fill="url(#paint31_linear)"/>
<path d="M152.8 96.0551C157.504 93.8356 159.518 88.2231 157.298 83.5192C155.079 78.8153 149.466 76.8013 144.762 79.0208C140.059 81.2403 138.045 86.8528 140.264 91.5567C142.484 96.2606 148.096 98.2746 152.8 96.0551Z" fill="url(#paint32_linear)"/>
<path d="M92.3226 88.1943C92.4228 88.4516 92.4446 88.7329 92.3854 89.0026C92.3261 89.2724 92.1884 89.5186 91.9895 89.7102C91.7907 89.9019 91.5396 90.0305 91.2679 90.0798C90.9961 90.1292 90.7159 90.097 90.4624 89.9875C90.2088 89.8779 89.9934 89.6959 89.8431 89.4642C89.6928 89.2325 89.6143 88.9615 89.6176 88.6853C89.6209 88.4092 89.7058 88.1402 89.8617 87.9121C90.0175 87.6841 90.2372 87.5072 90.4933 87.4038C90.6652 87.3344 90.8492 87.2998 91.0345 87.302C91.2199 87.3042 91.403 87.3432 91.5732 87.4167C91.7433 87.4903 91.8972 87.5969 92.0259 87.7303C92.1545 87.8638 92.2554 88.0215 92.3226 88.1943V88.1943Z" fill="url(#paint33_linear)"/>
<path d="M86.699 99.5541C86.826 99.8388 86.8926 100.147 86.8947 100.458C86.8968 100.77 86.8344 101.079 86.7113 101.365C86.5883 101.652 86.4073 101.909 86.1798 102.122C85.9522 102.336 85.683 102.499 85.3891 102.603C85.1045 102.73 84.7966 102.797 84.4849 102.799C84.1732 102.801 83.8644 102.738 83.578 102.615C83.2916 102.492 83.0338 102.311 82.8208 102.084C82.6078 101.856 82.4442 101.587 82.3403 101.293C82.1095 100.712 82.1176 100.063 82.363 99.4878C82.6083 98.9125 83.0709 98.4575 83.6502 98.2217C83.9363 98.0953 84.2456 98.0296 84.5584 98.029C84.8712 98.0284 85.1807 98.0927 85.4674 98.218C85.754 98.3433 86.0115 98.5267 86.2235 98.7567C86.4355 98.9867 86.5975 99.2583 86.699 99.5541V99.5541Z" fill="url(#paint34_linear)"/>
<path d="M80.5561 112.111C80.7025 112.525 80.725 112.973 80.6209 113.399C80.5169 113.826 80.2908 114.213 79.9703 114.513C79.6498 114.813 79.2488 115.013 78.8163 115.088C78.3839 115.164 77.9387 115.112 77.5354 114.939C77.132 114.766 76.7879 114.478 76.5451 114.113C76.3023 113.747 76.1715 113.318 76.1685 112.879C76.1655 112.44 76.2905 112.01 76.5283 111.641C76.7661 111.272 77.1062 110.98 77.5072 110.801C77.7919 110.674 78.0998 110.608 78.4115 110.605C78.7232 110.603 79.0319 110.666 79.3183 110.789C79.6047 110.912 79.8626 111.093 80.0756 111.32C80.2886 111.548 80.4522 111.817 80.5561 112.111Z" fill="url(#paint35_linear)"/>
<path d="M74.8876 128.53C74.9943 128.791 75.0206 129.079 74.9633 129.356C74.9059 129.632 74.7675 129.886 74.5656 130.083C74.3638 130.281 74.1076 130.414 73.8298 130.466C73.552 130.517 73.2651 130.485 73.0057 130.373C72.7463 130.261 72.5262 130.074 72.3734 129.836C72.2205 129.599 72.1419 129.321 72.1475 129.039C72.1532 128.756 72.2428 128.482 72.405 128.25C72.5672 128.019 72.7946 127.841 73.0583 127.739C73.406 127.605 73.7924 127.613 74.1344 127.761C74.4765 127.909 74.7469 128.185 74.8876 128.53V128.53Z" fill="url(#paint36_linear)"/>
<path d="M75.4523 137.451C75.4832 137.564 75.4709 137.685 75.4178 137.79C75.3647 137.894 75.2746 137.976 75.165 138.018C75.0553 138.06 74.9339 138.06 74.8243 138.018C74.7146 137.976 74.6246 137.894 74.5715 137.789C74.5406 137.676 74.5529 137.555 74.606 137.45C74.6591 137.346 74.7492 137.264 74.8589 137.222C74.9685 137.18 75.0899 137.18 75.1996 137.222C75.3092 137.264 75.3993 137.346 75.4523 137.451V137.451Z" fill="url(#paint37_linear)"/>
<path d="M166.512 50.5915C166.612 50.8488 166.634 51.1301 166.575 51.3998C166.515 51.6696 166.378 51.9158 166.179 52.1074C165.98 52.2991 165.729 52.4277 165.457 52.477C165.185 52.5264 164.905 52.4942 164.652 52.3847C164.398 52.2751 164.183 52.0931 164.032 51.8614C163.882 51.6297 163.804 51.3587 163.807 51.0825C163.81 50.8064 163.895 50.5374 164.051 50.3093C164.207 50.0813 164.427 49.9045 164.683 49.801C164.854 49.7316 165.038 49.697 165.224 49.6992C165.409 49.7014 165.592 49.7404 165.762 49.814C165.933 49.8875 166.087 49.9941 166.215 50.1276C166.344 50.261 166.445 50.4187 166.512 50.5915V50.5915Z" fill="url(#paint38_linear)"/>
<path d="M163.17 65.0906C163.477 65.8718 163.546 66.7266 163.368 67.547C163.19 68.3674 162.772 69.1165 162.168 69.6997C161.564 70.2829 160.801 70.674 159.975 70.8236C159.149 70.9731 158.297 70.8744 157.527 70.5399C156.757 70.2054 156.103 69.6501 155.649 68.9442C155.194 68.2383 154.959 67.4136 154.974 66.5742C154.988 65.7348 155.25 64.9184 155.728 64.2282C156.206 63.538 156.878 63.0051 157.659 62.6967C158.178 62.4917 158.732 62.391 159.29 62.4004C159.848 62.4098 160.399 62.529 160.911 62.7514C161.422 62.9737 161.885 63.2947 162.273 63.6961C162.661 64.0975 162.965 64.5714 163.17 65.0906V65.0906Z" fill="url(#paint39_linear)"/>
<path d="M182.773 50.727C182.907 51.0719 182.936 51.4489 182.857 51.8105C182.777 52.172 182.592 52.5019 182.325 52.7585C182.059 53.0151 181.722 53.1869 181.357 53.2524C180.993 53.3178 180.617 53.2739 180.278 53.1262C179.939 52.9785 179.651 52.7336 179.45 52.4223C179.25 52.1111 179.146 51.7475 179.152 51.3774C179.158 51.0072 179.273 50.6471 179.483 50.3425C179.694 50.0378 179.99 49.8023 180.334 49.6655C180.563 49.5742 180.809 49.5292 181.056 49.5332C181.303 49.5371 181.547 49.59 181.774 49.6886C182.001 49.7873 182.206 49.9298 182.377 50.108C182.548 50.2863 182.683 50.4966 182.773 50.727V50.727Z" fill="url(#paint40_linear)"/>
<path d="M199.349 59.309C199.441 59.5389 199.487 59.7846 199.484 60.0321C199.481 60.2797 199.429 60.5242 199.332 60.7517C199.234 60.9793 199.093 61.1854 198.916 61.3583C198.739 61.5312 198.529 61.6675 198.299 61.7594C198.069 61.8514 197.824 61.8971 197.576 61.8941C197.329 61.8911 197.084 61.8393 196.857 61.7418C196.629 61.6443 196.423 61.5029 196.25 61.3258C196.077 61.1486 195.941 60.9391 195.849 60.7092C195.663 60.245 195.669 59.7261 195.866 59.2665C196.063 58.807 196.435 58.4445 196.899 58.2589C197.363 58.0732 197.882 58.0795 198.342 58.2764C198.801 58.4734 199.164 58.8448 199.349 59.309Z" fill="url(#paint41_linear)"/>
<path d="M201.653 47.2716C201.787 47.6165 201.817 47.9935 201.737 48.3551C201.658 48.7166 201.473 49.0465 201.206 49.3031C200.939 49.5597 200.602 49.7316 200.238 49.797C199.873 49.8625 199.498 49.8185 199.158 49.6708C198.819 49.5231 198.531 49.2782 198.33 48.967C198.13 48.6557 198.026 48.2921 198.032 47.922C198.038 47.5518 198.154 47.1917 198.364 46.8871C198.574 46.5824 198.87 46.3469 199.214 46.2101C199.444 46.1188 199.689 46.0738 199.937 46.0778C200.184 46.0818 200.428 46.1346 200.654 46.2332C200.881 46.3319 201.086 46.4744 201.258 46.6527C201.429 46.8309 201.563 47.0412 201.653 47.2716Z" fill="url(#paint42_linear)"/>
<path d="M215.61 59.4445C215.851 60.0511 215.907 60.7156 215.77 61.3539C215.633 61.9921 215.31 62.5753 214.841 63.0297C214.372 63.484 213.779 63.789 213.137 63.906C212.495 64.0231 211.832 63.9468 211.233 63.687C210.635 63.4272 210.126 62.9955 209.773 62.4466C209.42 61.8977 209.237 61.2563 209.249 60.6036C209.261 59.951 209.466 59.3164 209.838 58.7804C210.211 58.2444 210.734 57.831 211.342 57.5926C211.743 57.4318 212.173 57.3522 212.605 57.3584C213.038 57.3646 213.465 57.4565 213.862 57.6287C214.259 57.8008 214.618 58.05 214.918 58.3617C215.218 58.6733 215.453 59.0414 215.61 59.4445V59.4445Z" fill="url(#paint43_linear)"/>
<path style="mix-blend-mode:multiply" opacity="0.47" d="M230.132 62.0869C222.517 55.1645 213.868 49.4726 204.499 45.2164C207.992 47.6589 211.326 50.3217 214.481 53.1887C231.916 69.0225 243.125 90.5609 246.089 113.925C249.053 137.29 243.578 160.945 230.649 180.631C217.72 200.317 198.188 214.74 175.569 221.303C152.95 227.865 128.731 226.137 107.273 216.428C127.89 230.718 153.168 236.636 177.986 232.982C202.803 229.328 225.303 216.375 240.926 196.749C256.549 177.123 264.126 152.291 262.122 127.286C260.117 102.281 248.681 78.9738 230.132 62.0869V62.0869Z" fill="url(#paint44_linear)"/>
<path d="M330.09 94.947C335.713 96.7763 339.123 99.2606 339.711 102.422C343.211 119.157 270.332 148.314 176.968 167.623C83.605 186.933 5.12464 189.169 1.66925 172.411C0.540035 166.9 7.69925 160.035 21.1369 152.627" stroke="url(#paint45_linear)" stroke-width="1.71" stroke-miterlimit="10"/>
<path d="M278.394 2.46436C291.719 13.1015 254.297 82.1416 194.833 156.647C135.368 231.153 76.3556 282.984 63.0535 272.346" stroke="url(#paint46_linear)" stroke-width="1.71" stroke-miterlimit="10"/>
<defs>
<linearGradient id="paint0_linear" x1="326.232" y1="138.063" x2="24.5756" y2="107.726" gradientUnits="userSpaceOnUse">
<stop stop-color="#FFAF11"/>
<stop offset="1" stop-color="#2B94F2"/>
</linearGradient>
<linearGradient id="paint1_linear" x1="55867.8" y1="-15906.3" x2="29819.9" y2="3891.36" gradientUnits="userSpaceOnUse">
<stop stop-color="#FFAF11"/>
<stop offset="1" stop-color="#2B94F2"/>
</linearGradient>
<linearGradient id="paint2_linear" x1="-28374.3" y1="30666.6" x2="-15565.3" y2="42293.4" gradientUnits="userSpaceOnUse">
<stop stop-color="#FFAF11"/>
<stop offset="1" stop-color="#2B94F2"/>
</linearGradient>
<linearGradient id="paint3_linear" x1="80.9744" y1="130.491" x2="120.49" y2="114.774" gradientUnits="userSpaceOnUse">
<stop offset="0.01" stop-color="#571A8F"/>
<stop offset="0.98" stop-color="#DD025E"/>
</linearGradient>
<linearGradient id="paint4_linear" x1="9275.52" y1="5867.81" x2="7995.22" y2="5521.97" gradientUnits="userSpaceOnUse">
<stop offset="0.01" stop-color="#571A8F"/>
<stop offset="0.98" stop-color="#DD025E"/>
</linearGradient>
<linearGradient id="paint5_linear" x1="6845.66" y1="5264.63" x2="6142.63" y2="4099.79" gradientUnits="userSpaceOnUse">
<stop offset="0.01" stop-color="#571A8F"/>
<stop offset="0.98" stop-color="#DD025E"/>
</linearGradient>
<linearGradient id="paint6_linear" x1="2476.95" y1="3543.21" x2="3014.29" y2="3543.21" gradientUnits="userSpaceOnUse">
<stop offset="0.01" stop-color="#571A8F"/>
<stop offset="0.98" stop-color="#DD025E"/>
</linearGradient>
<linearGradient id="paint7_linear" x1="4773.31" y1="5468.29" x2="5347.05" y2="5468.29" gradientUnits="userSpaceOnUse">
<stop offset="0.01" stop-color="#571A8F"/>
<stop offset="0.98" stop-color="#DD025E"/>
</linearGradient>
<linearGradient id="paint8_linear" x1="4370.42" y1="4732.4" x2="5512.29" y2="4732.4" gradientUnits="userSpaceOnUse">
<stop offset="0.01" stop-color="#571A8F"/>
<stop offset="0.98" stop-color="#DD025E"/>
</linearGradient>
<linearGradient id="paint9_linear" x1="14811" y1="7513.08" x2="23489.8" y2="4061.13" gradientUnits="userSpaceOnUse">
<stop stop-color="#FFAF11"/>
<stop offset="1" stop-color="#2B94F2"/>
</linearGradient>
<linearGradient id="paint10_linear" x1="558.416" y1="310.344" x2="561.721" y2="309.03" gradientUnits="userSpaceOnUse">
<stop stop-color="#FFAF11"/>
<stop offset="1" stop-color="#2B94F2"/>
</linearGradient>
<linearGradient id="paint11_linear" x1="634.666" y1="151.427" x2="638.031" y2="150.089" gradientUnits="userSpaceOnUse">
<stop stop-color="#FFAF11"/>
<stop offset="1" stop-color="#2B94F2"/>
</linearGradient>
<linearGradient id="paint12_linear" x1="915.094" y1="141.968" x2="924.222" y2="138.338" gradientUnits="userSpaceOnUse">
<stop stop-color="#FFAF11"/>
<stop offset="1" stop-color="#2B94F2"/>
</linearGradient>
<linearGradient id="paint13_linear" x1="1457.4" y1="528.938" x2="1480.81" y2="519.627" gradientUnits="userSpaceOnUse">
<stop stop-color="#FFAF11"/>
<stop offset="1" stop-color="#2B94F2"/>
</linearGradient>
<linearGradient id="paint14_linear" x1="1162.04" y1="566.349" x2="1179.9" y2="559.246" gradientUnits="userSpaceOnUse">
<stop stop-color="#FFAF11"/>
<stop offset="1" stop-color="#2B94F2"/>
</linearGradient>
<linearGradient id="paint15_linear" x1="1814.65" y1="775.451" x2="1858.67" y2="757.943" gradientUnits="userSpaceOnUse">
<stop stop-color="#FFAF11"/>
<stop offset="1" stop-color="#2B94F2"/>
</linearGradient>
<linearGradient id="paint16_linear" x1="1483.34" y1="573.699" x2="1512.93" y2="561.93" gradientUnits="userSpaceOnUse">
<stop stop-color="#FFAF11"/>
<stop offset="1" stop-color="#2B94F2"/>
</linearGradient>
<linearGradient id="paint17_linear" x1="2010.77" y1="664.186" x2="2063.34" y2="643.277" gradientUnits="userSpaceOnUse">
<stop stop-color="#FFAF11"/>
<stop offset="1" stop-color="#2B94F2"/>
</linearGradient>
<linearGradient id="paint18_linear" x1="1249.58" y1="447.327" x2="1272.99" y2="438.015" gradientUnits="userSpaceOnUse">
<stop stop-color="#FFAF11"/>
<stop offset="1" stop-color="#2B94F2"/>
</linearGradient>
<linearGradient id="paint19_linear" x1="626.201" y1="231.218" x2="629.454" y2="229.924" gradientUnits="userSpaceOnUse">
<stop stop-color="#FFAF11"/>
<stop offset="1" stop-color="#2B94F2"/>
</linearGradient>
<linearGradient id="paint20_linear" x1="965.637" y1="264.989" x2="974.806" y2="261.342" gradientUnits="userSpaceOnUse">
<stop stop-color="#FFAF11"/>
<stop offset="1" stop-color="#2B94F2"/>
</linearGradient>
<linearGradient id="paint21_linear" x1="805.73" y1="281.097" x2="811.547" y2="278.783" gradientUnits="userSpaceOnUse">
<stop stop-color="#FFAF11"/>
<stop offset="1" stop-color="#2B94F2"/>
</linearGradient>
<linearGradient id="paint22_linear" x1="721.076" y1="441.353" x2="726.927" y2="439.026" gradientUnits="userSpaceOnUse">
<stop stop-color="#FFAF11"/>
<stop offset="1" stop-color="#2B94F2"/>
</linearGradient>
<linearGradient id="paint23_linear" x1="734.507" y1="462.592" x2="740.373" y2="460.258" gradientUnits="userSpaceOnUse">
<stop stop-color="#FFAF11"/>
<stop offset="1" stop-color="#2B94F2"/>
</linearGradient>
<linearGradient id="paint24_linear" x1="1965.31" y1="1127.67" x2="2026.85" y2="1103.2" gradientUnits="userSpaceOnUse">
<stop stop-color="#FFAF11"/>
<stop offset="1" stop-color="#2B94F2"/>
</linearGradient>
<linearGradient id="paint25_linear" x1="875.497" y1="676.244" x2="888.612" y2="671.028" gradientUnits="userSpaceOnUse">
<stop stop-color="#FFAF11"/>
<stop offset="1" stop-color="#2B94F2"/>
</linearGradient>
<linearGradient id="paint26_linear" x1="832.618" y1="227.724" x2="856.029" y2="218.413" gradientUnits="userSpaceOnUse">
<stop stop-color="#FFAF11"/>
<stop offset="1" stop-color="#2B94F2"/>
</linearGradient>
<linearGradient id="paint27_linear" x1="443.173" y1="143.788" x2="448.991" y2="141.474" gradientUnits="userSpaceOnUse">
<stop stop-color="#FFAF11"/>
<stop offset="1" stop-color="#2B94F2"/>
</linearGradient>
<linearGradient id="paint28_linear" x1="1010.93" y1="271.677" x2="1040.42" y2="259.948" gradientUnits="userSpaceOnUse">
<stop stop-color="#FFAF11"/>
<stop offset="1" stop-color="#2B94F2"/>
</linearGradient>
<linearGradient id="paint29_linear" x1="486.763" y1="151.267" x2="492.614" y2="148.94" gradientUnits="userSpaceOnUse">
<stop stop-color="#FFAF11"/>
<stop offset="1" stop-color="#2B94F2"/>
</linearGradient>
<linearGradient id="paint30_linear" x1="584.559" y1="113.17" x2="593.288" y2="109.697" gradientUnits="userSpaceOnUse">
<stop stop-color="#FFAF11"/>
<stop offset="1" stop-color="#2B94F2"/>
</linearGradient>
<linearGradient id="paint31_linear" x1="1266.3" y1="97.5599" x2="1302.88" y2="83.0109" gradientUnits="userSpaceOnUse">
<stop stop-color="#FFAF11"/>
<stop offset="1" stop-color="#2B94F2"/>
</linearGradient>
<linearGradient id="paint32_linear" x1="2433.15" y1="458.479" x2="2578.94" y2="400.518" gradientUnits="userSpaceOnUse">
<stop stop-color="#FFAF11"/>
<stop offset="1" stop-color="#2B94F2"/>
</linearGradient>
<linearGradient id="paint33_linear" x1="309.39" y1="188.98" x2="312.643" y2="187.687" gradientUnits="userSpaceOnUse">
<stop stop-color="#FFAF11"/>
<stop offset="1" stop-color="#2B94F2"/>
</linearGradient>
<linearGradient id="paint34_linear" x1="491.107" y1="263.171" x2="500.277" y2="259.524" gradientUnits="userSpaceOnUse">
<stop stop-color="#FFAF11"/>
<stop offset="1" stop-color="#2B94F2"/>
</linearGradient>
<linearGradient id="paint35_linear" x1="456.315" y1="294.94" x2="465.045" y2="291.467" gradientUnits="userSpaceOnUse">
<stop stop-color="#FFAF11"/>
<stop offset="1" stop-color="#2B94F2"/>
</linearGradient>
<linearGradient id="paint36_linear" x1="290.86" y1="284.559" x2="294.165" y2="283.245" gradientUnits="userSpaceOnUse">
<stop stop-color="#FFAF11"/>
<stop offset="1" stop-color="#2B94F2"/>
</linearGradient>
<linearGradient id="paint37_linear" x1="110.851" y1="223.795" x2="111.207" y2="223.654" gradientUnits="userSpaceOnUse">
<stop stop-color="#FFAF11"/>
<stop offset="1" stop-color="#2B94F2"/>
</linearGradient>
<linearGradient id="paint38_linear" x1="456.431" y1="79.9914" x2="459.684" y2="78.6977" gradientUnits="userSpaceOnUse">
<stop stop-color="#FFAF11"/>
<stop offset="1" stop-color="#2B94F2"/>
</linearGradient>
<linearGradient id="paint39_linear" x1="1197.11" y1="162.489" x2="1226.7" y2="150.72" gradientUnits="userSpaceOnUse">
<stop stop-color="#FFAF11"/>
<stop offset="1" stop-color="#2B94F2"/>
</linearGradient>
<linearGradient id="paint40_linear" x1="625.571" y1="75.7882" x2="631.388" y2="73.4743" gradientUnits="userSpaceOnUse">
<stop stop-color="#FFAF11"/>
<stop offset="1" stop-color="#2B94F2"/>
</linearGradient>
<linearGradient id="paint41_linear" x1="674.875" y1="92.0162" x2="680.726" y2="89.6891" gradientUnits="userSpaceOnUse">
<stop stop-color="#FFAF11"/>
<stop offset="1" stop-color="#2B94F2"/>
</linearGradient>
<linearGradient id="paint42_linear" x1="673.206" y1="59.8614" x2="679.024" y2="57.5475" gradientUnits="userSpaceOnUse">
<stop stop-color="#FFAF11"/>
<stop offset="1" stop-color="#2B94F2"/>
</linearGradient>
<linearGradient id="paint43_linear" x1="1152.47" y1="103.933" x2="1170.37" y2="96.8157" gradientUnits="userSpaceOnUse">
<stop stop-color="#FFAF11"/>
<stop offset="1" stop-color="#2B94F2"/>
</linearGradient>
<linearGradient id="paint44_linear" x1="17449.8" y1="11923.8" x2="29023" y2="7320.63" gradientUnits="userSpaceOnUse">
<stop stop-color="#FFAF11"/>
<stop offset="1" stop-color="#2B94F2"/>
</linearGradient>
<linearGradient id="paint45_linear" x1="58939.8" y1="9685.05" x2="37417.7" y2="-16096.3" gradientUnits="userSpaceOnUse">
<stop stop-color="#FFAF11"/>
<stop offset="1" stop-color="#2B94F2"/>
</linearGradient>
<linearGradient id="paint46_linear" x1="56554.8" y1="-15059.2" x2="30508.3" y2="4736.32" gradientUnits="userSpaceOnUse">
<stop stop-color="#FFAF11"/>
<stop offset="1" stop-color="#2B94F2"/>
</linearGradient>
</defs>
</svg>
