<svg width="138" height="133" viewBox="0 0 138 133" fill="none" xmlns="http://www.w3.org/2000/svg">
<path d="M103.328 62.4934C102.84 62.6555 69.7852 66.2379 69.7852 66.2379L32.8241 64.9357L21.2642 70.8464L23.9669 79.0944L42.4223 79.2062L70.7644 70.3122L92.5765 78.5557L111.031 75.8417L112.123 67.0561C112.123 67.0561 103.819 62.3302 103.328 62.4934Z" fill="#151515"/>
<path d="M33.2047 85.8118C37.5816 85.8118 41.1297 82.2637 41.1297 77.8869C41.1297 73.51 37.5816 69.9619 33.2047 69.9619C28.8279 69.9619 25.2798 73.51 25.2798 77.8869C25.2798 82.2637 28.8279 85.8118 33.2047 85.8118Z" fill="#31302A"/>
<path d="M36.1864 70.5918C38.489 71.9778 40.5211 74.2648 40.6306 77.1475C40.7804 81.0943 39.0132 85.571 32.3379 85.391C31.2378 85.3513 30.152 85.128 29.1255 84.7304C30.3181 85.448 32.044 85.79 33.5362 85.79C37.9134 85.79 41.1303 82.3127 41.1303 77.9355C41.1303 76.3585 40.6599 74.8173 39.7792 73.5091C38.8985 72.2009 37.6476 71.1852 36.1864 70.5918V70.5918Z" fill="#161613"/>
<path d="M33.2043 82.7211C35.8736 82.7211 38.0375 80.5572 38.0375 77.8879C38.0375 75.2186 35.8736 73.0547 33.2043 73.0547C30.535 73.0547 28.3711 75.2186 28.3711 77.8879C28.3711 80.5572 30.535 82.7211 33.2043 82.7211Z" fill="#B7B29E"/>
<path d="M37.6442 77.8862C37.644 78.7642 37.3834 79.6225 36.8954 80.3525C36.4074 81.0825 35.7139 81.6513 34.9027 81.9872C34.0914 82.3231 33.1987 82.4108 32.3376 82.2394C31.4764 82.068 30.6854 81.645 30.0646 81.0241C29.4438 80.4031 29.0211 79.612 28.8499 78.7508C28.6787 77.8896 28.7666 76.997 29.1027 76.1858C29.4388 75.3746 30.0078 74.6813 30.7379 74.1935C31.468 73.7057 32.3264 73.4453 33.2044 73.4453C33.7875 73.4453 34.365 73.5602 34.9037 73.7834C35.4424 74.0066 35.9319 74.3337 36.3442 74.7461C36.7565 75.1585 37.0835 75.648 37.3065 76.1868C37.5296 76.7256 37.6443 77.3031 37.6442 77.8862V77.8862Z" fill="#969283"/>
<path d="M33.2048 81.0345C34.9431 81.0345 36.3524 79.6253 36.3524 77.8869C36.3524 76.1485 34.9431 74.7393 33.2048 74.7393C31.4664 74.7393 30.0571 76.1485 30.0571 77.8869C30.0571 79.6253 31.4664 81.0345 33.2048 81.0345Z" fill="#31302A"/>
<path d="M33.6608 79.9779C33.6608 80.0985 33.6129 80.2142 33.5276 80.2996C33.4423 80.3849 33.3266 80.4328 33.2059 80.4328V80.4328C33.0853 80.4328 32.9695 80.3849 32.8842 80.2996C32.7989 80.2142 32.751 80.0985 32.751 79.9779V75.7918C32.751 75.6712 32.7989 75.5555 32.8842 75.4702C32.9695 75.3848 33.0853 75.3369 33.2059 75.3369V75.3369C33.3266 75.3369 33.4423 75.3848 33.5276 75.4702C33.6129 75.5555 33.6608 75.6712 33.6608 75.7918V79.9779Z" fill="#969283"/>
<path d="M35.2987 77.3838C35.4194 77.3838 35.5353 77.4317 35.6208 77.517C35.7062 77.6023 35.7544 77.718 35.7547 77.8387C35.7544 77.9595 35.7062 78.0752 35.6208 78.1605C35.5353 78.2458 35.4194 78.2936 35.2987 78.2936H31.1138C30.993 78.2936 30.8772 78.2458 30.7917 78.1605C30.7062 78.0752 30.658 77.9595 30.6577 77.8387C30.658 77.718 30.7062 77.6023 30.7917 77.517C30.8772 77.4317 30.993 77.3838 31.1138 77.3838H35.2987Z" fill="#969283"/>
<path d="M35.0231 79.059C35.0655 79.1013 35.099 79.1515 35.1219 79.2067C35.1448 79.262 35.1566 79.3212 35.1566 79.381C35.1566 79.4408 35.1448 79.5 35.1219 79.5552C35.099 79.6104 35.0655 79.6606 35.0231 79.7029V79.7029C34.981 79.7452 34.9309 79.7787 34.8758 79.8016C34.8206 79.8245 34.7615 79.8363 34.7018 79.8363C34.6421 79.8363 34.583 79.8245 34.5278 79.8016C34.4727 79.7787 34.4226 79.7452 34.3804 79.7029L31.4206 76.743C31.3783 76.7008 31.3447 76.6506 31.3218 76.5954C31.2989 76.5401 31.2871 76.4809 31.2871 76.4211C31.2871 76.3613 31.2989 76.3021 31.3218 76.2469C31.3447 76.1916 31.3783 76.1415 31.4206 76.0992V76.0992C31.4627 76.0569 31.5128 76.0234 31.568 76.0005C31.6231 75.9776 31.6822 75.9658 31.7419 75.9658C31.8017 75.9658 31.8608 75.9776 31.9159 76.0005C31.9711 76.0234 32.0211 76.0569 32.0633 76.0992L35.0231 79.059Z" fill="#969283"/>
<path d="M34.3482 76.067C34.3904 76.0247 34.4404 75.9912 34.4956 75.9683C34.5507 75.9454 34.6099 75.9336 34.6696 75.9336C34.7293 75.9336 34.7884 75.9454 34.8435 75.9683C34.8987 75.9912 34.9488 76.0247 34.9909 76.067C35.0332 76.1092 35.0668 76.1594 35.0897 76.2146C35.1126 76.2699 35.1244 76.3291 35.1244 76.3889C35.1244 76.4487 35.1126 76.5079 35.0897 76.5631C35.0668 76.6184 35.0332 76.6686 34.9909 76.7108L32.0311 79.6707C31.9889 79.7129 31.9388 79.7465 31.8837 79.7694C31.8285 79.7923 31.7694 79.804 31.7097 79.804C31.65 79.804 31.5909 79.7923 31.5357 79.7694C31.4806 79.7465 31.4305 79.7129 31.3884 79.6707V79.6707C31.346 79.6284 31.3125 79.5782 31.2896 79.523C31.2667 79.4677 31.2549 79.4085 31.2549 79.3487C31.2549 79.2889 31.2667 79.2297 31.2896 79.1745C31.3125 79.1193 31.346 79.0691 31.3884 79.0268L34.3482 76.067Z" fill="#969283"/>
<path d="M34.493 79.1735C35.2037 78.4628 35.2037 77.3106 34.493 76.6C33.7824 75.8893 32.6302 75.8893 31.9195 76.6C31.2089 77.3106 31.2089 78.4628 31.9196 79.1735C32.6302 79.8841 33.7824 79.8841 34.493 79.1735Z" fill="#969283"/>
<path opacity="0.4" d="M26.0303 77.4978L26.701 76.9725C26.701 76.9725 26.7759 74.5 29.2115 72.6635C31.4358 70.9869 34.1576 71.2775 34.1576 71.2775L34.4203 70.7532C34.4203 70.7532 31.01 70.3408 28.6526 72.2544C25.8101 74.5536 26.0303 77.4978 26.0303 77.4978Z" fill="white"/>
<path d="M33.4202 75.7353C33.4202 75.7779 33.4076 75.8196 33.3839 75.8551C33.3602 75.8906 33.3265 75.9182 33.2871 75.9346C33.2476 75.9509 33.2043 75.9552 33.1624 75.9468C33.1206 75.9385 33.0821 75.918 33.052 75.8878C33.0218 75.8576 33.0012 75.8192 32.9929 75.7773C32.9846 75.7355 32.9889 75.6921 33.0052 75.6527C33.0215 75.6133 33.0492 75.5796 33.0846 75.5559C33.1201 75.5322 33.1618 75.5195 33.2045 75.5195C33.2329 75.5194 33.261 75.5249 33.2872 75.5357C33.3135 75.5464 33.3373 75.5623 33.3574 75.5824C33.3774 75.6025 33.3933 75.6263 33.4041 75.6525C33.4149 75.6788 33.4204 75.7069 33.4202 75.7353V75.7353Z" fill="#B7B29E"/>
<path d="M34.9217 76.3347C34.9219 76.3774 34.9094 76.4193 34.8859 76.4549C34.8623 76.4905 34.8287 76.5183 34.7893 76.5348C34.7499 76.5513 34.7065 76.5558 34.6646 76.5476C34.6226 76.5394 34.5841 76.5189 34.5538 76.4888C34.5235 76.4587 34.5029 76.4202 34.4945 76.3783C34.486 76.3365 34.4903 76.293 34.5065 76.2536C34.5228 76.2141 34.5505 76.1803 34.586 76.1566C34.6215 76.1328 34.6632 76.1201 34.706 76.1201C34.7342 76.12 34.7623 76.1254 34.7884 76.1361C34.8146 76.1469 34.8384 76.1626 34.8584 76.1826C34.8785 76.2025 34.8944 76.2262 34.9052 76.2523C34.9161 76.2785 34.9217 76.3065 34.9217 76.3347V76.3347Z" fill="#B7B29E"/>
<path d="M35.6317 77.8534C35.6317 77.8961 35.619 77.9378 35.5953 77.9733C35.5716 78.0088 35.5379 78.0364 35.4985 78.0527C35.4591 78.0691 35.4157 78.0733 35.3738 78.065C35.332 78.0567 35.2936 78.0361 35.2634 78.006C35.2332 77.9758 35.2127 77.9374 35.2043 77.8955C35.196 77.8537 35.2003 77.8103 35.2166 77.7709C35.2329 77.7314 35.2606 77.6978 35.2961 77.6741C35.3315 77.6503 35.3733 77.6377 35.4159 77.6377C35.4731 77.6377 35.528 77.6604 35.5685 77.7009C35.6089 77.7413 35.6317 77.7962 35.6317 77.8534V77.8534Z" fill="#B7B29E"/>
<path d="M34.994 79.4822C34.9942 79.5249 34.9817 79.5667 34.9581 79.6023C34.9346 79.638 34.901 79.6658 34.8616 79.6823C34.8222 79.6988 34.7787 79.7032 34.7368 79.695C34.6949 79.6868 34.6564 79.6664 34.6261 79.6362C34.5958 79.6061 34.5751 79.5677 34.5667 79.5258C34.5583 79.4839 34.5625 79.4405 34.5788 79.401C34.5951 79.3615 34.6228 79.3278 34.6583 79.304C34.6938 79.2803 34.7355 79.2676 34.7782 79.2676C34.8065 79.2674 34.8345 79.2729 34.8607 79.2836C34.8869 79.2943 34.9107 79.3101 34.9307 79.33C34.9507 79.35 34.9667 79.3737 34.9775 79.3998C34.9884 79.4259 34.994 79.4539 34.994 79.4822V79.4822Z" fill="#B7B29E"/>
<path d="M33.4017 80.0447C33.4019 80.0874 33.3894 80.1292 33.3659 80.1648C33.3423 80.2005 33.3087 80.2283 33.2693 80.2448C33.2299 80.2613 33.1865 80.2657 33.1445 80.2575C33.1026 80.2493 33.0641 80.2289 33.0338 80.1987C33.0035 80.1686 32.9829 80.1302 32.9744 80.0883C32.966 80.0464 32.9702 80.003 32.9865 79.9635C33.0028 79.924 33.0305 79.8903 33.066 79.8665C33.1015 79.8428 33.1432 79.8301 33.1859 79.8301C33.2142 79.8299 33.2422 79.8354 33.2684 79.8461C33.2946 79.8568 33.3184 79.8726 33.3384 79.8925C33.3585 79.9125 33.3744 79.9362 33.3852 79.9623C33.3961 79.9884 33.4017 80.0164 33.4017 80.0447V80.0447Z" fill="#B7B29E"/>
<path d="M31.9031 79.3896C31.9031 79.4323 31.8905 79.474 31.8667 79.5095C31.8429 79.545 31.8092 79.5727 31.7697 79.589C31.7302 79.6053 31.6868 79.6095 31.6449 79.6011C31.603 79.5926 31.5646 79.572 31.5345 79.5417C31.5043 79.5114 31.4839 79.4729 31.4757 79.431C31.4675 79.389 31.4719 79.3456 31.4884 79.3062C31.5049 79.2668 31.5327 79.2332 31.5684 79.2096C31.604 79.1861 31.6458 79.1736 31.6885 79.1738C31.7168 79.1738 31.7448 79.1794 31.7709 79.1903C31.797 79.2011 31.8207 79.217 31.8407 79.2371C31.8606 79.2571 31.8764 79.2809 31.8871 79.3071C31.8978 79.3333 31.9033 79.3613 31.9031 79.3896V79.3896Z" fill="#B7B29E"/>
<path d="M31.3035 77.872C31.3035 77.9146 31.2909 77.9564 31.2672 77.9918C31.2435 78.0273 31.2098 78.055 31.1704 78.0713C31.1309 78.0876 31.0876 78.0919 31.0457 78.0836C31.0039 78.0752 30.9654 78.0547 30.9353 78.0245C30.9051 77.9944 30.8845 77.9559 30.8762 77.9141C30.8679 77.8722 30.8722 77.8288 30.8885 77.7894C30.9048 77.75 30.9325 77.7163 30.9679 77.6926C31.0034 77.6689 31.0451 77.6562 31.0878 77.6562C31.145 77.6562 31.1999 77.679 31.2403 77.7194C31.2808 77.7599 31.3035 77.8148 31.3035 77.872V77.872Z" fill="#B7B29E"/>
<path d="M31.9031 76.3347C31.9034 76.3775 31.8909 76.4194 31.8672 76.455C31.8436 76.4906 31.8099 76.5185 31.7705 76.5349C31.731 76.5514 31.6875 76.5558 31.6456 76.5475C31.6036 76.5392 31.5651 76.5186 31.5349 76.4884C31.5046 76.4582 31.4841 76.4196 31.4758 76.3777C31.4675 76.3357 31.4718 76.2922 31.4883 76.2528C31.5048 76.2133 31.5326 76.1796 31.5683 76.156C31.6039 76.1324 31.6458 76.1199 31.6885 76.1201C31.7454 76.1201 31.8 76.1427 31.8403 76.183C31.8805 76.2232 31.9031 76.2778 31.9031 76.3347V76.3347Z" fill="#B7B29E"/>
<path d="M33.9108 78.5933C34.3011 78.2031 34.3011 77.5704 33.9108 77.1801C33.5206 76.7899 32.8879 76.7899 32.4976 77.1801C32.1074 77.5704 32.1074 78.2031 32.4976 78.5933C32.8879 78.9836 33.5206 78.9836 33.9108 78.5933Z" fill="#B7B29E"/>
<path d="M102.243 85.8118C106.62 85.8118 110.168 82.2637 110.168 77.8869C110.168 73.51 106.62 69.9619 102.243 69.9619C97.8665 69.9619 94.3184 73.51 94.3184 77.8869C94.3184 82.2637 97.8665 85.8118 102.243 85.8118Z" fill="#31302A"/>
<path d="M105.228 70.5918C107.532 71.9778 109.564 74.2648 109.674 77.1475C109.823 81.0943 108.056 85.571 101.38 85.391C100.28 85.3513 99.1946 85.128 98.1685 84.7304C99.36 85.448 101.087 85.79 102.579 85.79C106.955 85.79 110.172 82.3127 110.172 77.9355C110.172 76.3584 109.702 74.8172 108.821 73.509C107.94 72.2007 106.689 71.185 105.228 70.5918V70.5918Z" fill="#161613"/>
<path d="M102.243 82.7211C104.913 82.7211 107.077 80.5572 107.077 77.8879C107.077 75.2186 104.913 73.0547 102.243 73.0547C99.5741 73.0547 97.4102 75.2186 97.4102 77.8879C97.4102 80.5572 99.5741 82.7211 102.243 82.7211Z" fill="#B7B29E"/>
<path d="M104.167 81.8885C106.377 80.8263 107.308 78.1737 106.246 75.9637C105.184 73.7537 102.531 72.8232 100.321 73.8853C98.1109 74.9475 97.1804 77.6002 98.2426 79.8102C99.3048 82.0202 101.957 82.9507 104.167 81.8885Z" fill="#969283"/>
<path d="M105.391 77.8869C105.391 78.5094 105.206 79.118 104.86 79.6356C104.515 80.1532 104.023 80.5567 103.448 80.7949C102.873 81.0331 102.24 81.0955 101.629 80.974C101.019 80.8526 100.458 80.5528 100.018 80.1126C99.5774 79.6724 99.2776 79.1115 99.1562 78.501C99.0347 77.8904 99.0971 77.2575 99.3353 76.6823C99.5735 76.1072 99.977 75.6156 100.495 75.2697C101.012 74.9239 101.621 74.7393 102.243 74.7393C102.657 74.7391 103.066 74.8204 103.448 74.9786C103.83 75.1367 104.177 75.3685 104.469 75.6608C104.762 75.9532 104.994 76.3002 105.152 76.6822C105.31 77.0641 105.391 77.4735 105.391 77.8869V77.8869Z" fill="#31302A"/>
<path d="M102.698 79.9808C102.698 80.1015 102.651 80.2172 102.565 80.3025C102.48 80.3878 102.364 80.4357 102.244 80.4357V80.4357C102.184 80.4357 102.125 80.424 102.069 80.4011C102.014 80.3782 101.964 80.3447 101.922 80.3025C101.88 80.2602 101.846 80.2101 101.823 80.1549C101.8 80.0997 101.789 80.0405 101.789 79.9808V75.7948C101.789 75.735 101.8 75.6759 101.823 75.6207C101.846 75.5655 101.88 75.5153 101.922 75.4731C101.964 75.4308 102.014 75.3973 102.069 75.3745C102.125 75.3516 102.184 75.3398 102.244 75.3398V75.3398C102.364 75.3398 102.48 75.3878 102.565 75.4731C102.651 75.5584 102.698 75.6741 102.698 75.7948V79.9808Z" fill="#969283"/>
<path d="M104.333 77.3887C104.393 77.3882 104.453 77.3998 104.509 77.4226C104.564 77.4454 104.615 77.479 104.658 77.5215C104.7 77.5641 104.734 77.6146 104.757 77.6703C104.78 77.726 104.791 77.7856 104.791 77.8458V77.8458C104.791 77.9665 104.743 78.0822 104.658 78.1675C104.573 78.2529 104.457 78.3008 104.336 78.3008H100.15C100.03 78.3008 99.9139 78.2529 99.8286 78.1675C99.7432 78.0822 99.6953 77.9665 99.6953 77.8458V77.8458C99.6953 77.7252 99.7432 77.6095 99.8286 77.5242C99.9139 77.4388 100.03 77.3909 100.15 77.3909L104.333 77.3887Z" fill="#969283"/>
<path d="M104.061 79.0621C104.104 79.1043 104.137 79.1545 104.16 79.2097C104.183 79.265 104.195 79.3242 104.195 79.384C104.195 79.4438 104.183 79.503 104.16 79.5582C104.137 79.6135 104.104 79.6636 104.061 79.7059V79.7059C104.019 79.7482 103.969 79.7818 103.914 79.8047C103.858 79.8276 103.799 79.8394 103.739 79.8394C103.68 79.8394 103.62 79.8276 103.565 79.8047C103.51 79.7818 103.46 79.7482 103.418 79.7059L100.458 76.7461C100.415 76.7038 100.382 76.6536 100.359 76.5984C100.336 76.5432 100.324 76.4839 100.324 76.4241C100.324 76.3643 100.336 76.3051 100.359 76.2499C100.382 76.1947 100.415 76.1445 100.458 76.1022V76.1022C100.5 76.0599 100.55 76.0263 100.605 76.0034C100.661 75.9805 100.72 75.9688 100.78 75.9688C100.839 75.9688 100.899 75.9805 100.954 76.0034C101.009 76.0263 101.059 76.0599 101.102 76.1022L104.061 79.0621Z" fill="#969283"/>
<path d="M103.385 76.07C103.427 76.0277 103.477 75.9941 103.532 75.9712C103.588 75.9483 103.647 75.9365 103.707 75.9365C103.767 75.9365 103.826 75.9483 103.881 75.9712C103.936 75.9941 103.986 76.0277 104.029 76.07V76.07C104.071 76.1123 104.105 76.1624 104.127 76.2177C104.15 76.2729 104.162 76.3321 104.162 76.3919C104.162 76.4517 104.15 76.5109 104.127 76.5662C104.105 76.6214 104.071 76.6716 104.029 76.7138L101.069 79.6737C101.027 79.716 100.976 79.7496 100.921 79.7725C100.866 79.7954 100.807 79.8072 100.747 79.8072C100.687 79.8072 100.628 79.7954 100.573 79.7725C100.517 79.7496 100.467 79.716 100.425 79.6737V79.6737C100.383 79.6314 100.349 79.5812 100.326 79.526C100.303 79.4708 100.292 79.4116 100.292 79.3518C100.292 79.292 100.303 79.2328 100.326 79.1775C100.349 79.1223 100.383 79.0721 100.425 79.0298L103.385 76.07Z" fill="#969283"/>
<path d="M103.53 79.1754C104.24 78.4648 104.24 77.3126 103.53 76.6019C102.819 75.8913 101.667 75.8913 100.956 76.6019C100.246 77.3126 100.246 78.4648 100.956 79.1754C101.667 79.8861 102.819 79.8861 103.53 79.1754Z" fill="#969283"/>
<path opacity="0.4" d="M95.0689 77.4979L95.7396 76.9725C95.7396 76.9725 95.8145 74.5001 98.2501 72.6636C100.474 70.9869 103.196 71.2775 103.196 71.2775L103.459 70.7533C103.459 70.7533 100.049 70.3408 97.6878 72.2522C94.8487 74.5537 95.0689 77.4979 95.0689 77.4979Z" fill="white"/>
<path d="M102.459 75.7353C102.459 75.778 102.447 75.8197 102.423 75.8552C102.399 75.8907 102.365 75.9184 102.326 75.9347C102.286 75.951 102.243 75.9552 102.201 75.9468C102.159 75.9383 102.121 75.9177 102.091 75.8874C102.06 75.8571 102.04 75.8186 102.032 75.7767C102.024 75.7347 102.028 75.6913 102.045 75.6519C102.061 75.6125 102.089 75.5789 102.125 75.5553C102.16 75.5318 102.202 75.5193 102.245 75.5195C102.273 75.5195 102.301 75.5251 102.327 75.536C102.353 75.5468 102.377 75.5627 102.397 75.5828C102.417 75.6028 102.433 75.6266 102.443 75.6528C102.454 75.679 102.459 75.707 102.459 75.7353V75.7353Z" fill="#B7B29E"/>
<path d="M103.958 76.3347C103.959 76.3774 103.946 76.4193 103.922 76.4549C103.899 76.4905 103.865 76.5183 103.826 76.5348C103.787 76.5513 103.743 76.5558 103.701 76.5476C103.659 76.5394 103.621 76.5189 103.59 76.4888C103.56 76.4587 103.539 76.4202 103.531 76.3783C103.523 76.3365 103.527 76.293 103.543 76.2536C103.559 76.2141 103.587 76.1803 103.623 76.1566C103.658 76.1328 103.7 76.1201 103.743 76.1201C103.771 76.12 103.799 76.1254 103.825 76.1361C103.851 76.1469 103.875 76.1626 103.895 76.1826C103.915 76.2025 103.931 76.2262 103.942 76.2523C103.953 76.2785 103.958 76.3065 103.958 76.3347V76.3347Z" fill="#B7B29E"/>
<path d="M104.669 77.8534C104.669 77.8961 104.657 77.9378 104.633 77.9733C104.609 78.0088 104.575 78.0364 104.536 78.0527C104.497 78.0691 104.453 78.0733 104.411 78.065C104.37 78.0567 104.331 78.0361 104.301 78.006C104.271 77.9758 104.25 77.9374 104.242 77.8955C104.234 77.8537 104.238 77.8103 104.254 77.7709C104.271 77.7315 104.298 77.6978 104.334 77.6741C104.369 77.6503 104.411 77.6377 104.454 77.6377C104.482 77.6376 104.51 77.643 104.536 77.6538C104.562 77.6646 104.586 77.6805 104.606 77.7006C104.626 77.7206 104.642 77.7445 104.653 77.7707C104.664 77.7969 104.669 77.8251 104.669 77.8534V77.8534Z" fill="#B7B29E"/>
<path d="M104.033 79.4822C104.033 79.525 104.021 79.5668 103.997 79.6025C103.974 79.6381 103.94 79.6659 103.9 79.6824C103.861 79.6989 103.817 79.7032 103.775 79.6949C103.734 79.6867 103.695 79.6661 103.665 79.6358C103.635 79.6056 103.614 79.5671 103.606 79.5251C103.597 79.4832 103.602 79.4397 103.618 79.4002C103.635 79.3608 103.662 79.3271 103.698 79.3035C103.734 79.2799 103.776 79.2674 103.818 79.2676C103.847 79.2676 103.874 79.2731 103.901 79.2839C103.927 79.2947 103.95 79.3105 103.97 79.3304C103.99 79.3504 104.006 79.374 104.017 79.4001C104.027 79.4261 104.033 79.454 104.033 79.4822V79.4822Z" fill="#B7B29E"/>
<path d="M102.441 80.0447C102.441 80.0874 102.429 80.1292 102.405 80.1648C102.382 80.2005 102.348 80.2283 102.309 80.2448C102.269 80.2613 102.226 80.2657 102.184 80.2575C102.142 80.2493 102.104 80.2289 102.073 80.1987C102.043 80.1686 102.022 80.1302 102.014 80.0883C102.006 80.0464 102.01 80.003 102.026 79.9635C102.042 79.924 102.07 79.8903 102.106 79.8665C102.141 79.8428 102.183 79.8301 102.225 79.8301C102.283 79.8301 102.337 79.8527 102.378 79.8929C102.418 79.9331 102.441 79.9877 102.441 80.0447V80.0447Z" fill="#B7B29E"/>
<path d="M100.942 79.3896C100.942 79.4322 100.929 79.4739 100.905 79.5094C100.882 79.5449 100.848 79.5725 100.809 79.5889C100.769 79.6052 100.726 79.6095 100.684 79.6011C100.642 79.5928 100.604 79.5723 100.573 79.5421C100.543 79.5119 100.523 79.4735 100.514 79.4316C100.506 79.3898 100.51 79.3464 100.527 79.307C100.543 79.2676 100.571 79.2339 100.606 79.2102C100.642 79.1865 100.683 79.1738 100.726 79.1738C100.783 79.1738 100.838 79.1966 100.879 79.237C100.919 79.2775 100.942 79.3323 100.942 79.3896Z" fill="#B7B29E"/>
<path d="M100.342 77.872C100.342 77.9146 100.329 77.9564 100.305 77.9918C100.282 78.0273 100.248 78.055 100.208 78.0713C100.169 78.0876 100.126 78.0919 100.084 78.0836C100.042 78.0752 100.004 78.0547 99.9733 78.0245C99.9432 77.9944 99.9226 77.9559 99.9143 77.9141C99.906 77.8722 99.9102 77.8288 99.9266 77.7894C99.9429 77.75 99.9706 77.7163 100.006 77.6926C100.042 77.6689 100.083 77.6562 100.126 77.6562C100.183 77.6562 100.238 77.679 100.278 77.7194C100.319 77.7599 100.342 77.8148 100.342 77.872V77.872Z" fill="#B7B29E"/>
<path d="M100.942 76.3347C100.942 76.3774 100.929 76.4193 100.906 76.4549C100.882 76.4905 100.849 76.5183 100.809 76.5348C100.77 76.5513 100.727 76.5558 100.685 76.5476C100.643 76.5394 100.604 76.5189 100.574 76.4888C100.544 76.4587 100.523 76.4202 100.514 76.3783C100.506 76.3365 100.51 76.293 100.527 76.2536C100.543 76.2141 100.571 76.1803 100.606 76.1566C100.642 76.1328 100.683 76.1201 100.726 76.1201C100.783 76.1201 100.838 76.1427 100.878 76.1829C100.919 76.2231 100.941 76.2777 100.942 76.3347V76.3347Z" fill="#B7B29E"/>
<path d="M102.95 78.5943C103.34 78.204 103.34 77.5713 102.95 77.1811C102.56 76.7909 101.927 76.7909 101.537 77.1811C101.146 77.5713 101.146 78.2041 101.537 78.5943C101.927 78.9845 102.56 78.9845 102.95 78.5943Z" fill="#B7B29E"/>
<path d="M23.9673 79.0949L13.3273 79.1173L13.0132 76.4715L10.5061 74.2103L10.1797 72.0385L12.5661 70.9531L13.9779 65.7421C13.9779 65.7421 19.6248 62.5945 29.9373 60.9659C40.2498 59.3373 45.4619 59.5542 45.4619 59.5542C45.4619 59.5542 61.2034 49.5647 63.2657 49.2417L65.3246 48.9153C65.3246 48.9153 95.2908 47.2878 97.353 48.3732C99.4153 49.4585 109.729 56.6234 109.729 56.6234C109.729 56.6234 123.19 55.7549 123.842 57.0582C124.493 58.3615 124.602 67.8055 124.602 67.8055L127.641 68.4561L126.881 72.5817L125.144 73.3418L124.492 75.4041L111.031 75.8389C111.031 75.8389 108.217 69.4788 107.454 69.3246C104.198 68.674 100.616 68.3476 96.0531 70.1931C94.173 70.9543 92.5791 78.5528 92.5791 78.5528L42.425 79.2034C42.425 79.2034 42.5747 76.7599 41.1217 73.4502C39.1689 68.9993 32.9888 66.8074 27.8795 70.0846C23.6409 72.7986 23.9673 79.0949 23.9673 79.0949Z" fill="#00AA81"/>
<path d="M49.9669 60.5335C49.6092 60.5033 52.227 57.7391 55.1779 55.4309C58.2127 53.0601 62.4948 50.6021 63.3197 50.4367C64.9483 50.1114 74.9378 49.6777 74.9378 49.6777L72.5503 59.8829C72.5503 59.8829 52.5724 60.7503 49.9669 60.5335Z" fill="#FFCF52"/>
<path d="M55.935 56.0825C58.9686 53.7117 63.2519 51.2538 64.0768 51.0884C65.4014 50.8234 72.26 50.487 74.7705 50.3696L74.937 49.6777C74.937 49.6777 64.9498 50.1125 63.3212 50.4378C62.4963 50.6032 58.2141 53.0612 55.1794 55.432C52.2285 57.7379 49.6107 60.5044 49.9684 60.5346C50.2065 60.5536 50.5888 60.5648 51.0862 60.5681C51.8865 59.6158 53.8258 57.7312 55.935 56.0825Z" fill="#151515"/>
<path d="M78.2467 49.459L76.6182 59.5547L95.2904 59.121L93.0102 49.2422L78.2467 49.459Z" fill="#FFCF52"/>
<path d="M78.9822 50.1196L93.227 49.6759L93.0102 49.2422L78.2467 49.459L76.6182 59.5547H77.5023L78.9822 50.1196Z" fill="#151515"/>
<path d="M94.7471 49.4588L97.6398 58.9732L104.497 58.8525C104.497 58.8525 104.543 57.88 104.001 57.2284C103.459 56.5767 101.961 55.5484 99.5278 53.0412C95.7274 49.1335 94.7471 49.4588 94.7471 49.4588Z" fill="#FFCF52"/>
<path d="M95.4759 49.6169C94.9371 49.3531 94.7471 49.4157 94.7471 49.4157L97.6398 58.9301L98.3038 58.9178L95.4759 49.6169Z" fill="#151515"/>
<path d="M10.0812 71.7459C10.0812 71.7459 22.3006 71.6856 23.851 71.8298C24.8346 71.9214 24.7172 74.3827 23.5749 74.5605C21.6579 74.8578 11.9814 74.6857 11.9814 74.6857C11.9814 74.6857 9.52235 74.7427 9.34239 73.351C9.18925 72.1718 10.0812 71.7459 10.0812 71.7459Z" fill="#72726F"/>
<path opacity="0.5" d="M10.2334 71.9219L9.59961 72.5311L23.9674 72.7423L23.6633 71.9688L10.2334 71.9219Z" fill="#FFCD4E"/>
<path d="M110.594 68.4901C110.594 68.4901 126.088 68.4297 128.053 68.5739C129.3 68.6656 129.151 71.1258 127.703 71.3035C125.273 71.6019 113.003 71.4298 113.003 71.4298C113.003 71.4298 109.886 71.4868 109.656 70.0952C109.456 68.9148 110.594 68.4901 110.594 68.4901Z" fill="#72726F"/>
<path opacity="0.5" d="M110.779 68.665L109.978 69.2742L128.194 69.4855L127.809 68.712L110.779 68.665Z" fill="#FFCD4E"/>
<path d="M92.9452 71.021L41.6622 72.3645L40.4673 71.2781L94.025 69.6104L92.9452 71.021Z" fill="#72726F"/>
<path d="M19.202 66.3572C18.9595 65.539 13.3528 65.9325 13.3528 65.9325C13.3528 65.9325 12.7637 67.0089 12.5659 67.7511C12.273 68.8386 12.4753 70.8428 12.4753 70.8428L18.993 70.7824C18.993 70.7824 19.3988 67.02 19.202 66.3572Z" fill="#FFCD4E"/>
<path d="M13.777 66.3584C13.777 66.3584 13.2315 67.389 13.141 67.9949C13.0504 68.6007 13.0493 70.5109 13.0493 70.5109L14.1671 70.5411C14.1671 70.5411 13.9849 69.1171 14.2576 68.4174C14.5304 67.7176 15.8638 66.2344 15.8638 66.2344L13.777 66.3584Z" fill="white"/>
<path d="M122.325 58.7588L45.6824 61.2548L37.4321 65.5973L117.826 61.8058L122.325 58.7588Z" fill="#FF6B00"/>
<path d="M17.8325 65.6611C17.8325 65.6611 26.4639 63.1394 30.8053 62.5973C35.1467 62.0551 45.6783 61.2939 45.6783 61.2939L48.2838 62.7057C48.2838 62.7057 33.954 63.031 31.0233 63.2489C28.0925 63.4669 19.0252 65.8567 19.0252 65.8567L17.8325 65.6611Z" fill="#FF6B00"/>
<path d="M124.297 61.3323C124.297 61.3323 121.402 61.2607 121.112 61.2607C120.823 61.2607 120.389 61.5502 120.389 61.9113C120.389 62.2723 120.606 64.5939 120.679 64.8789C120.751 65.164 121.185 65.458 121.691 65.458C122.198 65.458 124.732 65.5306 124.732 65.5306L124.297 61.3323Z" fill="#B52C1A"/>
<path d="M121.094 61.7199L121.354 64.9301H122.392L122.133 61.6875L121.094 61.7199Z" fill="#F23325"/>
<path opacity="0.7" d="M92.7953 77.5342L42.3852 77.9757L41.9873 75.8765L93.4805 75.1533L92.7953 77.5342Z" fill="#1A1A1A"/>
<path opacity="0.7" d="M110.272 74.2106L125.144 73.3421L126.881 72.582L109.758 73.1543L110.272 74.2106Z" fill="#1A1A1A"/>
<path d="M71.8413 63.5169C71.8413 63.9148 71.7233 64.3038 71.5023 64.6347C71.2812 64.9655 70.967 65.2234 70.5993 65.3757C70.2317 65.528 69.8271 65.5678 69.4368 65.4902C69.0466 65.4125 68.6881 65.2209 68.4067 64.9395C68.1253 64.6582 67.9337 64.2997 67.856 63.9094C67.7784 63.5191 67.8183 63.1146 67.9705 62.7469C68.1228 62.3793 68.3807 62.065 68.7116 61.844C69.0424 61.6229 69.4314 61.5049 69.8294 61.5049C70.363 61.5049 70.8747 61.7169 71.252 62.0942C71.6294 62.4715 71.8413 62.9833 71.8413 63.5169Z" fill="#1A1A1A"/>
<path d="M95.833 62.4319C95.833 62.8298 95.715 63.2188 95.494 63.5497C95.2729 63.8806 94.9586 64.1384 94.591 64.2907C94.2234 64.443 93.8188 64.4828 93.4285 64.4052C93.0383 64.3276 92.6798 64.136 92.3984 63.8546C92.117 63.5732 91.9254 63.2147 91.8477 62.8244C91.7701 62.4341 91.81 62.0296 91.9622 61.6619C92.1145 61.2943 92.3724 60.9801 92.7033 60.759C93.0341 60.5379 93.4231 60.4199 93.8211 60.4199C94.3547 60.4199 94.8664 60.6319 95.2437 61.0092C95.6211 61.3865 95.833 61.8983 95.833 62.4319Z" fill="#1A1A1A"/>
<path d="M45.6003 76.0566L45.5757 75.9806C45.5634 75.9426 44.3808 72.207 45.028 67.1402C45.5869 62.7418 47.4189 60.2738 47.4379 60.2492L47.4558 60.2302C47.5586 60.1452 57.8432 51.7285 63.119 49.7903C64.3977 49.3208 76.2192 48.8279 76.7222 48.8066H76.8552L75.0925 59.8099C75.0813 59.8457 73.901 63.5276 73.6864 66.948C73.4717 70.3683 74.4353 75.2295 74.4442 75.2787L74.4699 75.4061H74.3402L45.6003 76.0566ZM47.6033 60.39C47.477 60.5644 45.7791 62.9721 45.2437 67.167C44.6535 71.7879 45.5958 75.2809 45.759 75.8364L74.2072 75.1904C74.0575 74.3968 73.2739 70.0665 73.4695 66.9301C73.6808 63.56 74.8209 59.9429 74.8835 59.7462L76.5981 49.0313C75.2646 49.0872 64.3698 49.5634 63.1939 49.9959C58.0276 51.8939 47.9867 60.0726 47.6033 60.3912V60.39Z" fill="#151515"/>
<path d="M74.3394 75.4047V75.1878L92.0112 74.9889C92.0447 74.3875 92.2649 71.4299 93.3637 70.1244C94.1931 69.1396 95.1756 68.7193 96.0463 68.3493C96.9931 67.9447 97.7409 67.625 97.9041 66.7018C97.9812 66.267 97.1954 62.1916 96.1537 57.6166C94.8269 51.8232 93.9796 49.0668 93.7248 48.9058C93.1223 48.6476 81.2527 48.9047 76.7258 49.0254V48.8075C77.3964 48.7907 93.0452 48.3771 93.8153 48.708C94.3183 48.9248 95.616 54.3091 96.3426 57.5014C97.2848 61.6305 98.2036 66.22 98.1109 66.7409C97.9275 67.7804 97.0926 68.1381 96.1246 68.5517C95.2807 68.9116 94.3239 69.3207 93.528 70.2663C92.3745 71.6356 92.2214 75.0727 92.2202 75.1029V75.2057L74.3394 75.4047Z" fill="#151515"/>
<path d="M72.3112 63.3134C72.3124 63.4187 72.2718 63.5202 72.1982 63.5957C72.1247 63.6711 72.0242 63.7143 71.9189 63.7158H67.5708C67.4652 63.7158 67.364 63.6738 67.2894 63.5992C67.2148 63.5246 67.1729 63.4234 67.1729 63.3178V63.3178C67.1731 63.2124 67.2152 63.1114 67.2897 63.0368C67.3643 62.9622 67.4653 62.9202 67.5708 62.9199H71.9189C72.0244 62.9199 72.1256 62.9618 72.2003 63.0365C72.2749 63.1111 72.3168 63.2123 72.3168 63.3178L72.3112 63.3134Z" fill="#151515"/>
<path d="M96.2678 62.3071C96.2675 62.4125 96.2254 62.5136 96.1509 62.5882C96.0763 62.6627 95.9753 62.7047 95.8698 62.705H91.5273C91.4218 62.705 91.3206 62.6631 91.2459 62.5885C91.1713 62.5139 91.1294 62.4126 91.1294 62.3071V62.3071C91.1294 62.2016 91.1713 62.1004 91.2459 62.0257C91.3206 61.9511 91.4218 61.9092 91.5273 61.9092H95.8698C95.9754 61.9092 96.0766 61.9511 96.1512 62.0257C96.2258 62.1004 96.2678 62.2016 96.2678 62.3071V62.3071Z" fill="#151515"/>
<path opacity="0.7" d="M13.0075 76.4707L24.1214 76.6406L24.4847 75.0176L11.5063 75.0902L13.0075 76.4707Z" fill="#1A1A1A"/>
<line x1="68.7227" y1="62.6543" x2="72.0562" y2="62.6543" stroke="white"/>
<rect x="73.3818" y="51.1064" width="0.341644" height="8.35725" transform="rotate(17.138 73.3818 51.1064)" fill="white"/>
<rect x="92.0571" y="50.3545" width="0.341644" height="8.35725" transform="rotate(-13.66 92.0571 50.3545)" fill="white"/>
<line x1="92.6636" y1="61.6689" x2="95.9971" y2="61.6689" stroke="white"/>
<line x1="48.8522" y1="60.9877" x2="58.3983" y2="60.6089" stroke="white"/>
<line x1="97.4189" y1="59.5482" x2="121.057" y2="58.7148" stroke="white"/>
</svg>
