<svg width="138" height="133" viewBox="0 0 138 133" fill="none" xmlns="http://www.w3.org/2000/svg">
<path d="M102 39.5V58.75C102 59.4948 101.728 60.1393 101.184 60.6836C100.639 61.2279 99.9948 61.5 99.25 61.5H80C78.7969 61.5 77.9518 60.9271 77.4648 59.7812C76.9779 58.6641 77.1784 57.6758 78.0664 56.8164L83.9961 50.8867C79.7565 46.9622 74.7578 45 69 45C66.0208 45 63.1777 45.5801 60.4707 46.7402C57.7637 47.9004 55.4219 49.4688 53.4453 51.4453C51.4688 53.4219 49.9004 55.7637 48.7402 58.4707C47.5801 61.1777 47 64.0208 47 67C47 69.9792 47.5801 72.8223 48.7402 75.5293C49.9004 78.2363 51.4688 80.5781 53.4453 82.5547C55.4219 84.5312 57.7637 86.0996 60.4707 87.2598C63.1777 88.4199 66.0208 89 69 89C72.4089 89 75.6315 88.2552 78.668 86.7656C81.7044 85.276 84.2682 83.1706 86.3594 80.4492C86.5599 80.1628 86.8893 79.9909 87.3477 79.9336C87.7773 79.9336 88.1354 80.0625 88.4219 80.3203L94.3086 86.25C94.5664 86.4792 94.7025 86.7728 94.7168 87.1309C94.7311 87.4889 94.6237 87.8112 94.3945 88.0977C91.2721 91.8789 87.4909 94.8079 83.0508 96.8848C78.6107 98.9616 73.9271 100 69 100C64.5312 100 60.263 99.1263 56.1953 97.3789C52.1276 95.6315 48.6185 93.2826 45.668 90.332C42.7174 87.3815 40.3685 83.8724 38.6211 79.8047C36.8737 75.737 36 71.4688 36 67C36 62.5312 36.8737 58.263 38.6211 54.1953C40.3685 50.1276 42.7174 46.6185 45.668 43.668C48.6185 40.7174 52.1276 38.3685 56.1953 36.6211C60.263 34.8737 64.5312 34 69 34C73.2109 34 77.2858 34.7949 81.2246 36.3848C85.1634 37.9746 88.6654 40.2161 91.7305 43.1094L97.3164 37.5664C98.1471 36.6784 99.1497 36.4779 100.324 36.9648C101.441 37.4518 102 38.2969 102 39.5Z" fill="#00AA81"/>
<path d="M25.7814 33.6682C25.0107 36.5669 25.0157 39.6171 25.796 42.5133C26.5763 45.4094 28.1045 48.0496 30.2273 50.1693C32.3502 52.289 34.9931 53.8137 37.8912 54.5905C40.7894 55.3673 43.8409 55.3691 46.7399 54.5955L82.873 90.2072C82.1221 92.7572 81.976 95.4471 82.4465 98.0635C82.9169 100.68 83.9909 103.15 85.5832 105.28C87.1755 107.409 89.2423 109.137 91.6196 110.329C93.9969 111.52 96.6192 112.141 99.2785 112.143C101.728 112.139 104.149 111.61 106.376 110.589C108.604 109.569 110.585 108.082 112.188 106.23C113.79 104.377 114.975 102.202 115.662 99.8511C116.35 97.5006 116.524 95.0298 116.173 92.6061C115.822 90.1824 114.954 87.8625 113.628 85.8034C112.302 83.7444 110.548 81.9944 108.486 80.672C106.424 79.3495 104.102 78.4856 101.676 78.1387C99.2511 77.7918 96.7796 77.97 94.4293 78.6613L58.8033 42.5426C59.5809 39.6437 59.5821 36.5912 58.8066 33.6917C58.0311 30.7921 56.5063 28.1475 54.3852 26.0232C52.2641 23.8989 49.6213 22.3697 46.722 21.589C43.8228 20.8083 40.7692 20.8036 37.8676 21.5755L50.0677 33.7764L47.9935 43.7901L37.9815 45.8634L25.7814 33.6682ZM101.968 85.0409L104.977 85.189L106.612 87.7237L109.148 89.3585L109.296 92.3717L110.675 95.0545L109.296 97.7374L109.148 100.751L106.612 102.385L104.977 104.92L101.962 105.068L99.2785 106.447L96.5946 105.068L93.5802 104.92L91.9448 102.385L89.409 100.751L89.2609 97.7374L87.8819 95.0545L89.2609 92.3717L89.409 89.3585L91.9448 87.7237L93.5802 85.189L96.5946 85.0409L99.2785 83.6624L101.962 85.0409H101.968Z" fill="black"/>
<path d="M91.6275 50.2788L87.8679 54.0384L83.3108 49.4813L84.1083 48.6838L91.6275 50.2788ZM111.793 36.9493L100.4 25.5566L96.9821 28.9745L108.375 40.3672L111.793 36.9493ZM104.957 39.2279L103.02 38.8861L103.818 38.0886L99.2606 33.5315L95.501 37.2911L93.5643 36.9493L92.425 38.0886L103.704 40.4811L104.957 39.2279ZM100.4 43.785L98.4631 43.4432L100.742 41.1646L93.1086 39.6836L90.83 41.9621L89.0072 41.5064L87.8679 42.6457L99.1467 45.0382L100.4 43.785ZM95.8428 48.342L93.9061 48.0003L96.1846 45.7217L88.5515 44.2407L86.273 46.5192L84.4501 46.0635L83.3108 47.2028L94.5896 49.5952L95.8428 48.342Z" fill="black"/>
<path d="M79.2547 38.2103V41.0509H75.9735V40.4483L79.2547 38.2103ZM81.7155 25.5566H73.5127V28.139H81.7155V25.5566ZM80.075 28.9998L79.2547 29.6024V28.9998H75.9735V31.8404L75.1533 32.443V33.3038L80.075 29.9467V28.9998ZM80.075 32.443L79.2547 33.0455V31.3239L75.9735 33.6481V35.3697L75.1533 35.8861V36.7469L80.075 33.3898V32.443ZM80.075 35.8861L79.2547 36.4887V34.7671L75.9735 37.0913V38.8128L75.1533 39.3293V40.1901L80.075 36.833V35.8861Z" fill="black"/>
<path d="M44.778 86.3295L49.9137 87.7056L51.5817 81.4805L50.4923 81.1886L44.778 86.3295ZM20.6498 84.8684L24.8198 69.3057L29.4886 70.5567L25.3186 86.1194L20.6498 84.8684ZM27.7089 83.4238L29.2153 82.1595L28.1259 81.8676L29.7939 75.6425L34.9296 77.0186L36.436 75.7542L37.9923 76.1712L29.4208 83.8826L27.7089 83.4238ZM33.934 85.0919L35.4404 83.8275L32.3278 82.9935L38.1978 77.8943L41.3103 78.7283L42.6611 77.4222L44.2174 77.8392L35.6459 85.5506L33.934 85.0919ZM40.1591 86.7599L41.6655 85.4955L38.5529 84.6615L44.4229 79.5623L47.5354 80.3963L48.8862 79.0902L50.4424 79.5072L41.871 87.2186L40.1591 86.7599Z" fill="black"/>
<path d="M60.091 98.2529L58.3797 99.9642L60.454 102.039L60.817 101.676L60.091 98.2529ZM66.1584 89.0739L71.3442 94.2598L69.7885 95.8155L64.6027 90.6297L66.1584 89.0739ZM65.1212 92.1854L65.2768 93.067L65.6398 92.704L67.7142 94.7783L66.0028 96.4897L66.1584 97.3713L65.6398 97.8898L64.5508 92.7559L65.1212 92.1854ZM63.0469 94.2598L63.2025 95.1414L64.2397 94.1042L64.9138 97.5787L63.8766 98.6159L64.0841 99.4456L63.5655 99.9642L62.4765 94.8302L63.0469 94.2598ZM60.9726 96.3341L61.1282 97.2157L62.1653 96.1785L62.8395 99.653L61.8023 100.69L62.0097 101.52L61.4912 102.039L60.4021 96.9045L60.9726 96.3341Z" fill="black"/>
</svg>
