<svg width="88" height="49" viewBox="0 0 88 49" fill="none" xmlns="http://www.w3.org/2000/svg">
<path d="M1.62945 41.5356L87.6672 -37L7.37071 47.2377C7.04326 47.7023 6.61813 48.0932 6.12385 48.3837C5.62956 48.6743 5.07756 48.8579 4.50485 48.9224C3.93214 48.9868 3.35198 48.9307 2.80327 48.7575C2.25456 48.5844 1.75002 48.2984 1.32345 47.9186C0.896891 47.5388 0.558154 47.074 0.330029 46.5555C0.101904 46.0369 -0.0103638 45.4766 0.000751728 44.9122C0.0118672 44.3477 0.146069 43.7921 0.394437 43.2825C0.642805 42.773 0.999556 42.3214 1.44075 41.9579L1.62945 41.5356Z" fill="url(#paint0_linear)"/>
<defs>
<linearGradient id="paint0_linear" x1="44181.7" y1="44239.3" x2="47149.2" y2="44239.3" gradientUnits="userSpaceOnUse">
<stop stop-color="#FFAF11"/>
<stop offset="1" stop-color="#2B94F2" stop-opacity="0.1"/>
</linearGradient>
</defs>
</svg>
