<svg width="138" height="133" viewBox="0 0 138 133" fill="none" xmlns="http://www.w3.org/2000/svg">
<path d="M10.0697 79.4784L9.2085 68.6257C9.2085 68.6257 14.203 63.8063 22.2997 61.3965C30.3963 58.9868 52.2716 56.5771 52.2716 56.5771C52.2716 56.5771 67.2576 48.989 72.597 48.4728C77.9364 47.9566 88.2716 46.9217 103.603 51.5725C118.934 56.2232 123.067 56.2232 123.067 56.2232L127.545 55.5346L128.063 59.4967C128.063 59.4967 130.301 60.874 130.301 64.1474C130.301 67.4209 129.096 76.8936 129.096 76.8936L121.517 78.2722C121.517 78.2722 103.086 79.8918 77.5927 80.3408C28.5003 81.2007 10.0697 79.4784 10.0697 79.4784Z" fill="#2D2D2D"/>
<path d="M128.063 59.4972L127.545 55.5351L123.067 56.2238C123.067 56.2238 118.932 56.2238 103.603 51.573C88.2729 46.9223 77.9364 47.9559 72.597 48.4734C67.2576 48.9908 52.2716 56.5688 52.2716 56.5688C52.2716 56.5688 30.3951 58.9785 22.2997 61.3882C14.2042 63.798 9.2085 68.6174 9.2085 68.6174L10.0697 79.4701C10.0697 79.4701 12.8358 79.7237 19.0744 79.9951C17.4671 78.0416 16.5887 75.59 16.5899 73.0602C16.5899 66.956 21.6161 62.0071 27.8154 62.0071C34.0147 62.0071 39.0409 66.9534 39.0409 73.0602C39.0409 73.0741 39.0409 73.0881 39.0409 73.102C39.0409 73.116 39.0409 73.1211 39.0409 73.1299C39.0409 75.9658 38.0567 78.5303 36.3775 80.4644C46.6201 80.6166 60.1729 80.6369 77.5826 80.3312C86.9881 80.1663 95.4323 79.8417 102.344 79.4967C100.978 77.6289 100.243 75.3743 100.245 73.0602C100.245 66.956 105.27 62.0071 111.471 62.0071C117.672 62.0071 122.695 66.9534 122.695 73.0602V73.1299C122.705 74.9106 122.297 76.6688 121.506 78.2639V78.2639L129.085 76.8853C129.085 76.8853 130.29 67.4125 130.29 64.1391C130.29 60.8657 128.063 59.4972 128.063 59.4972Z" fill="#00AA81"/>
<path d="M121.882 75.105C122.892 69.4707 119.143 64.0847 113.509 63.075C107.874 62.0653 102.488 65.8142 101.479 71.4485C100.469 77.0829 104.218 82.4689 109.852 83.4786C115.487 84.4884 120.873 80.7394 121.882 75.105Z" fill="#2B2A25"/>
<path d="M115.583 63.7383C118.595 65.5519 121.253 68.5425 121.396 72.3131C121.592 77.475 119.281 83.3294 110.55 83.0935C109.112 83.042 107.692 82.7505 106.35 82.231C107.908 83.1683 110.166 83.616 112.118 83.616C117.841 83.616 122.048 79.0679 122.048 73.3429C122.048 71.2805 121.433 69.2649 120.281 67.554C119.129 65.8431 117.493 64.5146 115.583 63.7383V63.7383Z" fill="#20201C"/>
<path d="M111.684 79.6002C115.175 79.6002 118.005 76.7701 118.005 73.2791C118.005 69.7881 115.175 66.958 111.684 66.958C108.193 66.958 105.363 69.7881 105.363 73.2791C105.363 76.7701 108.193 79.6002 111.684 79.6002Z" fill="#B7B29E"/>
<path d="M117.332 74.6106C118.069 71.489 116.136 68.3612 113.014 67.6245C109.892 66.8877 106.765 68.821 106.028 71.9426C105.291 75.0642 107.224 78.192 110.346 78.9288C113.468 79.6655 116.595 77.7322 117.332 74.6106Z" fill="#666357"/>
<path d="M111.684 77.3958C113.958 77.3958 115.801 75.5526 115.801 73.2789C115.801 71.0053 113.958 69.1621 111.684 69.1621C109.411 69.1621 107.567 71.0053 107.567 73.2789C107.567 75.5526 109.411 77.3958 111.684 77.3958Z" fill="#2B2A25"/>
<path d="M112.281 76.015C112.281 76.0933 112.266 76.1709 112.236 76.2433C112.206 76.3157 112.162 76.3815 112.107 76.4369C112.051 76.4923 111.985 76.5362 111.913 76.5661C111.841 76.5959 111.763 76.6113 111.685 76.6111V76.6111C111.606 76.6111 111.529 76.5957 111.457 76.5657C111.384 76.5357 111.319 76.4918 111.264 76.4364C111.208 76.3811 111.165 76.3153 111.135 76.243C111.105 76.1707 111.09 76.0932 111.09 76.015V70.5411C111.09 70.463 111.105 70.3857 111.135 70.3135C111.165 70.2413 111.209 70.1757 111.264 70.1205C111.319 70.0653 111.385 70.0215 111.457 69.9916C111.529 69.9617 111.607 69.9463 111.685 69.9463C111.763 69.9461 111.84 69.9614 111.913 69.9912C111.985 70.021 112.051 70.0648 112.106 70.1201C112.161 70.1753 112.205 70.2409 112.235 70.3132C112.265 70.3854 112.281 70.4629 112.281 70.5411V76.015Z" fill="#666357"/>
<path d="M114.426 72.624C114.584 72.624 114.735 72.6867 114.847 72.7982C114.958 72.9098 115.021 73.0611 115.021 73.2188C115.021 73.3767 114.959 73.5281 114.847 73.6399C114.735 73.7516 114.584 73.8146 114.426 73.8149H108.947C108.789 73.8146 108.638 73.7516 108.527 73.6399C108.415 73.5281 108.353 73.3767 108.353 73.2188V73.2188C108.353 73.0611 108.415 72.9098 108.527 72.7982C108.638 72.6867 108.79 72.624 108.947 72.624H114.426Z" fill="#666357"/>
<path d="M114.063 74.8155C114.174 74.9272 114.237 75.0786 114.237 75.2365C114.237 75.3944 114.174 75.5458 114.063 75.6576V75.6576C113.951 75.7691 113.8 75.8317 113.642 75.8317C113.484 75.8317 113.332 75.7691 113.221 75.6576L109.354 71.7855C109.242 71.674 109.18 71.5228 109.18 71.3651C109.18 71.2074 109.242 71.0562 109.354 70.9447C109.465 70.8331 109.617 70.7705 109.775 70.7705C109.933 70.7705 110.084 70.8331 110.196 70.9447L114.063 74.8155Z" fill="#666357"/>
<path d="M113.179 70.9017C113.29 70.7902 113.442 70.7275 113.6 70.7275C113.758 70.7275 113.909 70.7902 114.021 70.9017V70.9017C114.132 71.0132 114.195 71.1645 114.195 71.3221C114.195 71.4798 114.132 71.631 114.021 71.7426L110.149 75.6146C110.037 75.7261 109.886 75.7887 109.728 75.7887C109.571 75.7887 109.419 75.7261 109.308 75.6146V75.6146C109.196 75.5029 109.134 75.3514 109.134 75.1935C109.134 75.0357 109.196 74.8842 109.308 74.7725L113.179 70.9017Z" fill="#666357"/>
<path d="M114.065 73.2787C114.065 73.7496 113.926 74.21 113.664 74.6016C113.403 74.9933 113.031 75.2986 112.596 75.479C112.161 75.6593 111.682 75.7067 111.221 75.6149C110.759 75.5232 110.334 75.2966 110.001 74.9637C109.668 74.6309 109.442 74.2067 109.35 73.7449C109.258 73.283 109.305 72.8043 109.485 72.3693C109.665 71.9342 109.97 71.5623 110.362 71.3007C110.753 71.0391 111.213 70.8994 111.684 70.8994C112.315 70.8994 112.921 71.15 113.367 71.5962C113.814 72.0424 114.064 72.6476 114.065 73.2787V73.2787Z" fill="#666357"/>
<path opacity="0.4" d="M102.3 72.7702L103.187 72.0841C103.187 72.0841 103.285 68.85 106.47 66.4491C109.379 64.2563 112.938 64.6355 112.938 64.6355L113.28 63.9493C113.28 63.9493 108.821 63.4103 105.734 65.9101C102.012 68.9197 102.3 72.7702 102.3 72.7702Z" fill="#666357"/>
<path d="M111.685 70.7487C111.84 70.7487 111.966 70.6226 111.966 70.4671C111.966 70.3116 111.84 70.1855 111.685 70.1855C111.529 70.1855 111.403 70.3116 111.403 70.4671C111.403 70.6226 111.529 70.7487 111.685 70.7487Z" fill="#B7B29E"/>
<path d="M113.927 71.2513C113.927 71.307 113.91 71.3614 113.879 71.4077C113.848 71.454 113.805 71.4901 113.753 71.5114C113.702 71.5327 113.645 71.5383 113.59 71.5274C113.536 71.5166 113.486 71.4898 113.446 71.4504C113.407 71.411 113.38 71.3608 113.369 71.3062C113.358 71.2516 113.364 71.195 113.385 71.1435C113.407 71.0921 113.443 71.0481 113.489 71.0172C113.535 70.9862 113.59 70.9697 113.645 70.9697C113.72 70.9697 113.792 70.9994 113.844 71.0522C113.897 71.105 113.927 71.1766 113.927 71.2513V71.2513Z" fill="#B7B29E"/>
<path d="M114.857 73.2405C114.857 73.2962 114.841 73.3507 114.81 73.397C114.779 73.4433 114.735 73.4794 114.683 73.5007C114.632 73.522 114.575 73.5276 114.521 73.5167C114.466 73.5058 114.416 73.479 114.376 73.4396C114.337 73.4003 114.31 73.3501 114.299 73.2955C114.288 73.2409 114.294 73.1842 114.315 73.1328C114.337 73.0813 114.373 73.0374 114.419 73.0064C114.465 72.9755 114.52 72.959 114.576 72.959C114.65 72.959 114.722 72.9886 114.775 73.0415C114.827 73.0943 114.857 73.1659 114.857 73.2405V73.2405Z" fill="#B7B29E"/>
<path d="M114.025 75.3675C114.025 75.4235 114.009 75.4783 113.978 75.525C113.947 75.5716 113.903 75.6081 113.851 75.6297C113.8 75.6513 113.743 75.6571 113.688 75.6463C113.633 75.6355 113.582 75.6087 113.543 75.5692C113.503 75.5297 113.476 75.4793 113.465 75.4244C113.454 75.3695 113.46 75.3126 113.481 75.2608C113.502 75.2091 113.539 75.1648 113.585 75.1337C113.632 75.1026 113.686 75.0859 113.742 75.0859C113.779 75.0858 113.816 75.0929 113.85 75.107C113.885 75.1211 113.916 75.1418 113.942 75.168C113.968 75.1941 113.989 75.2252 114.004 75.2595C114.018 75.2937 114.025 75.3304 114.025 75.3675V75.3675Z" fill="#B7B29E"/>
<path d="M111.941 76.1028C111.941 76.1585 111.925 76.213 111.894 76.2593C111.863 76.3056 111.819 76.3417 111.767 76.363C111.716 76.3843 111.659 76.3899 111.605 76.379C111.55 76.3681 111.5 76.3413 111.46 76.3019C111.421 76.2626 111.394 76.2124 111.383 76.1578C111.372 76.1032 111.378 76.0465 111.399 75.9951C111.421 75.9437 111.457 75.8997 111.503 75.8687C111.549 75.8378 111.604 75.8213 111.659 75.8213C111.734 75.8213 111.806 75.851 111.859 75.9038C111.911 75.9566 111.941 76.0282 111.941 76.1028V76.1028Z" fill="#B7B29E"/>
<path d="M109.987 75.2457C109.987 75.3013 109.97 75.3557 109.939 75.4018C109.908 75.4479 109.864 75.4838 109.812 75.5049C109.761 75.5261 109.704 75.5314 109.65 75.5204C109.595 75.5094 109.545 75.4825 109.506 75.4431C109.467 75.4037 109.44 75.3535 109.429 75.2989C109.418 75.2443 109.424 75.1878 109.445 75.1364C109.467 75.085 109.503 75.0411 109.549 75.0103C109.595 74.9794 109.65 74.9629 109.705 74.9629C109.78 74.9632 109.852 74.9932 109.905 75.0462C109.957 75.0992 109.987 75.1709 109.987 75.2457V75.2457Z" fill="#B7B29E"/>
<path d="M109.199 73.2604C109.199 73.3164 109.182 73.3711 109.151 73.4176C109.12 73.4642 109.076 73.5004 109.024 73.5218C108.972 73.5432 108.915 73.5487 108.86 73.5377C108.806 73.5266 108.755 73.4996 108.716 73.4599C108.676 73.4202 108.649 73.3697 108.639 73.3148C108.628 73.2598 108.634 73.2029 108.655 73.1513C108.677 73.0996 108.713 73.0555 108.76 73.0246C108.807 72.9937 108.861 72.9773 108.917 72.9775C108.992 72.9779 109.064 73.0078 109.117 73.0608C109.169 73.1138 109.199 73.1856 109.199 73.2604V73.2604Z" fill="#B7B29E"/>
<path d="M109.987 71.2513C109.987 71.307 109.97 71.3614 109.939 71.4077C109.909 71.454 109.865 71.4901 109.813 71.5114C109.762 71.5327 109.705 71.5383 109.65 71.5274C109.596 71.5166 109.546 71.4898 109.506 71.4504C109.467 71.411 109.44 71.3608 109.429 71.3062C109.418 71.2516 109.424 71.195 109.445 71.1435C109.467 71.0921 109.503 71.0481 109.549 71.0172C109.595 70.9862 109.65 70.9697 109.705 70.9697C109.78 70.9701 109.851 70.9998 109.904 71.0526C109.957 71.1053 109.987 71.1767 109.987 71.2513V71.2513Z" fill="#B7B29E"/>
<path d="M111.684 74.5843C112.405 74.5843 112.99 73.9995 112.99 73.278C112.99 72.5565 112.405 71.9717 111.684 71.9717C110.962 71.9717 110.377 72.5565 110.377 73.278C110.377 73.9995 110.962 74.5843 111.684 74.5843Z" fill="#B7B29E"/>
<path d="M38.1592 73.8945C38.31 68.1724 33.7936 63.4114 28.0715 63.2606C22.3495 63.1097 17.5885 67.6261 17.4377 73.3482C17.2868 79.0703 21.8032 83.8313 27.5253 83.9821C33.2474 84.1329 38.0084 79.6165 38.1592 73.8945Z" fill="#2B2A25"/>
<path d="M31.6945 64.0791C34.7079 65.8915 37.365 68.8833 37.5083 72.6527C37.7049 77.8145 35.394 83.6689 26.662 83.433C25.2234 83.3816 23.8036 83.0897 22.4614 82.5693C24.0201 83.5078 26.2789 83.9555 28.2308 83.9555C33.9546 83.9555 38.1614 79.4075 38.1614 73.6825C38.161 71.6201 37.5455 69.6046 36.3935 67.8939C35.2415 66.1832 33.6054 64.855 31.6945 64.0791V64.0791Z" fill="#20201C"/>
<path d="M27.7972 79.94C31.2882 79.94 34.1183 77.11 34.1183 73.6189C34.1183 70.1279 31.2882 67.2979 27.7972 67.2979C24.3061 67.2979 21.4761 70.1279 21.4761 73.6189C21.4761 77.11 24.3061 79.94 27.7972 79.94Z" fill="#B7B29E"/>
<path d="M31.9054 77.7256C34.1733 75.4577 34.1733 71.7806 31.9054 69.5127C29.6374 67.2447 25.9604 67.2447 23.6924 69.5127C21.4245 71.7806 21.4245 75.4577 23.6924 77.7256C25.9604 79.9936 29.6374 79.9936 31.9054 77.7256Z" fill="#666357"/>
<path d="M29.3733 77.4231C31.4739 76.553 32.4714 74.1448 31.6013 72.0442C30.7312 69.9436 28.323 68.9461 26.2224 69.8162C24.1218 70.6863 23.1243 73.0945 23.9944 75.1951C24.8645 77.2956 27.2727 78.2932 29.3733 77.4231Z" fill="#2B2A25"/>
<path d="M28.3923 76.3542C28.3923 76.5119 28.3296 76.6632 28.2181 76.7748C28.1065 76.8863 27.9552 76.949 27.7975 76.949V76.949C27.6397 76.949 27.4884 76.8863 27.3769 76.7748C27.2653 76.6632 27.2026 76.5119 27.2026 76.3542V70.8803C27.2025 70.802 27.2177 70.7246 27.2476 70.6523C27.2774 70.5799 27.3212 70.5142 27.3764 70.4588C27.4317 70.4035 27.4973 70.3596 27.5695 70.3296C27.6418 70.2996 27.7192 70.2842 27.7975 70.2842V70.2842C27.8757 70.2842 27.9531 70.2996 28.0254 70.3296C28.0976 70.3596 28.1633 70.4035 28.2185 70.4588C28.2738 70.5142 28.3175 70.5799 28.3474 70.6523C28.3772 70.7246 28.3924 70.802 28.3923 70.8803V76.3542Z" fill="#666357"/>
<path d="M30.5345 72.9629C30.6924 72.9629 30.8438 73.0255 30.9556 73.137C31.0673 73.2485 31.1303 73.3998 31.1306 73.5577V73.5577C31.1303 73.7156 31.0673 73.8669 30.9556 73.9784C30.8438 74.0899 30.6924 74.1525 30.5345 74.1525H25.0606C24.9029 74.1525 24.7516 74.0899 24.64 73.9783C24.5285 73.8668 24.4658 73.7155 24.4658 73.5577C24.4658 73.4 24.5285 73.2487 24.64 73.1371C24.7516 73.0256 24.9029 72.9629 25.0606 72.9629H30.5345Z" fill="#666357"/>
<path d="M30.1751 75.1523C30.2865 75.2639 30.3491 75.4151 30.3491 75.5728C30.3491 75.7304 30.2865 75.8817 30.1751 75.9932C30.1199 76.0487 30.0543 76.0928 29.982 76.1229C29.9098 76.1529 29.8323 76.1684 29.754 76.1684C29.6757 76.1684 29.5982 76.1529 29.526 76.1229C29.4537 76.0928 29.3881 76.0487 29.3329 75.9932L25.4621 72.1224C25.3507 72.0109 25.2881 71.8597 25.2881 71.702C25.2881 71.5443 25.3507 71.3931 25.4621 71.2816V71.2816C25.5172 71.2261 25.5827 71.182 25.6549 71.152C25.727 71.1219 25.8044 71.1064 25.8826 71.1064C25.9607 71.1064 26.0381 71.1219 26.1103 71.152C26.1824 71.182 26.2479 71.2261 26.303 71.2816L30.1751 75.1523Z" fill="#666357"/>
<path d="M29.291 71.2385C29.4025 71.1271 29.5538 71.0645 29.7114 71.0645C29.8691 71.0645 30.0203 71.1271 30.1319 71.2385V71.2385C30.1874 71.2937 30.2315 71.3593 30.2615 71.4315C30.2916 71.5038 30.3071 71.5813 30.3071 71.6596C30.3071 71.7378 30.2916 71.8153 30.2615 71.8876C30.2315 71.9599 30.1874 72.0255 30.1319 72.0806L26.2611 75.9514C26.1496 76.0629 25.9983 76.1255 25.8407 76.1255C25.683 76.1255 25.5318 76.0629 25.4202 75.9514C25.3647 75.8964 25.3207 75.8309 25.2906 75.7587C25.2606 75.6865 25.2451 75.6092 25.2451 75.531C25.2451 75.4528 25.2606 75.3754 25.2906 75.3033C25.3207 75.2311 25.3647 75.1656 25.4202 75.1106L29.291 71.2385Z" fill="#666357"/>
<path d="M30.1776 73.6144C30.1781 74.0855 30.0388 74.5462 29.7773 74.9381C29.5158 75.3301 29.1439 75.6356 28.7086 75.816C28.2734 75.9964 27.7944 76.0436 27.3323 75.9516C26.8702 75.8597 26.4458 75.6326 26.1129 75.2993C25.7799 74.966 25.5533 74.5413 25.4618 74.0791C25.3703 73.6169 25.418 73.138 25.5989 72.703C25.7798 72.2679 26.0857 71.8963 26.4779 71.6352C26.8701 71.3742 27.331 71.2353 27.8021 71.2363C28.4322 71.2377 29.036 71.4887 29.4813 71.9345C29.9265 72.3802 30.1769 72.9843 30.1776 73.6144V73.6144Z" fill="#666357"/>
<path opacity="0.4" d="M18.4175 73.1081L19.3052 72.422C19.3052 72.422 19.4042 69.1879 22.5888 66.7858C25.4982 64.5942 29.057 64.9734 29.057 64.9734L29.3995 64.2873C29.3995 64.2873 24.9402 63.7482 21.8532 66.2467C18.1257 69.2589 18.4175 73.1081 18.4175 73.1081Z" fill="#666357"/>
<path d="M28.0792 70.806C28.0792 70.8617 28.0627 70.9161 28.0318 70.9624C28.0008 71.0087 27.9569 71.0448 27.9054 71.0661C27.854 71.0874 27.7974 71.093 27.7427 71.0821C27.6881 71.0713 27.638 71.0444 27.5986 71.0051C27.5592 70.9657 27.5324 70.9155 27.5215 70.8609C27.5107 70.8063 27.5162 70.7497 27.5375 70.6982C27.5589 70.6468 27.5949 70.6028 27.6412 70.5719C27.6875 70.5409 27.742 70.5244 27.7977 70.5244C27.8347 70.5242 27.8714 70.5314 27.9056 70.5455C27.9399 70.5596 27.971 70.5803 27.9971 70.6065C28.0233 70.6327 28.044 70.6638 28.0581 70.698C28.0722 70.7323 28.0794 70.769 28.0792 70.806V70.806Z" fill="#B7B29E"/>
<path d="M30.0397 71.5872C30.0397 71.6429 30.0232 71.6973 29.9922 71.7436C29.9613 71.79 29.9173 71.826 29.8659 71.8473C29.8144 71.8687 29.7578 71.8742 29.7032 71.8634C29.6486 71.8525 29.5984 71.8257 29.559 71.7863C29.5197 71.7469 29.4928 71.6968 29.482 71.6422C29.4711 71.5875 29.4767 71.5309 29.498 71.4795C29.5193 71.428 29.5554 71.3841 29.6017 71.3531C29.648 71.3222 29.7024 71.3057 29.7581 71.3057C29.7951 71.3055 29.8318 71.3127 29.8661 71.3268C29.9003 71.3408 29.9314 71.3616 29.9576 71.3878C29.9838 71.4139 30.0045 71.445 30.0186 71.4793C30.0327 71.5135 30.0398 71.5502 30.0397 71.5872V71.5872Z" fill="#B7B29E"/>
<path d="M30.6898 73.8561C30.8453 73.8561 30.9713 73.73 30.9713 73.5745C30.9713 73.419 30.8453 73.293 30.6898 73.293C30.5343 73.293 30.4082 73.419 30.4082 73.5745C30.4082 73.73 30.5343 73.8561 30.6898 73.8561Z" fill="#B7B29E"/>
<path d="M30.1378 75.7093C30.1378 75.765 30.1213 75.8194 30.0904 75.8657C30.0594 75.912 30.0155 75.9481 29.964 75.9694C29.9126 75.9907 29.856 75.9963 29.8013 75.9854C29.7467 75.9746 29.6966 75.9478 29.6572 75.9084C29.6178 75.869 29.591 75.8188 29.5801 75.7642C29.5693 75.7096 29.5748 75.653 29.5961 75.6015C29.6175 75.5501 29.6535 75.5061 29.6998 75.4752C29.7461 75.4442 29.8006 75.4277 29.8563 75.4277C29.9309 75.4277 30.0026 75.4574 30.0554 75.5102C30.1082 75.563 30.1378 75.6346 30.1378 75.7093V75.7093Z" fill="#B7B29E"/>
<path d="M28.0563 76.4407C28.0563 76.4964 28.0398 76.5509 28.0088 76.5972C27.9779 76.6435 27.9339 76.6796 27.8825 76.7009C27.831 76.7222 27.7744 76.7277 27.7198 76.7169C27.6652 76.706 27.615 76.6792 27.5756 76.6398C27.5363 76.6005 27.5094 76.5503 27.4986 76.4957C27.4877 76.4411 27.4933 76.3844 27.5146 76.333C27.5359 76.2815 27.572 76.2376 27.6183 76.2066C27.6646 76.1757 27.719 76.1592 27.7747 76.1592C27.8494 76.1592 27.921 76.1888 27.9738 76.2416C28.0266 76.2944 28.0563 76.3661 28.0563 76.4407Z" fill="#B7B29E"/>
<path d="M26.0964 75.5862C26.0967 75.6422 26.0803 75.697 26.0494 75.7437C26.0184 75.7904 25.9744 75.8268 25.9227 75.8484C25.871 75.87 25.8141 75.8758 25.7592 75.8651C25.7042 75.8543 25.6537 75.8275 25.614 75.788C25.5744 75.7484 25.5473 75.6981 25.5363 75.6432C25.5253 75.5883 25.5308 75.5313 25.5522 75.4796C25.5735 75.4278 25.6098 75.3836 25.6563 75.3524C25.7029 75.3213 25.7576 75.3047 25.8136 75.3047C25.8507 75.3045 25.8874 75.3117 25.9217 75.3258C25.956 75.3398 25.9872 75.3605 26.0135 75.3867C26.0398 75.4129 26.0606 75.444 26.0749 75.4782C26.0891 75.5124 26.0964 75.5492 26.0964 75.5862Z" fill="#B7B29E"/>
<path d="M25.3107 73.5999C25.3107 73.6556 25.2942 73.71 25.2632 73.7563C25.2323 73.8026 25.1883 73.8387 25.1369 73.86C25.0854 73.8814 25.0288 73.8869 24.9742 73.8761C24.9196 73.8652 24.8694 73.8384 24.83 73.799C24.7906 73.7596 24.7638 73.7095 24.753 73.6548C24.7421 73.6002 24.7477 73.5436 24.769 73.4922C24.7903 73.4407 24.8264 73.3968 24.8727 73.3658C24.919 73.3349 24.9734 73.3184 25.0291 73.3184C25.0661 73.3182 25.1028 73.3254 25.1371 73.3395C25.1713 73.3535 25.2024 73.3743 25.2286 73.4005C25.2548 73.4266 25.2755 73.4577 25.2896 73.492C25.3037 73.5262 25.3108 73.5629 25.3107 73.5999V73.5999Z" fill="#B7B29E"/>
<path d="M26.0964 71.5872C26.0967 71.6432 26.0803 71.698 26.0494 71.7447C26.0184 71.7914 25.9744 71.8278 25.9227 71.8494C25.871 71.871 25.8141 71.8768 25.7592 71.866C25.7042 71.8553 25.6537 71.8284 25.614 71.7889C25.5744 71.7494 25.5473 71.699 25.5363 71.6441C25.5253 71.5892 25.5308 71.5323 25.5522 71.4806C25.5735 71.4288 25.6098 71.3846 25.6563 71.3534C25.7029 71.3223 25.7576 71.3057 25.8136 71.3057C25.8507 71.3055 25.8874 71.3127 25.9217 71.3267C25.956 71.3408 25.9872 71.3615 26.0135 71.3877C26.0398 71.4138 26.0606 71.4449 26.0749 71.4792C26.0891 71.5134 26.0964 71.5501 26.0964 71.5872Z" fill="#B7B29E"/>
<path d="M29.088 73.8303C29.2036 73.1182 28.72 72.4472 28.0079 72.3316C27.2957 72.216 26.6247 72.6996 26.5091 73.4117C26.3935 74.1239 26.8771 74.7949 27.5893 74.9105C28.3014 75.0261 28.9724 74.5425 29.088 73.8303Z" fill="#B7B29E"/>
<path d="M52.4565 56.4971C52.4565 56.4971 56.4516 58.2194 59.0693 58.2879C61.6871 58.3564 90.6824 57.3849 92.7484 56.7C94.8145 56.0151 99.2915 52.8432 99.2915 52.8432C99.2915 52.8432 93.9191 50.5007 85.4482 49.812C76.9774 49.1233 69.6062 48.9863 69.6062 48.9863C69.6062 48.9863 65.6809 49.812 61.8925 51.741C58.1042 53.6701 52.4565 56.4971 52.4565 56.4971Z" fill="#2D2D2D"/>
<path d="M53.0811 56.195C53.0811 56.195 56.7071 57.6092 59.1688 57.6713C61.6305 57.7334 88.8668 56.8647 90.8085 56.2432C92.7502 55.6218 96.9558 52.7681 96.9558 52.7681C96.9558 52.7681 91.9081 50.6628 83.9497 50.0363C75.9912 49.4097 68.8001 49.1865 68.8001 49.1865C66.3166 49.7374 63.913 50.6012 61.647 51.7573C57.6811 53.7675 53.0811 56.195 53.0811 56.195Z" fill="#FFCF52"/>
<path opacity="0.4" d="M70.4219 49.248L56.3896 57.2357L58.703 57.6758L73.5964 49.3901L70.4219 49.248Z" fill="white"/>
<path opacity="0.4" d="M63.145 57.6083L76.1271 49.5205L76.812 49.5598L65.7856 57.536L63.145 57.6083Z" fill="white"/>
<path d="M35.9941 60.1865L45.6407 67.077C45.6407 67.077 51.1526 64.321 68.3771 62.4262C79.0813 61.2493 113.507 58.8091 113.507 58.8091L106.962 56.5693C106.962 56.5693 56.3196 60.1865 55.8034 60.1865H35.9941Z" fill="#FF6B00"/>
<path d="M99.5552 63.1148C99.1341 63.4598 96.283 68.4542 92.4934 70.694C88.7038 72.9338 62.004 76.0297 62.004 76.0297L59.938 77.5808L97.4879 75.686C97.4879 75.686 97.3167 71.5514 99.5552 67.7618C101.794 63.9722 106.618 61.3887 106.618 61.3887H103.69C102.179 61.5709 100.747 62.1684 99.5552 63.1148V63.1148Z" fill="#FF6B00"/>
<path d="M16.114 68.8425C15.8439 67.8608 9.21459 68.637 9.21459 68.637C9.21459 68.637 8.271 68.8754 8.271 71.4348C8.271 73.095 9.64961 74.8871 9.64961 74.8871L12.8 74.6575C12.8 74.6575 16.388 69.8241 16.114 68.8425Z" fill="#FFCF52"/>
<path d="M9.7337 69.1928C9.7337 69.1928 8.9182 70.4204 8.82308 71.0178C8.72796 71.6152 9.07673 73.6495 9.07673 73.6495L9.96453 73.5518C9.96453 73.5518 9.60687 71.7471 9.92141 71.0698C10.4883 69.8459 12.3464 68.877 12.3464 68.877L9.7337 69.1928Z" fill="white"/>
<path d="M10.0719 79.495C10.0719 79.495 12.8392 79.7487 19.083 80.0201C18.0085 78.7116 17.2522 77.1717 16.8736 75.5215H9.75732L10.0719 79.495Z" fill="#005E47"/>
<path d="M36.3896 80.4893C46.6335 80.6415 60.1851 80.6618 77.5947 80.3562C87.0015 80.1913 95.4457 79.8666 102.358 79.5216C101.485 78.3254 100.865 76.9646 100.534 75.5215H38.8083C38.4428 77.3579 37.6097 79.069 36.3896 80.4893V80.4893Z" fill="#005E47"/>
<path d="M122.471 75.5215C122.276 76.4809 121.956 77.4104 121.519 78.2863V78.2863L129.098 76.9166C129.098 76.9166 129.166 76.3852 129.269 75.5304L122.471 75.5215Z" fill="#005E47"/>
<path d="M54.0794 75.6838C54.0122 75.6838 53.964 75.6838 53.9361 75.6838C53.7636 75.6647 53.605 75.5252 53.4364 75.2437C52.3875 73.4922 50.9823 65.8825 51.6139 64.3035C52.3165 62.5482 73.4105 49.7183 74.3084 49.1768L74.4872 49.471C68.3995 53.168 52.4814 63.0631 51.9335 64.4367C51.3386 65.9256 52.7477 73.4224 53.7319 75.0661C53.8904 75.3286 53.9741 75.3413 53.9741 75.3413C54.4345 75.3921 62.2851 74.905 70.6786 74.1923C85.553 72.9316 87.3006 72.2417 87.482 72.0603C88.7287 70.8148 92.9267 62.8424 92.3763 60.8589C91.8322 58.8994 87.5873 57.3153 87.5441 57.3001L87.4072 57.2493L88.6983 50.445L89.0369 50.5097L87.8003 57.0287C88.5613 57.3267 92.1683 58.8258 92.7086 60.7675C93.2996 62.8957 89.0306 71.0013 87.7255 72.3089C87.1573 72.8707 81.4285 73.619 70.7078 74.5309C62.9497 75.1891 55.3071 75.6838 54.0794 75.6838Z" fill="#2D2D2D"/>
<path d="M103.873 54.673C104.17 55.4086 103.528 56.3598 102.44 56.7999C101.352 57.24 100.229 57.0054 99.9323 56.2647C99.6356 55.524 100.277 54.5766 101.363 54.1378C102.449 53.699 103.575 53.9374 103.873 54.673Z" fill="#2D2D2D"/>
<path d="M127.547 55.5342L125.043 59.0854L128.064 59.4963L127.547 55.5342Z" fill="#2D2D2D"/>
<path d="M40.0412 61.8214L38.2656 60.9336H55.2605L40.0412 61.8214Z" fill="white"/>
</svg>
