<svg width="138" height="133" viewBox="0 0 138 133" fill="none" xmlns="http://www.w3.org/2000/svg">
<path d="M123.541 63.3682C123.541 63.3682 117.497 61.9997 112.822 61.7112C108.146 61.4227 101.909 61.2242 101.909 61.2242C101.909 61.2242 94.409 53.4297 90.0253 51.092C85.6417 48.7542 59.3343 50.7989 56.9965 51.2858C54.6587 51.7728 52.1248 54.9886 49.2989 57.5191C46.4731 60.0496 45.2072 62.0008 45.2072 62.0008C45.2072 62.0008 36.3408 62.0989 27.4743 63.0728C18.6079 64.0467 14.7112 65.609 14.7112 65.609L13.7373 68.7268L18.609 78.6641L22.5057 79.833L25.3316 80.5172L107.172 78.3744C107.172 78.3744 120.423 74.9635 121.689 74.1847C122.955 73.4058 124.905 66.3902 124.996 66.0002C125.087 65.6101 123.541 63.3682 123.541 63.3682Z" fill="#2B2A25"/>
<path d="M123.541 63.3682C123.541 63.3682 117.497 61.9997 112.822 61.7112C108.146 61.4227 101.909 61.2242 101.909 61.2242C101.909 61.2242 94.409 53.4297 90.0253 51.092C85.6417 48.7542 59.3343 50.7989 56.9965 51.2858C54.6587 51.7728 52.1248 54.9886 49.2989 57.5191C46.4731 60.0496 45.2072 62.0008 45.2072 62.0008C45.2072 62.0008 36.3408 62.0989 27.4743 63.0728C18.6079 64.0467 14.7112 65.609 14.7112 65.609L13.7373 68.7268L14.3212 72.6543L18.609 78.6641L22.5057 79.833L22.6095 79.8581C22.5321 79.4237 22.4939 78.9833 22.4954 78.5421C22.4954 74.2291 26.2587 70.7316 30.8909 70.7316C35.5231 70.7316 39.2864 74.2291 39.2864 78.5421V78.5922C39.287 79.1168 39.2355 79.6402 39.1324 80.1546L88.9443 78.8443C88.9443 78.7428 88.9374 78.6401 88.9374 78.5375C88.9374 74.2246 92.7007 70.727 97.3329 70.727C101.922 70.727 105.65 74.1482 105.726 78.4052L107.172 78.3676C107.172 78.3676 120.423 74.9567 121.689 74.1778C122.955 73.3989 124.905 66.3833 124.996 65.9933C125.087 65.6033 123.541 63.3682 123.541 63.3682Z" fill="#00AA81"/>
<path d="M104.824 78.9577C104.824 80.4256 104.388 81.8605 103.573 83.0809C102.757 84.3014 101.598 85.2527 100.242 85.8144C98.8861 86.3761 97.3938 86.5231 95.9542 86.2367C94.5145 85.9504 93.1921 85.2435 92.1542 84.2056C91.1163 83.1677 90.4094 81.8453 90.1231 80.4056C89.8367 78.966 89.9837 77.4737 90.5454 76.1176C91.1071 74.7615 92.0584 73.6024 93.2789 72.7869C94.4993 71.9714 95.9342 71.5361 97.4021 71.5361C98.3767 71.536 99.3419 71.7278 100.242 72.1008C101.143 72.4737 101.961 73.0203 102.65 73.7095C103.339 74.3987 103.886 75.2169 104.259 76.1174C104.632 77.0179 104.824 77.9831 104.824 78.9577Z" fill="#31302A"/>
<path d="M100.193 72.1152C102.351 73.4141 104.253 75.5558 104.356 78.255C104.496 81.951 102.841 86.1431 96.5899 85.9743C95.5596 85.9376 94.5428 85.7286 93.5815 85.3562C94.698 86.0279 96.3185 86.3495 97.712 86.3495C101.811 86.3495 104.823 83.0925 104.823 78.994C104.824 77.5169 104.383 76.0734 103.558 74.848C102.734 73.6226 101.562 72.6711 100.193 72.1152Z" fill="#424038"/>
<path d="M101.928 78.957C101.928 79.8521 101.662 80.7271 101.164 81.4713C100.667 82.2155 99.96 82.7954 99.133 83.1378C98.3059 83.4802 97.3959 83.5697 96.518 83.3949C95.64 83.2201 94.8337 82.789 94.2008 82.1559C93.5679 81.5229 93.1369 80.7164 92.9624 79.8385C92.7878 78.9605 92.8775 78.0505 93.2201 77.2235C93.5627 76.3965 94.1429 75.6897 94.8872 75.1924C95.6315 74.6951 96.5065 74.4297 97.4017 74.4297C97.9961 74.4297 98.5848 74.5468 99.134 74.7743C99.6832 75.0019 100.182 75.3354 100.603 75.7558C101.023 76.1762 101.356 76.6753 101.584 77.2246C101.811 77.7738 101.928 78.3625 101.928 78.957V78.957Z" fill="#5B5B5B"/>
<path d="M101.56 78.9567C101.56 79.779 101.316 80.5829 100.859 81.2666C100.402 81.9504 99.7528 82.4833 98.9931 82.798C98.2334 83.1127 97.3974 83.195 96.5908 83.0346C95.7843 82.8742 95.0434 82.4782 94.4619 81.8967C93.8805 81.3152 93.4845 80.5743 93.324 79.7678C93.1636 78.9613 93.2459 78.1253 93.5606 77.3655C93.8753 76.6058 94.4083 75.9564 95.092 75.4995C95.7758 75.0427 96.5796 74.7988 97.402 74.7988C98.5047 74.7988 99.5623 75.2369 100.342 76.0166C101.122 76.7964 101.56 77.8539 101.56 78.9567V78.9567Z" fill="white"/>
<path d="M100.35 78.9576C100.35 79.5407 100.177 80.1106 99.8531 80.5954C99.5291 81.0802 99.0687 81.458 98.5301 81.6811C97.9914 81.9043 97.3987 81.9626 96.8269 81.8489C96.2551 81.7351 95.7298 81.4544 95.3175 81.0421C94.9053 80.6299 94.6245 80.1046 94.5107 79.5328C94.397 78.9609 94.4554 78.3682 94.6785 77.8295C94.9016 77.2909 95.2795 76.8305 95.7642 76.5066C96.249 76.1827 96.819 76.0098 97.402 76.0098C97.7892 76.0096 98.1726 76.0858 98.5303 76.2339C98.888 76.3819 99.213 76.5991 99.4868 76.8728C99.7606 77.1466 99.9777 77.4716 100.126 77.8294C100.274 78.1871 100.35 78.5705 100.35 78.9576V78.9576Z" fill="#777464"/>
<path d="M97.8274 80.9124C97.8276 80.9685 97.8167 81.024 97.7953 81.0758C97.7739 81.1276 97.7425 81.1747 97.7029 81.2143C97.6632 81.254 97.6162 81.2854 97.5643 81.3067C97.5125 81.3281 97.457 81.3391 97.4009 81.3389C97.345 81.3389 97.2896 81.3279 97.2379 81.3064C97.1862 81.285 97.1393 81.2535 97.0998 81.2139C97.0603 81.1743 97.0289 81.1273 97.0076 81.0755C96.9863 81.0238 96.9754 80.9684 96.9756 80.9124V76.9929C96.9754 76.937 96.9863 76.8815 97.0076 76.8298C97.0289 76.778 97.0603 76.731 97.0998 76.6914C97.1393 76.6518 97.1862 76.6203 97.2379 76.5989C97.2896 76.5774 97.345 76.5664 97.4009 76.5664V76.5664C97.457 76.5663 97.5125 76.5772 97.5643 76.5986C97.6162 76.6199 97.6632 76.6514 97.7029 76.691C97.7425 76.7306 97.7739 76.7777 97.7953 76.8295C97.8167 76.8813 97.8276 76.9369 97.8274 76.9929V80.9124Z" fill="white"/>
<path d="M99.3611 78.4834C99.4741 78.4837 99.5825 78.5287 99.6624 78.6086C99.7423 78.6886 99.7873 78.7969 99.7876 78.9099V78.9099C99.7876 79.023 99.7427 79.1315 99.6627 79.2115C99.5827 79.2915 99.4742 79.3364 99.3611 79.3364H95.4416C95.3856 79.3366 95.3301 79.3256 95.2782 79.3042C95.2264 79.2829 95.1794 79.2515 95.1397 79.2118C95.1001 79.1722 95.0687 79.1251 95.0473 79.0733C95.0259 79.0215 95.015 78.966 95.0151 78.9099V78.9099C95.0151 78.7968 95.0601 78.6883 95.1401 78.6083C95.22 78.5283 95.3285 78.4834 95.4416 78.4834H99.3611Z" fill="white"/>
<path d="M99.1043 80.0514C99.1439 80.0909 99.1753 80.1379 99.1967 80.1895C99.2182 80.2412 99.2292 80.2966 99.2292 80.3525C99.2292 80.4084 99.2182 80.4638 99.1967 80.5155C99.1753 80.5671 99.1439 80.614 99.1043 80.6536V80.6536C99.0648 80.6931 99.0179 80.7245 98.9662 80.746C98.9146 80.7674 98.8592 80.7784 98.8033 80.7784C98.7473 80.7784 98.692 80.7674 98.6403 80.746C98.5887 80.7245 98.5417 80.6931 98.5022 80.6536L95.7299 77.8824C95.6903 77.8428 95.6589 77.7958 95.6375 77.744C95.616 77.6923 95.605 77.6368 95.605 77.5808C95.605 77.5248 95.616 77.4693 95.6375 77.4176C95.6589 77.3658 95.6903 77.3188 95.7299 77.2792V77.2792C95.7695 77.2396 95.8164 77.2082 95.868 77.1868C95.9197 77.1653 95.9751 77.1543 96.031 77.1543C96.0869 77.1543 96.1423 77.1653 96.194 77.1868C96.2456 77.2082 96.2926 77.2396 96.3321 77.2792L99.1043 80.0514Z" fill="white"/>
<path d="M98.4718 77.247C98.5114 77.2074 98.5584 77.176 98.6102 77.1545C98.6619 77.1331 98.7174 77.1221 98.7734 77.1221C98.8294 77.1221 98.8849 77.1331 98.9367 77.1545C98.9884 77.176 99.0354 77.2074 99.075 77.247V77.247C99.1146 77.2865 99.146 77.3335 99.1675 77.3851C99.1889 77.4368 99.1999 77.4922 99.1999 77.5481C99.1999 77.604 99.1889 77.6594 99.1675 77.7111C99.146 77.7627 99.1146 77.8096 99.075 77.8492L96.3028 80.6214C96.2633 80.661 96.2163 80.6924 96.1647 80.7138C96.113 80.7353 96.0576 80.7463 96.0017 80.7463C95.9458 80.7463 95.8904 80.7353 95.8387 80.7138C95.7871 80.6924 95.7402 80.661 95.7007 80.6214C95.661 80.5818 95.6296 80.5348 95.6082 80.483C95.5867 80.4313 95.5757 80.3758 95.5757 80.3198C95.5757 80.2638 95.5867 80.2083 95.6082 80.1565C95.6296 80.1048 95.661 80.0578 95.7007 80.0182L98.4718 77.247Z" fill="white"/>
<path d="M99.106 78.9578C99.106 79.2948 99.0062 79.6242 98.8191 79.9044C98.632 80.1846 98.3661 80.4032 98.0549 80.5324C97.7437 80.6616 97.4012 80.6956 97.0706 80.6303C96.7401 80.565 96.4363 80.4032 96.1976 80.1653C95.959 79.9275 95.7962 79.6242 95.7297 79.2939C95.6633 78.9636 95.6963 78.621 95.8244 78.3093C95.9526 77.9977 96.1702 77.731 96.4498 77.543C96.7295 77.355 97.0585 77.2541 97.3955 77.2529C97.6199 77.252 97.8422 77.2955 98.0498 77.3808C98.2574 77.4661 98.4461 77.5915 98.605 77.7499C98.7639 77.9083 98.89 78.0966 98.976 78.3039C99.062 78.5112 99.1062 78.7334 99.106 78.9578V78.9578Z" fill="white"/>
<path opacity="0.4" d="M90.6829 78.586L91.3147 78.0945C91.3147 78.0945 91.3842 75.7795 93.665 74.0598C95.7485 72.4895 98.2972 72.7609 98.2972 72.7609L98.5424 72.2705C98.5424 72.2705 95.3494 71.884 93.1393 73.6732C90.4765 75.8285 90.6829 78.586 90.6829 78.586Z" fill="white"/>
<path d="M97.6044 76.9392C97.6044 76.9791 97.5925 77.0181 97.5704 77.0513C97.5482 77.0845 97.5167 77.1104 97.4798 77.1256C97.4429 77.1409 97.4023 77.1449 97.3632 77.1371C97.324 77.1293 97.288 77.1101 97.2598 77.0819C97.2316 77.0537 97.2123 77.0177 97.2046 76.9785C97.1968 76.9394 97.2008 76.8988 97.2161 76.8619C97.2313 76.825 97.2572 76.7935 97.2904 76.7713C97.3236 76.7491 97.3626 76.7373 97.4025 76.7373C97.4561 76.7373 97.5074 76.7586 97.5453 76.7964C97.5831 76.8343 97.6044 76.8856 97.6044 76.9392Z" fill="#5B5B5B"/>
<path d="M99.0077 77.4997C99.0077 77.5396 98.9959 77.5786 98.9737 77.6118C98.9515 77.645 98.92 77.6709 98.8831 77.6862C98.8462 77.7015 98.8056 77.7055 98.7665 77.6977C98.7273 77.6899 98.6913 77.6707 98.6631 77.6424C98.6349 77.6142 98.6157 77.5782 98.6079 77.5391C98.6001 77.4999 98.6041 77.4593 98.6194 77.4225C98.6346 77.3856 98.6605 77.354 98.6937 77.3319C98.7269 77.3097 98.7659 77.2979 98.8058 77.2979C98.8594 77.2979 98.9107 77.3191 98.9486 77.357C98.9864 77.3948 99.0077 77.4462 99.0077 77.4997V77.4997Z" fill="#5B5B5B"/>
<path d="M99.6747 78.9195C99.6749 78.9594 99.6633 78.9986 99.6412 79.0319C99.6192 79.0652 99.5877 79.0913 99.5509 79.1068C99.514 79.1222 99.4734 79.1264 99.4342 79.1187C99.3949 79.111 99.3589 79.0919 99.3305 79.0637C99.3022 79.0355 99.2828 78.9996 99.275 78.9604C99.2671 78.9212 99.271 78.8806 99.2863 78.8436C99.3015 78.8067 99.3274 78.7751 99.3606 78.7528C99.3938 78.7306 99.4329 78.7188 99.4728 78.7188C99.5262 78.7187 99.5774 78.7399 99.6152 78.7775C99.653 78.8151 99.6744 78.8661 99.6747 78.9195V78.9195Z" fill="#5B5B5B"/>
<path d="M99.0785 80.446C99.0785 80.4859 99.0667 80.5249 99.0445 80.5581C99.0223 80.5913 98.9908 80.6172 98.9539 80.6325C98.917 80.6477 98.8764 80.6517 98.8373 80.644C98.7981 80.6362 98.7621 80.6169 98.7339 80.5887C98.7057 80.5605 98.6865 80.5245 98.6787 80.4854C98.6709 80.4462 98.6749 80.4056 98.6902 80.3687C98.7054 80.3319 98.7313 80.3003 98.7645 80.2782C98.7977 80.256 98.8367 80.2441 98.8766 80.2441C98.9302 80.2441 98.9815 80.2654 99.0194 80.3033C99.0572 80.3411 99.0785 80.3925 99.0785 80.446Z" fill="#5B5B5B"/>
<path d="M97.5868 80.9733C97.5868 81.0133 97.575 81.0523 97.5528 81.0855C97.5306 81.1187 97.4991 81.1445 97.4622 81.1598C97.4253 81.1751 97.3847 81.1791 97.3456 81.1713C97.3064 81.1635 97.2705 81.1443 97.2422 81.1161C97.214 81.0878 97.1948 81.0519 97.187 81.0127C97.1792 80.9736 97.1832 80.933 97.1985 80.8961C97.2137 80.8592 97.2396 80.8277 97.2728 80.8055C97.306 80.7833 97.345 80.7715 97.385 80.7715C97.4385 80.7715 97.4898 80.7927 97.5277 80.8306C97.5655 80.8685 97.5868 80.9198 97.5868 80.9733Z" fill="#5B5B5B"/>
<path d="M96.1835 80.3591C96.1835 80.399 96.1716 80.438 96.1495 80.4712C96.1273 80.5044 96.0958 80.5303 96.0589 80.5456C96.022 80.5608 95.9814 80.5648 95.9423 80.557C95.9031 80.5493 95.8671 80.53 95.8389 80.5018C95.8107 80.4736 95.7915 80.4376 95.7837 80.3985C95.7759 80.3593 95.7799 80.3187 95.7951 80.2818C95.8104 80.2449 95.8363 80.2134 95.8695 80.1912C95.9027 80.1691 95.9417 80.1572 95.9816 80.1572C96.0352 80.1572 96.0865 80.1785 96.1244 80.2163C96.1622 80.2542 96.1835 80.3055 96.1835 80.3591Z" fill="#5B5B5B"/>
<path d="M95.622 78.9372C95.622 78.9771 95.6101 79.0161 95.5879 79.0493C95.5658 79.0825 95.5342 79.1084 95.4974 79.1237C95.4605 79.139 95.4199 79.143 95.3807 79.1352C95.3416 79.1274 95.3056 79.1082 95.2774 79.0799C95.2491 79.0517 95.2299 79.0157 95.2221 78.9766C95.2144 78.9374 95.2183 78.8968 95.2336 78.86C95.2489 78.8231 95.2748 78.7915 95.308 78.7694C95.3412 78.7472 95.3802 78.7354 95.4201 78.7354C95.4736 78.7354 95.525 78.7566 95.5628 78.7945C95.6007 78.8323 95.622 78.8837 95.622 78.9372V78.9372Z" fill="#5B5B5B"/>
<path d="M96.1835 77.4997C96.1835 77.5396 96.1716 77.5786 96.1495 77.6118C96.1273 77.645 96.0958 77.6709 96.0589 77.6862C96.022 77.7015 95.9814 77.7055 95.9423 77.6977C95.9031 77.6899 95.8671 77.6707 95.8389 77.6424C95.8107 77.6142 95.7915 77.5782 95.7837 77.5391C95.7759 77.4999 95.7799 77.4593 95.7951 77.4225C95.8104 77.3856 95.8363 77.354 95.8695 77.3319C95.9027 77.3097 95.9417 77.2979 95.9816 77.2979C96.0352 77.2979 96.0865 77.3191 96.1244 77.357C96.1622 77.3948 96.1835 77.4462 96.1835 77.4997V77.4997Z" fill="#5B5B5B"/>
<path d="M98.3383 78.9577C98.3383 79.1429 98.2834 79.3239 98.1805 79.4779C98.0777 79.6319 97.9314 79.7519 97.7604 79.8227C97.5893 79.8936 97.401 79.9121 97.2194 79.876C97.0378 79.8399 96.871 79.7507 96.74 79.6198C96.6091 79.4888 96.5199 79.322 96.4838 79.1404C96.4477 78.9588 96.4662 78.7705 96.5371 78.5994C96.6079 78.4284 96.728 78.2821 96.8819 78.1793C97.0359 78.0764 97.2169 78.0215 97.4021 78.0215C97.525 78.0215 97.6468 78.0457 97.7604 78.0928C97.874 78.1398 97.9772 78.2088 98.0641 78.2957C98.151 78.3826 98.22 78.4859 98.2671 78.5994C98.3141 78.713 98.3383 78.8348 98.3383 78.9577V78.9577Z" fill="#5B5B5B"/>
<path d="M30.9548 86.3725C35.0536 86.3725 38.3764 83.0497 38.3764 78.9509C38.3764 74.8521 35.0536 71.5293 30.9548 71.5293C26.856 71.5293 23.5332 74.8521 23.5332 78.9509C23.5332 83.0497 26.856 86.3725 30.9548 86.3725Z" fill="#31302A"/>
<path d="M33.746 72.1143C35.9036 73.4132 37.8058 75.5548 37.9084 78.2541C38.0487 81.95 36.394 86.1421 30.1424 85.9733C29.1126 85.9365 28.0962 85.7275 27.1353 85.3552C28.2505 86.0269 29.8722 86.3485 31.2657 86.3485C35.3642 86.3485 38.376 83.0916 38.376 78.993C38.3761 77.5159 37.9356 76.0724 37.1109 74.847C36.2861 73.6216 35.1145 72.6702 33.746 72.1143Z" fill="#424038"/>
<path d="M30.9559 83.4781C33.4556 83.4781 35.482 81.4517 35.482 78.952C35.482 76.4522 33.4556 74.4258 30.9559 74.4258C28.4561 74.4258 26.4297 76.4522 26.4297 78.952C26.4297 81.4517 28.4561 83.4781 30.9559 83.4781Z" fill="#5B5B5B"/>
<path d="M35.113 78.9576C35.113 79.78 34.8692 80.5838 34.4123 81.2676C33.9554 81.9514 33.3061 82.4843 32.5463 82.799C31.7866 83.1137 30.9506 83.196 30.144 83.0356C29.3375 82.8751 28.5966 82.4791 28.0152 81.8977C27.4337 81.3162 27.0377 80.5753 26.8773 79.7688C26.7168 78.9622 26.7992 78.1262 27.1139 77.3665C27.4286 76.6068 27.9615 75.9574 28.6452 75.5005C29.329 75.0437 30.1329 74.7998 30.9552 74.7998C32.0578 74.8001 33.1152 75.2383 33.8949 76.0179C34.6746 76.7976 35.1127 77.855 35.113 78.9576Z" fill="white"/>
<path d="M33.9021 78.9567C33.9021 79.5398 33.7292 80.1097 33.4052 80.5945C33.0813 81.0793 32.6208 81.4572 32.0821 81.6803C31.5434 81.9034 30.9506 81.9617 30.3787 81.8478C29.8068 81.734 29.2816 81.4531 28.8694 81.0407C28.4571 80.6284 28.1765 80.103 28.0629 79.5311C27.9492 78.9592 28.0078 78.3664 28.2311 77.8278C28.4544 77.2891 28.8324 76.8288 29.3173 76.505C29.8022 76.1813 30.3723 76.0086 30.9554 76.0088C31.3424 76.0088 31.7257 76.085 32.0833 76.2332C32.4409 76.3814 32.7658 76.5985 33.0394 76.8723C33.3131 77.146 33.5301 77.471 33.6781 77.8287C33.8262 78.1863 33.9023 78.5696 33.9021 78.9567V78.9567Z" fill="#777464"/>
<path d="M31.3807 80.9104C31.3808 80.9664 31.3699 81.0218 31.3486 81.0736C31.3273 81.1253 31.296 81.1723 31.2565 81.212C31.217 81.2516 31.17 81.283 31.1184 81.3045C31.0667 81.3259 31.0113 81.3369 30.9553 81.3369V81.3369C30.8993 81.3371 30.8437 81.3262 30.7919 81.3048C30.7401 81.2834 30.693 81.252 30.6534 81.2124C30.6138 81.1727 30.5823 81.1257 30.561 81.0738C30.5396 81.022 30.5287 80.9665 30.5288 80.9104V76.991C30.5287 76.9349 30.5396 76.8794 30.561 76.8276C30.5823 76.7758 30.6138 76.7287 30.6534 76.689C30.693 76.6494 30.7401 76.618 30.7919 76.5966C30.8437 76.5752 30.8993 76.5643 30.9553 76.5645C31.0113 76.5645 31.0667 76.5755 31.1184 76.5969C31.17 76.6184 31.217 76.6498 31.2565 76.6894C31.296 76.7291 31.3273 76.7761 31.3486 76.8278C31.3699 76.8796 31.3808 76.935 31.3807 76.991V80.9104Z" fill="white"/>
<path d="M32.9143 78.4814C33.0275 78.4814 33.1359 78.5264 33.2159 78.6064C33.2959 78.6863 33.3409 78.7948 33.3409 78.9079V78.9079C33.341 78.964 33.3301 79.0195 33.3087 79.0713C33.2873 79.1232 33.2559 79.1702 33.2163 79.2099C33.1766 79.2495 33.1296 79.2809 33.0777 79.3023C33.0259 79.3237 32.9704 79.3346 32.9143 79.3344H28.9949C28.8817 79.3344 28.7733 79.2895 28.6933 79.2095C28.6133 79.1295 28.5684 79.0211 28.5684 78.9079C28.5687 78.7949 28.6137 78.6866 28.6936 78.6067C28.7735 78.5268 28.8818 78.4817 28.9949 78.4814H32.9143Z" fill="white"/>
<path d="M32.6563 80.0506C32.6958 80.0901 32.7272 80.137 32.7487 80.1886C32.7701 80.2403 32.7811 80.2957 32.7811 80.3516C32.7811 80.4075 32.7701 80.4629 32.7487 80.5146C32.7272 80.5662 32.6958 80.6132 32.6563 80.6527V80.6527C32.6168 80.6923 32.5698 80.7237 32.5182 80.7451C32.4665 80.7665 32.4111 80.7775 32.3552 80.7775C32.2993 80.7775 32.2439 80.7665 32.1922 80.7451C32.1406 80.7237 32.0936 80.6923 32.0541 80.6527L29.2773 77.8816C29.2377 77.8419 29.2063 77.7949 29.1848 77.7432C29.1634 77.6914 29.1523 77.6359 29.1523 77.5799C29.1523 77.5239 29.1634 77.4684 29.1848 77.4167C29.2063 77.3649 29.2377 77.3179 29.2773 77.2783V77.2783C29.3169 77.2387 29.3639 77.2072 29.4157 77.1858C29.4674 77.1644 29.5229 77.1533 29.5789 77.1533C29.635 77.1533 29.6904 77.1644 29.7422 77.1858C29.7939 77.2072 29.841 77.2387 29.8806 77.2783L32.6563 80.0506Z" fill="white"/>
<path d="M32.0247 77.246C32.0642 77.2064 32.1111 77.175 32.1628 77.1535C32.2144 77.1321 32.2698 77.1211 32.3257 77.1211C32.3817 77.1211 32.437 77.1321 32.4887 77.1535C32.5404 77.175 32.5873 77.2064 32.6268 77.246V77.246C32.6664 77.2855 32.6978 77.3324 32.7192 77.3841C32.7406 77.4357 32.7517 77.4911 32.7517 77.547C32.7517 77.603 32.7406 77.6583 32.7192 77.71C32.6978 77.7616 32.6664 77.8086 32.6268 77.8481L29.8545 80.6203C29.815 80.6599 29.7681 80.6913 29.7164 80.7128C29.6648 80.7342 29.6094 80.7452 29.5535 80.7452C29.4975 80.7452 29.4422 80.7342 29.3905 80.7128C29.3388 80.6913 29.2919 80.6599 29.2524 80.6203V80.6203C29.2128 80.5807 29.1814 80.5337 29.1599 80.482C29.1385 80.4302 29.1274 80.3747 29.1274 80.3187C29.1274 80.2627 29.1385 80.2072 29.1599 80.1555C29.1814 80.1037 29.2128 80.0567 29.2524 80.0171L32.0247 77.246Z" fill="white"/>
<path d="M32.6588 78.9567C32.6576 79.2937 32.5566 79.6228 32.3686 79.9024C32.1805 80.182 31.9138 80.3997 31.6021 80.5278C31.2904 80.6559 30.9477 80.6888 30.6174 80.6223C30.287 80.5558 29.9838 80.3928 29.746 80.1541C29.5081 79.9153 29.3464 79.6114 29.2812 79.2808C29.216 78.9501 29.2503 78.6076 29.3797 78.2964C29.509 77.9853 29.7277 77.7194 30.0081 77.5325C30.2885 77.3455 30.618 77.2459 30.955 77.2461C31.1793 77.2461 31.4014 77.2904 31.6086 77.3764C31.8157 77.4625 32.0039 77.5886 32.1622 77.7475C32.3205 77.9065 32.4458 78.0951 32.531 78.3026C32.6162 78.5101 32.6597 78.7324 32.6588 78.9567V78.9567Z" fill="white"/>
<path opacity="0.4" d="M24.2345 78.587L24.8663 78.0954C24.8663 78.0954 24.937 75.7805 27.2178 74.0608C29.3001 72.4905 31.8488 72.7619 31.8488 72.7619L32.0952 72.2715C32.0952 72.2715 28.9021 71.8849 26.6909 73.6742C24.0315 75.8295 24.2345 78.587 24.2345 78.587Z" fill="white"/>
<path d="M31.1571 76.9392C31.1571 76.9791 31.1453 77.0181 31.1231 77.0513C31.1009 77.0845 31.0694 77.1104 31.0325 77.1256C30.9956 77.1409 30.955 77.1449 30.9159 77.1371C30.8767 77.1293 30.8408 77.1101 30.8125 77.0819C30.7843 77.0537 30.7651 77.0177 30.7573 76.9785C30.7495 76.9394 30.7535 76.8988 30.7688 76.8619C30.7841 76.825 30.8099 76.7935 30.8431 76.7713C30.8763 76.7491 30.9153 76.7373 30.9553 76.7373C31.0088 76.7373 31.0601 76.7586 31.098 76.7964C31.1358 76.8343 31.1571 76.8856 31.1571 76.9392Z" fill="#5B5B5B"/>
<path d="M32.5614 77.4977C32.5614 77.5377 32.5496 77.5767 32.5274 77.6099C32.5052 77.6431 32.4737 77.669 32.4368 77.6842C32.3999 77.6995 32.3593 77.7035 32.3202 77.6957C32.281 77.6879 32.2451 77.6687 32.2168 77.6405C32.1886 77.6122 32.1694 77.5763 32.1616 77.5371C32.1538 77.498 32.1578 77.4574 32.1731 77.4205C32.1884 77.3836 32.2142 77.3521 32.2474 77.3299C32.2806 77.3077 32.3196 77.2959 32.3596 77.2959C32.4131 77.2959 32.4644 77.3172 32.5023 77.355C32.5401 77.3929 32.5614 77.4442 32.5614 77.4977V77.4977Z" fill="#5B5B5B"/>
<path d="M33.2269 78.9204C33.2272 78.9604 33.2155 78.9995 33.1935 79.0329C33.1714 79.0662 33.14 79.0923 33.1031 79.1077C33.0663 79.1232 33.0256 79.1273 32.9864 79.1197C32.9472 79.112 32.9111 79.0929 32.8828 79.0647C32.8544 79.0365 32.8351 79.0006 32.8272 78.9614C32.8193 78.9222 32.8233 78.8815 32.8385 78.8446C32.8537 78.8076 32.8796 78.7761 32.9128 78.7538C32.946 78.7316 32.9851 78.7197 33.0251 78.7197C33.0784 78.7197 33.1296 78.7408 33.1674 78.7784C33.2052 78.816 33.2266 78.8671 33.2269 78.9204Z" fill="#5B5B5B"/>
<path d="M32.6303 80.447C32.6303 80.4869 32.6184 80.5259 32.5962 80.5591C32.5741 80.5923 32.5425 80.6182 32.5057 80.6334C32.4688 80.6487 32.4282 80.6527 32.389 80.6449C32.3499 80.6371 32.3139 80.6179 32.2857 80.5897C32.2575 80.5615 32.2382 80.5255 32.2304 80.4863C32.2227 80.4472 32.2266 80.4066 32.2419 80.3697C32.2572 80.3328 32.2831 80.3013 32.3163 80.2791C32.3495 80.257 32.3885 80.2451 32.4284 80.2451C32.4819 80.2451 32.5333 80.2664 32.5711 80.3042C32.609 80.3421 32.6303 80.3934 32.6303 80.447Z" fill="#5B5B5B"/>
<path d="M31.1395 80.9743C31.1395 81.0142 31.1277 81.0533 31.1055 81.0864C31.0833 81.1196 31.0518 81.1455 31.0149 81.1608C30.978 81.1761 30.9375 81.1801 30.8983 81.1723C30.8592 81.1645 30.8232 81.1453 30.795 81.117C30.7667 81.0888 30.7475 81.0528 30.7397 81.0137C30.7319 80.9745 30.7359 80.9339 30.7512 80.8971C30.7665 80.8602 30.7924 80.8287 30.8255 80.8065C30.8587 80.7843 30.8978 80.7725 30.9377 80.7725C30.9912 80.7725 31.0426 80.7937 31.0804 80.8316C31.1183 80.8694 31.1395 80.9208 31.1395 80.9743Z" fill="#5B5B5B"/>
<path d="M29.7343 80.3581C29.7343 80.398 29.7224 80.437 29.7002 80.4702C29.6781 80.5034 29.6465 80.5293 29.6097 80.5446C29.5728 80.5599 29.5322 80.5639 29.493 80.5561C29.4539 80.5483 29.4179 80.5291 29.3897 80.5008C29.3615 80.4726 29.3422 80.4366 29.3344 80.3975C29.3267 80.3583 29.3307 80.3177 29.3459 80.2809C29.3612 80.244 29.3871 80.2124 29.4203 80.1903C29.4535 80.1681 29.4925 80.1562 29.5324 80.1562C29.5859 80.1562 29.6373 80.1775 29.6751 80.2154C29.713 80.2532 29.7343 80.3046 29.7343 80.3581Z" fill="#5B5B5B"/>
<path d="M29.1742 78.9382C29.1742 78.9781 29.1624 79.0171 29.1402 79.0503C29.118 79.0835 29.0865 79.1094 29.0496 79.1247C29.0127 79.1399 28.9721 79.1439 28.933 79.1361C28.8938 79.1284 28.8579 79.1091 28.8296 79.0809C28.8014 79.0527 28.7822 79.0167 28.7744 78.9776C28.7666 78.9384 28.7706 78.8978 28.7859 78.8609C28.8011 78.824 28.827 78.7925 28.8602 78.7703C28.8934 78.7482 28.9324 78.7363 28.9724 78.7363C29.0259 78.7363 29.0772 78.7576 29.1151 78.7954C29.1529 78.8333 29.1742 78.8846 29.1742 78.9382V78.9382Z" fill="#5B5B5B"/>
<path d="M29.7343 77.4977C29.7343 77.5377 29.7224 77.5767 29.7002 77.6099C29.6781 77.6431 29.6465 77.669 29.6097 77.6842C29.5728 77.6995 29.5322 77.7035 29.493 77.6957C29.4539 77.6879 29.4179 77.6687 29.3897 77.6405C29.3615 77.6122 29.3422 77.5763 29.3344 77.5371C29.3267 77.498 29.3307 77.4574 29.3459 77.4205C29.3612 77.3836 29.3871 77.3521 29.4203 77.3299C29.4535 77.3077 29.4925 77.2959 29.5324 77.2959C29.5859 77.2959 29.6373 77.3172 29.6751 77.355C29.713 77.3929 29.7343 77.4442 29.7343 77.4977V77.4977Z" fill="#5B5B5B"/>
<path d="M30.9548 79.8872C31.4719 79.8872 31.8911 79.468 31.8911 78.9509C31.8911 78.4338 31.4719 78.0146 30.9548 78.0146C30.4377 78.0146 30.0186 78.4338 30.0186 78.9509C30.0186 79.468 30.4377 79.8872 30.9548 79.8872Z" fill="#5B5B5B"/>
<path d="M52.7511 61.4865C51.5834 63.237 69.964 61.6165 69.964 61.6165L70.484 52.3281C70.484 52.3281 62.1695 52.3281 60.2206 53.172C58.2717 54.0159 54.05 59.5376 52.7511 61.4865Z" fill="#FFCF52"/>
<rect x="69.7871" y="53.3008" width="0.199176" height="8.22481" transform="rotate(6.55817 69.7871 53.3008)" fill="white"/>
<path d="M72.7568 52.3876L72.8218 61.4822C72.8218 61.4822 91.0098 61.6817 91.3336 60.7124C91.6575 59.7431 87.5373 53.9112 85.163 53.0479C81.5902 51.7433 72.7568 52.3876 72.7568 52.3876Z" fill="#FFCF52"/>
<path d="M60.8057 53.952C62.4284 53.2484 68.4679 53.131 70.4407 53.1116L70.4841 52.3281C70.4841 52.3281 62.1696 52.3281 60.2207 53.172C58.2717 54.0159 54.0501 59.5376 52.7512 61.4865C52.571 61.7557 52.8561 61.9427 53.465 62.0738C54.8962 59.9778 58.9172 54.7697 60.8057 53.952Z" fill="#2B2A25"/>
<path d="M73.3407 53.1719C73.3407 53.1719 82.1752 52.5219 85.748 53.8219C86.8816 54.2336 88.412 55.7766 89.6675 57.3833C88.3333 55.5257 86.4745 53.5209 85.163 53.0419C81.5902 51.743 72.7568 52.3873 72.7568 52.3873L72.8218 61.4819H73.4011L73.3407 53.1719Z" fill="#2B2A25"/>
<path d="M45.2075 62.0033C45.3375 61.9599 49.2524 62.3112 49.6858 61.7045C50.1191 61.0978 57.0481 53.3467 56.8314 52.9578C56.6147 52.5689 54.4058 52.7411 54.4058 52.7411C54.4058 52.7411 51.7647 54.0411 49.0369 57.1589C47.6796 58.7081 46.4015 60.325 45.2075 62.0033V62.0033Z" fill="#FFCF52"/>
<rect x="55.417" y="53.6846" width="0.199176" height="8.79808" transform="rotate(40.6601 55.417 53.6846)" fill="white"/>
<path d="M20.0538 66.7889C19.836 65.9279 14.5001 66.3065 14.5001 66.3065C14.5001 66.3065 13.2377 67.1983 13.1978 69.3867C13.1556 71.7815 14.3895 72.6824 14.3895 72.6824L18.26 72.5558C18.26 72.5558 20.2682 67.6499 20.0538 66.7889Z" fill="#FFCF52"/>
<path d="M14.865 67.2295C14.865 67.2295 14.0417 68.16 13.882 68.6618C13.7224 69.1636 13.7007 70.9756 13.7007 70.9756L14.418 71.0292C14.418 71.0292 14.3929 69.4145 14.7396 68.8796C15.3668 67.9114 17.0682 67.2489 17.0682 67.2489L14.865 67.2295Z" fill="white"/>
<path d="M124.821 66.8015C124.821 66.8015 122.095 66.749 121.81 66.749C121.524 66.749 121.096 67.0045 121.096 67.3192C121.096 67.634 121.309 69.6821 121.381 69.9421C121.453 70.2021 121.88 70.453 122.38 70.453C122.879 70.453 123.611 70.4803 123.611 70.4803L124.821 66.8015Z" fill="#B52C1A"/>
<path d="M121.854 67.1018L122.062 69.9345H122.89L122.684 67.0732L121.854 67.1018Z" fill="#F23325"/>
<path d="M15.6525 74.7938C15.6525 74.7938 20.62 74.5851 21.2404 74.8827C21.7764 75.1393 21.9087 77.4965 21.1264 77.7884C20.3441 78.0803 16.4212 77.923 16.4212 77.923C16.4212 77.923 15.1462 77.7998 15.0732 76.3185C15.0139 75.0629 15.6525 74.7938 15.6525 74.7938Z" fill="#72726F"/>
<path opacity="0.5" d="M15.6457 75.1074L15.2295 75.6434L21.2952 75.8612L21.1572 75.1473L15.6457 75.1074Z" fill="#FFCF52"/>
<path d="M117.857 71.0887C117.857 71.0887 122.825 70.88 123.445 71.1776C123.981 71.4354 124.112 73.7914 123.331 74.0845C122.55 74.3775 118.625 74.2179 118.625 74.2179C118.625 74.2179 117.351 74.0959 117.278 72.6145C117.219 71.3612 117.857 71.0887 117.857 71.0887Z" fill="#72726F"/>
<path opacity="0.5" d="M117.851 71.4053L117.435 71.9401L123.5 72.1579L123.361 71.4452L117.851 71.4053Z" fill="#FFCF52"/>
<path d="M108.264 62.3086C108.264 62.3086 22.2987 64.4863 20.8374 65.4773L28.5761 66.0718L112.866 64.2882L108.264 62.3086Z" fill="#FF6B00"/>
<path d="M41.3647 79.0719L87.3041 77.1038L87.8923 74.8525L41.3647 76.8224V79.0719Z" fill="#007559"/>
<path d="M51.4774 79.1944L51.4511 79.1329C51.4192 79.061 48.3276 71.8436 48.6173 66.8168C48.7758 64.0799 50.8331 62.1207 50.9802 61.9838C51.2892 61.555 56.7961 53.9453 59.0883 52.5187C60.6517 51.5414 71.3496 51.3429 71.8046 51.335H71.905L71.7089 61.9587C71.7089 62.0055 71.4112 66.1667 71.5139 69.3587C71.6165 72.5506 71.9962 78.3586 72.0008 78.4167L72.0065 78.5171L51.4774 79.1944ZM71.7066 51.5243C70.5901 51.5471 60.6312 51.7763 59.192 52.676C56.9193 54.0958 51.19 62.0215 51.1318 62.1013L51.1181 62.1173C51.0965 62.1355 48.9708 64.0776 48.8123 66.8236C48.5386 71.5642 51.3052 78.2844 51.604 78.9949L71.7989 78.3186C71.7488 77.5306 71.4146 72.3202 71.3188 69.3541C71.2162 66.1531 71.5104 61.9816 71.5139 61.9416L71.7066 51.5243Z" fill="#2B2A25"/>
<path d="M71.9068 78.5105L71.8989 78.3155L87.619 77.6222C87.8254 77.1797 89.2634 74.1372 90.4346 72.6045C90.8908 72.0149 91.502 71.4915 92.0984 70.9863C93.1921 70.058 94.3222 69.099 94.508 67.6792C94.7943 65.4771 92.2033 55.2034 86.287 52.8759C80.4335 50.5769 71.9023 51.512 71.8133 51.5211L71.7905 51.3273C71.8772 51.3182 80.4574 50.3773 86.3543 52.6957C92.3573 55.0575 94.9881 65.4737 94.6973 67.7054C94.5069 69.2005 93.346 70.1846 92.2261 71.1357C91.6377 71.6352 91.0299 72.1506 90.592 72.7231C89.3455 74.3527 87.7889 77.7237 87.773 77.7579L87.749 77.8115H87.6886L71.9068 78.5105Z" fill="#2B2A25"/>
<path d="M69.7995 64.9422C69.7968 65.126 69.7213 65.3012 69.5896 65.4295C69.458 65.5577 69.2808 65.6285 69.097 65.6264L66.3225 65.5922C66.1388 65.5898 65.9635 65.5146 65.8352 65.3831C65.707 65.2516 65.6361 65.0746 65.6382 64.8909V64.6628C65.6409 64.479 65.7164 64.3038 65.8481 64.1755C65.9797 64.0473 66.1569 63.9764 66.3407 63.9786L69.1152 64.0128C69.2063 64.014 69.2962 64.0331 69.3799 64.069C69.4636 64.105 69.5393 64.1571 69.6029 64.2223C69.6664 64.2875 69.7165 64.3646 69.7502 64.4492C69.7839 64.5338 69.8007 64.6242 69.7995 64.7152V64.9422Z" fill="#00AA81"/>
<path d="M70.1175 64.145C70.1171 64.1943 70.1069 64.2431 70.0876 64.2885C70.0682 64.334 70.0401 64.3751 70.0048 64.4097C69.9695 64.4442 69.9278 64.4714 69.882 64.4898C69.8361 64.5082 69.7871 64.5173 69.7378 64.5167L65.4043 64.4654C65.3048 64.4636 65.21 64.4226 65.1406 64.3512C65.0712 64.2799 65.0328 64.184 65.0337 64.0845V64.0845C65.0343 64.0352 65.0446 63.9866 65.064 63.9413C65.0834 63.896 65.1116 63.855 65.1468 63.8206C65.1821 63.7861 65.2238 63.759 65.2695 63.7407C65.3153 63.7224 65.3642 63.7133 65.4135 63.7139L69.7469 63.7652C69.7962 63.7657 69.845 63.7759 69.8903 63.7952C69.9357 63.8146 69.9768 63.8427 70.0112 63.878C70.0457 63.9133 70.0728 63.955 70.091 64.0009C70.1093 64.0467 70.1183 64.0956 70.1175 64.145V64.145Z" fill="#2B2A25"/>
<path d="M92.1122 64.0072C92.1141 64.0986 92.0978 64.1895 92.0643 64.2746C92.0308 64.3597 91.9809 64.4374 91.9173 64.5031C91.8537 64.5688 91.7777 64.6213 91.6937 64.6575C91.6098 64.6938 91.5195 64.713 91.428 64.7142L88.6535 64.7689C88.5621 64.7706 88.4712 64.7542 88.3862 64.7207C88.3012 64.6872 88.2236 64.6372 88.1579 64.5736C88.0922 64.5101 88.0397 64.4341 88.0034 64.3502C87.9671 64.2664 87.9478 64.1761 87.9464 64.0847V63.8566C87.9446 63.7651 87.9609 63.6742 87.9943 63.589C88.0278 63.5039 88.0778 63.4261 88.1413 63.3603C88.2049 63.2945 88.2809 63.2419 88.3649 63.2056C88.4488 63.1692 88.5392 63.1498 88.6307 63.1485L91.4052 63.0949C91.4966 63.0931 91.5875 63.1093 91.6726 63.1428C91.7577 63.1763 91.8354 63.2262 91.9011 63.2898C91.9668 63.3534 92.0193 63.4294 92.0556 63.5134C92.0918 63.5973 92.1111 63.6876 92.1122 63.7791V64.0072Z" fill="#00AA81"/>
<path d="M92.4019 63.1975C92.4037 63.2971 92.366 63.3934 92.2969 63.4652C92.2279 63.5371 92.1332 63.5786 92.0336 63.5807L87.7001 63.6673C87.6005 63.6692 87.5042 63.6314 87.4324 63.5624C87.3606 63.4933 87.3191 63.3986 87.317 63.299V63.299C87.3151 63.1994 87.3529 63.1031 87.4219 63.0313C87.491 62.9594 87.5857 62.9179 87.6853 62.9158L92.0187 62.8292C92.1184 62.8273 92.2146 62.8651 92.2865 62.9341C92.3583 63.0032 92.3998 63.0979 92.4019 63.1975V63.1975Z" fill="#2B2A25"/>
<line x1="73.6244" y1="63.1789" x2="86.9668" y2="62.8368" stroke="white"/>
<line x1="94.9496" y1="62.4943" x2="108.292" y2="62.1522" stroke="white"/>
</svg>
