<svg width="138" height="134" viewBox="0 0 138 134" fill="none" xmlns="http://www.w3.org/2000/svg">
<path d="M66.9214 63.3165C66.9214 63.3165 68.4478 57.9473 69.5439 56.6786C70.9119 55.0919 72.7363 54.2264 73.3074 54.8034C73.8785 55.3804 72.5093 63.3165 72.5093 63.3165H66.9214Z" fill="#2B2A25"/>
<path d="M87.9888 63.3165C87.9888 63.3165 89.5152 57.9473 90.6113 56.6786C91.9793 55.0919 93.8037 54.2264 94.3748 54.8034C94.9459 55.3804 93.5767 63.3165 93.5767 63.3165H87.9888Z" fill="#2B2A25"/>
<path d="M26.4478 78.9939L16.2036 78.5635C16.2036 78.5635 14.7564 74.0905 15.6266 70.7716C16.4969 67.4526 16.9273 65.0004 18.9444 63.9894C20.9615 62.9785 46.5046 59.9492 46.5046 59.9492L63.5309 52.3027L64.5951 52.5534C64.5951 52.5534 51.4103 60.3831 52.1315 60.8159C52.8528 61.2486 78.682 60.6669 85.0302 60.0935C91.3784 59.52 95.2767 58.3624 95.2767 58.3624C95.2767 58.3624 104.8 57.7854 109.85 58.7952C114.9 59.805 120.528 60.9601 120.528 60.9601C121.407 62.9445 122.037 65.0304 122.402 67.17C122.979 70.6332 123.557 73.8079 121.536 75.5389C119.516 77.2699 109.848 78.4251 109.848 78.4251C109.848 78.4251 89.2146 80.0119 72.6211 80.0119C56.0275 80.0119 26.4478 78.9939 26.4478 78.9939Z" fill="#2B2A25"/>
<path d="M122.402 67.1706C122.036 65.0329 121.406 62.949 120.527 60.9666C120.527 60.9666 114.904 59.8055 109.848 58.7957C104.793 57.786 95.2767 58.363 95.2767 58.363C95.2767 58.363 91.3749 59.517 85.0314 60.094C78.6879 60.671 52.854 61.2492 52.1316 60.8164C51.4091 60.3837 65.042 52.3979 65.042 52.3979L63.5333 52.1543L46.507 59.9498C46.507 59.9498 20.9651 62.9802 18.9444 63.99C16.9237 64.9997 16.4922 67.4532 15.6266 70.7721C14.7611 74.0911 16.2037 78.564 16.2037 78.564L26.4478 78.9944L28.4011 79.0594C27.5207 77.8623 26.9366 76.4735 26.6966 75.0069C26.4566 73.5404 26.5676 72.0378 27.0205 70.6225C27.4734 69.2071 28.2553 67.9193 29.3021 66.8645C30.3489 65.8097 31.6307 65.018 33.0426 64.5543C34.4545 64.0906 35.9561 63.9682 37.4245 64.197C38.8928 64.4258 40.286 64.9993 41.4898 65.8706C42.6937 66.7418 43.6739 67.886 44.3501 69.2093C45.0264 70.5326 45.3793 71.9973 45.3801 73.4833V73.5424C45.3801 75.8209 44.6459 77.8936 43.3831 79.504C52.8422 79.7559 64.3491 80.0065 72.627 80.0065C79.1738 80.0065 86.3497 79.7594 92.6388 79.4603C91.6804 78.2961 91.016 76.9184 90.7017 75.4436C90.3874 73.9687 90.4324 72.4399 90.8329 70.9861C91.2334 69.5323 91.9777 68.1961 93.0029 67.0903C94.0282 65.9844 95.3044 65.1414 96.7238 64.6323C98.1432 64.1231 99.6643 63.9628 101.159 64.1649C102.653 64.367 104.077 64.9254 105.31 65.7932C106.543 66.661 107.55 67.8127 108.245 69.1511C108.939 70.4895 109.302 71.9753 109.302 73.4833C109.302 73.4951 109.302 73.507 109.302 73.5188C109.302 73.5306 109.302 73.5353 109.302 73.5424C109.315 75.3056 108.848 77.0391 107.953 78.5581C109.171 78.4718 109.854 78.4198 109.854 78.4198C109.854 78.4198 119.523 77.2658 121.542 75.5336C123.562 73.8014 122.979 70.6279 122.402 67.1706Z" fill="#00AA81"/>
<path d="M107.254 78.6987C110.066 74.766 109.158 69.2979 105.225 66.4855C101.292 63.673 95.8243 64.5812 93.0118 68.5139C90.1994 72.4467 91.1075 77.9147 95.0403 80.7272C98.973 83.5396 104.441 82.6314 107.254 78.6987Z" fill="#31302A"/>
<path d="M103.424 65.5488C105.969 67.0859 108.214 69.6068 108.334 72.7909C108.5 77.1504 106.548 82.0951 99.1731 81.8953C97.9584 81.8519 96.7595 81.6057 95.626 81.1669C96.9432 81.9579 98.8503 82.3375 100.499 82.3375C105.333 82.3375 108.886 78.4947 108.886 73.66C108.887 71.9178 108.367 70.2151 107.394 68.77C106.421 67.325 105.038 66.2033 103.424 65.5488V65.5488Z" fill="#22211D"/>
<path d="M105.47 73.6062C105.47 74.6624 105.157 75.6948 104.57 76.5729C103.983 77.451 103.149 78.1354 102.173 78.5395C101.198 78.9437 100.124 79.0493 99.088 78.8432C98.0522 78.6371 97.1008 78.1284 96.3541 77.3815C95.6073 76.6346 95.0989 75.6831 94.893 74.6472C94.6871 73.6114 94.793 72.5377 95.1973 71.562C95.6016 70.5864 96.2862 69.7525 97.1645 69.1659C98.0427 68.5793 99.0752 68.2664 100.131 68.2666C100.833 68.2664 101.527 68.4045 102.175 68.6728C102.823 68.9411 103.411 69.3344 103.907 69.8303C104.403 70.3262 104.796 70.9149 105.064 71.5628C105.332 72.2107 105.47 72.905 105.47 73.6062Z" fill="#B7B29E"/>
<path d="M105.036 73.6066C105.037 74.5769 104.751 75.5257 104.212 76.333C103.674 77.1404 102.909 77.7699 102.013 78.142C101.116 78.5141 100.13 78.6121 99.1784 78.4235C98.2266 78.235 97.3521 77.7683 96.6656 77.0826C95.9791 76.397 95.5114 75.5231 95.3217 74.5715C95.132 73.62 95.2288 72.6336 95.5998 71.737C95.9709 70.8405 96.5995 70.0742 97.4062 69.535C98.2128 68.9958 99.1613 68.708 100.132 68.708C101.431 68.708 102.678 69.2239 103.598 70.1424C104.517 71.0609 105.035 72.3069 105.036 73.6066V73.6066Z" fill="#666357"/>
<path d="M100.132 77.0823C102.052 77.0823 103.608 75.5259 103.608 73.6061C103.608 71.6862 102.052 70.1299 100.132 70.1299C98.2121 70.1299 96.6558 71.6862 96.6558 73.6061C96.6558 75.5259 98.2121 77.0823 100.132 77.0823Z" fill="#2A2A25"/>
<path d="M100.634 75.9202C100.634 76.0535 100.581 76.1813 100.487 76.2755C100.393 76.3698 100.265 76.4227 100.132 76.4227C99.9986 76.4227 99.8708 76.3698 99.7766 76.2755C99.6823 76.1813 99.6294 76.0535 99.6294 75.9202V71.2935C99.6294 71.1603 99.6823 71.0324 99.7766 70.9382C99.8708 70.844 99.9986 70.791 100.132 70.791C100.265 70.791 100.393 70.844 100.487 70.9382C100.581 71.0324 100.634 71.1603 100.634 71.2935V75.9202Z" fill="#969283"/>
<path d="M102.444 73.0527C102.577 73.0527 102.705 73.1057 102.799 73.1999C102.893 73.2942 102.946 73.422 102.946 73.5552C102.946 73.6885 102.893 73.8163 102.799 73.9106C102.705 74.0048 102.577 74.0578 102.444 74.0578H97.8194C97.6861 74.0578 97.5583 74.0048 97.4641 73.9106C97.3698 73.8163 97.3169 73.6885 97.3169 73.5552C97.3169 73.422 97.3698 73.2942 97.4641 73.1999C97.5583 73.1057 97.6861 73.0527 97.8194 73.0527H102.444Z" fill="#969283"/>
<path d="M102.136 74.9012C102.229 74.9954 102.282 75.123 102.282 75.2559C102.282 75.3889 102.229 75.5165 102.136 75.6106V75.6106C102.041 75.7045 101.914 75.7572 101.781 75.7572C101.648 75.7572 101.52 75.7045 101.426 75.6106L98.1568 72.3414C98.063 72.2472 98.0103 72.1196 98.0103 71.9866C98.0103 71.8537 98.063 71.7261 98.1568 71.6319V71.6319C98.2033 71.5852 98.2586 71.5481 98.3194 71.5227C98.3803 71.4974 98.4456 71.4844 98.5115 71.4844C98.5775 71.4844 98.6428 71.4974 98.7036 71.5227C98.7645 71.5481 98.8198 71.5852 98.8662 71.6319L102.136 74.9012Z" fill="#969283"/>
<path d="M101.393 71.5968C101.488 71.5029 101.615 71.4502 101.748 71.4502C101.881 71.4502 102.009 71.5029 102.103 71.5968V71.5968C102.196 71.6911 102.249 71.8186 102.249 71.9515C102.249 72.0844 102.196 72.2119 102.103 72.3062L98.8335 75.5755C98.7394 75.6693 98.6118 75.7221 98.4788 75.7221C98.3459 75.7221 98.2183 75.6693 98.1241 75.5755V75.5755C98.0302 75.4813 97.9775 75.3537 97.9775 75.2208C97.9775 75.0878 98.0302 74.9602 98.1241 74.8661L101.393 71.5968Z" fill="#969283"/>
<path d="M102.085 74.0695C102.342 72.9895 101.674 71.9058 100.594 71.6489C99.5143 71.392 98.4305 72.0592 98.1736 73.1392C97.9167 74.2192 98.584 75.303 99.664 75.5599C100.744 75.8168 101.828 75.1495 102.085 74.0695Z" fill="#969283"/>
<path opacity="0.4" d="M92.2023 73.1761L92.9472 72.5967C92.9472 72.5967 93.03 69.8654 95.7211 67.8365C98.1804 65.9884 101.188 66.3053 101.188 66.3053L101.478 65.7259C101.478 65.7259 97.711 65.2707 95.1039 67.3813C91.9658 69.9246 92.2023 73.1761 92.2023 73.1761Z" fill="#969283"/>
<path d="M100.369 71.2306C100.369 71.2774 100.355 71.3231 100.329 71.362C100.303 71.4009 100.266 71.4312 100.223 71.4491C100.18 71.467 100.132 71.4717 100.086 71.4626C100.04 71.4534 99.9983 71.4309 99.9653 71.3978C99.9322 71.3648 99.9097 71.3226 99.9005 71.2768C99.8914 71.2309 99.8961 71.1833 99.914 71.1401C99.9319 71.0969 99.9622 71.06 100.001 71.034C100.04 71.008 100.086 70.9941 100.132 70.9941C100.195 70.9941 100.255 71.0191 100.3 71.0634C100.344 71.1078 100.369 71.1679 100.369 71.2306Z" fill="#B7B29E"/>
<path d="M102.025 71.8947C102.025 71.9415 102.011 71.9872 101.985 72.0261C101.959 72.0649 101.922 72.0953 101.879 72.1132C101.836 72.1311 101.788 72.1357 101.743 72.1266C101.697 72.1175 101.655 72.095 101.622 72.0619C101.588 72.0288 101.566 71.9867 101.557 71.9408C101.548 71.8949 101.552 71.8474 101.57 71.8042C101.588 71.761 101.618 71.724 101.657 71.6981C101.696 71.6721 101.742 71.6582 101.789 71.6582C101.851 71.6582 101.912 71.6831 101.956 71.7275C102 71.7718 102.025 71.832 102.025 71.8947Z" fill="#B7B29E"/>
<path d="M102.812 73.5705C102.812 73.6172 102.798 73.663 102.772 73.7018C102.746 73.7407 102.709 73.771 102.666 73.7889C102.623 73.8068 102.575 73.8115 102.529 73.8024C102.483 73.7933 102.441 73.7707 102.408 73.7377C102.375 73.7046 102.353 73.6625 102.343 73.6166C102.334 73.5707 102.339 73.5232 102.357 73.48C102.375 73.4368 102.405 73.3998 102.444 73.3738C102.483 73.3479 102.529 73.334 102.575 73.334C102.638 73.334 102.698 73.3589 102.743 73.4032C102.787 73.4476 102.812 73.5077 102.812 73.5705Z" fill="#B7B29E"/>
<path d="M102.108 75.3703C102.108 75.417 102.094 75.4628 102.068 75.5016C102.042 75.5405 102.005 75.5708 101.962 75.5887C101.919 75.6066 101.871 75.6113 101.826 75.6022C101.78 75.5931 101.738 75.5706 101.705 75.5375C101.671 75.5044 101.649 75.4623 101.64 75.4164C101.631 75.3705 101.635 75.323 101.653 75.2798C101.671 75.2366 101.701 75.1996 101.74 75.1736C101.779 75.1477 101.825 75.1338 101.872 75.1338C101.934 75.1338 101.995 75.1587 102.039 75.2031C102.083 75.2474 102.108 75.3075 102.108 75.3703Z" fill="#B7B29E"/>
<path d="M100.349 75.9904C100.349 76.0372 100.336 76.0829 100.31 76.1218C100.284 76.1606 100.247 76.191 100.203 76.2089C100.16 76.2268 100.113 76.2314 100.067 76.2223C100.021 76.2132 99.9788 76.1907 99.9457 76.1576C99.9127 76.1245 99.8901 76.0824 99.881 76.0365C99.8719 75.9906 99.8766 75.9431 99.8945 75.8999C99.9124 75.8567 99.9427 75.8197 99.9816 75.7938C100.02 75.7678 100.066 75.7539 100.113 75.7539C100.176 75.7539 100.236 75.7788 100.28 75.8232C100.325 75.8675 100.349 75.9277 100.349 75.9904Z" fill="#B7B29E"/>
<path d="M98.6932 75.2668C98.6932 75.3135 98.6793 75.3592 98.6533 75.3981C98.6273 75.437 98.5904 75.4673 98.5472 75.4852C98.504 75.5031 98.4564 75.5078 98.4106 75.4987C98.3647 75.4896 98.3225 75.467 98.2895 75.434C98.2564 75.4009 98.2339 75.3588 98.2248 75.3129C98.2156 75.267 98.2203 75.2195 98.2382 75.1763C98.2561 75.133 98.2864 75.0961 98.3253 75.0701C98.3642 75.0441 98.4099 75.0303 98.4567 75.0303C98.5194 75.0303 98.5796 75.0552 98.6239 75.0995C98.6683 75.1439 98.6932 75.204 98.6932 75.2668Z" fill="#B7B29E"/>
<path d="M98.0306 73.59C98.0306 73.6368 98.0167 73.6825 97.9907 73.7214C97.9647 73.7603 97.9278 73.7906 97.8846 73.8085C97.8414 73.8264 97.7938 73.8311 97.748 73.8219C97.7021 73.8128 97.66 73.7903 97.6269 73.7572C97.5938 73.7241 97.5713 73.682 97.5622 73.6361C97.553 73.5903 97.5577 73.5427 97.5756 73.4995C97.5935 73.4563 97.6238 73.4194 97.6627 73.3934C97.7016 73.3674 97.7473 73.3535 97.7941 73.3535C97.8568 73.3535 97.917 73.3784 97.9613 73.4228C98.0057 73.4671 98.0306 73.5273 98.0306 73.59Z" fill="#B7B29E"/>
<path d="M98.6932 71.8947C98.6932 71.9415 98.6793 71.9872 98.6533 72.0261C98.6273 72.0649 98.5904 72.0953 98.5472 72.1132C98.504 72.1311 98.4564 72.1357 98.4106 72.1266C98.3647 72.1175 98.3225 72.095 98.2895 72.0619C98.2564 72.0288 98.2339 71.9867 98.2248 71.9408C98.2156 71.8949 98.2203 71.8474 98.2382 71.8042C98.2561 71.761 98.2864 71.724 98.3253 71.6981C98.3642 71.6721 98.4099 71.6582 98.4567 71.6582C98.5194 71.6582 98.5796 71.6831 98.6239 71.7275C98.6683 71.7718 98.6932 71.832 98.6932 71.8947Z" fill="#B7B29E"/>
<path d="M101.235 73.6063C101.235 73.8248 101.17 74.0383 101.049 74.22C100.927 74.4016 100.755 74.5431 100.553 74.6267C100.351 74.7102 100.129 74.732 99.9148 74.6893C99.7006 74.6466 99.5038 74.5413 99.3494 74.3868C99.195 74.2322 99.0899 74.0353 99.0474 73.821C99.005 73.6067 99.027 73.3846 99.1108 73.1829C99.1945 72.9811 99.3363 72.8087 99.518 72.6875C99.6998 72.5663 99.9134 72.5017 100.132 72.502C100.277 72.502 100.42 72.5305 100.554 72.586C100.688 72.6416 100.81 72.7229 100.912 72.8255C101.015 72.928 101.096 73.0498 101.151 73.1838C101.207 73.3178 101.235 73.4613 101.235 73.6063Z" fill="#B7B29E"/>
<path d="M44.3905 76.7283C46.1146 72.2112 43.8503 67.1518 39.3332 65.4278C34.8161 63.7038 29.7567 65.9681 28.0327 70.4851C26.3087 75.0022 28.573 80.0616 33.09 81.7857C37.6071 83.5097 42.6665 81.2454 44.3905 76.7283Z" fill="#31302A"/>
<path d="M39.5034 65.5488C42.0479 67.0859 44.2932 69.6068 44.4138 72.7909C44.5794 77.1504 42.6272 82.0951 35.2527 81.8953C34.038 81.8519 32.8391 81.6057 31.7056 81.1669C33.0227 81.9579 34.9299 82.3375 36.5782 82.3375C41.4129 82.3375 44.966 78.4947 44.966 73.66C44.9665 71.9178 44.4468 70.2151 43.4736 68.77C42.5004 67.325 41.118 66.2033 39.5034 65.5488V65.5488Z" fill="#22211D"/>
<path d="M41.5499 73.6062C41.5499 74.6624 41.2367 75.6948 40.6499 76.5729C40.0631 77.451 39.2291 78.1354 38.2534 78.5395C37.2776 78.9437 36.2039 79.0493 35.1681 78.8432C34.1323 78.6371 33.1809 78.1284 32.4341 77.3815C31.6874 76.6346 31.179 75.6831 30.9731 74.6472C30.7672 73.6114 30.8731 72.5377 31.2774 71.562C31.6817 70.5864 32.3663 69.7525 33.2446 69.1659C34.1228 68.5793 35.1553 68.2664 36.2114 68.2666C36.9126 68.2666 37.6069 68.4047 38.2546 68.6731C38.9024 68.9414 39.491 69.3348 39.9867 69.8306C40.4825 70.3265 40.8757 70.9151 41.1439 71.5629C41.4121 72.2108 41.5501 72.9051 41.5499 73.6062V73.6062Z" fill="#B7B29E"/>
<path d="M41.1156 73.6076C41.117 74.5782 40.8305 75.5274 40.2922 76.3351C39.754 77.1428 38.9882 77.7727 38.0919 78.1451C37.1955 78.5174 36.2089 78.6155 35.2568 78.4269C34.3047 78.2383 33.4299 77.7716 32.7431 77.0856C32.0564 76.3997 31.5886 75.5255 31.3988 74.5736C31.2091 73.6218 31.306 72.635 31.6773 71.7382C32.0486 70.8414 32.6775 70.0749 33.4846 69.5357C34.2916 68.9964 35.2405 68.7088 36.2111 68.709C37.5108 68.709 38.7574 69.2249 39.677 70.1434C40.5966 71.0619 41.114 72.3079 41.1156 73.6076V73.6076Z" fill="#666357"/>
<path d="M36.2111 77.0843C38.1309 77.0843 39.6873 75.5279 39.6873 73.608C39.6873 71.6882 38.1309 70.1318 36.2111 70.1318C34.2912 70.1318 32.7349 71.6882 32.7349 73.608C32.7349 75.5279 34.2912 77.0843 36.2111 77.0843Z" fill="#2A2A25"/>
<path d="M36.7128 75.9202C36.7128 76.0535 36.6598 76.1813 36.5656 76.2755C36.4713 76.3698 36.3435 76.4227 36.2102 76.4227C36.1441 76.4229 36.0787 76.41 36.0176 76.3848C35.9565 76.3596 35.9009 76.3226 35.8541 76.2759C35.8074 76.2293 35.7702 76.1738 35.7449 76.1128C35.7196 76.0517 35.7065 75.9863 35.7065 75.9202V71.2935C35.7069 71.1601 35.7601 71.0323 35.8545 70.9381C35.9489 70.8439 36.0769 70.791 36.2102 70.791V70.791C36.3434 70.7913 36.4711 70.8444 36.5652 70.9385C36.6594 71.0327 36.7124 71.1603 36.7128 71.2935V75.9202Z" fill="#969283"/>
<path d="M38.5218 73.0527C38.6551 73.0527 38.7829 73.1057 38.8772 73.1999C38.9714 73.2942 39.0243 73.422 39.0243 73.5552C39.0243 73.6885 38.9714 73.8163 38.8772 73.9106C38.7829 74.0048 38.6551 74.0578 38.5218 74.0578H33.8975C33.7643 74.0578 33.6364 74.0048 33.5422 73.9106C33.448 73.8163 33.395 73.6885 33.395 73.5552C33.395 73.422 33.448 73.2942 33.5422 73.1999C33.6364 73.1057 33.7643 73.0527 33.8975 73.0527H38.5218Z" fill="#969283"/>
<path d="M38.2183 74.9032C38.3121 74.9974 38.3648 75.1249 38.3648 75.2579C38.3648 75.3909 38.3121 75.5184 38.2183 75.6126V75.6126C38.1241 75.7065 37.9965 75.7592 37.8636 75.7592C37.7306 75.7592 37.603 75.7065 37.5088 75.6126L34.2384 72.3433C34.1445 72.2491 34.0918 72.1216 34.0918 71.9886C34.0918 71.8556 34.1445 71.7281 34.2384 71.6339C34.2848 71.5871 34.3401 71.55 34.401 71.5247C34.4619 71.4994 34.5271 71.4863 34.5931 71.4863C34.659 71.4863 34.7243 71.4994 34.7852 71.5247C34.846 71.55 34.9013 71.5871 34.9478 71.6339L38.2183 74.9032Z" fill="#969283"/>
<path d="M37.4717 71.5977C37.5659 71.5039 37.6935 71.4512 37.8264 71.4512C37.9594 71.4512 38.087 71.5039 38.1812 71.5977C38.2747 71.6921 38.3272 71.8196 38.3272 71.9525C38.3272 72.0853 38.2747 72.2128 38.1812 72.3072L34.9107 75.5765C34.8165 75.6703 34.6889 75.723 34.556 75.723C34.423 75.723 34.2954 75.6703 34.2013 75.5765V75.5765C34.1074 75.4823 34.0547 75.3547 34.0547 75.2217C34.0547 75.0888 34.1074 74.9612 34.2013 74.867L37.4717 71.5977Z" fill="#969283"/>
<path d="M37.4619 75.183C38.3307 74.4919 38.4747 73.2274 37.7837 72.3586C37.0926 71.4898 35.8281 71.3457 34.9593 72.0368C34.0905 72.7279 33.9465 73.9924 34.6375 74.8612C35.3286 75.73 36.5931 75.874 37.4619 75.183Z" fill="#969283"/>
<path opacity="0.4" d="M28.2837 73.1761L29.0286 72.5967C29.0286 72.5967 29.1114 69.8654 31.8013 67.8365C34.2583 65.9849 37.2651 66.3053 37.2651 66.3053L37.5548 65.7259C37.5548 65.7259 33.7889 65.2707 31.1805 67.3813C28.0401 69.9246 28.2837 73.1761 28.2837 73.1761Z" fill="#969283"/>
<path d="M36.4485 71.2316C36.4485 71.2784 36.4347 71.3241 36.4087 71.363C36.3827 71.4019 36.3458 71.4322 36.3026 71.4501C36.2593 71.468 36.2118 71.4727 36.1659 71.4635C36.1201 71.4544 36.0779 71.4319 36.0448 71.3988C36.0118 71.3657 35.9893 71.3236 35.9801 71.2777C35.971 71.2319 35.9757 71.1843 35.9936 71.1411C36.0115 71.0979 36.0418 71.061 36.0807 71.035C36.1196 71.009 36.1653 70.9951 36.2121 70.9951C36.2748 70.9951 36.3349 71.02 36.3793 71.0644C36.4236 71.1087 36.4485 71.1689 36.4485 71.2316Z" fill="#B7B29E"/>
<path d="M38.1043 71.8947C38.1043 71.9415 38.0904 71.9872 38.0644 72.0261C38.0385 72.0649 38.0015 72.0953 37.9583 72.1132C37.9151 72.1311 37.8676 72.1357 37.8217 72.1266C37.7758 72.1175 37.7337 72.095 37.7006 72.0619C37.6675 72.0288 37.645 71.9867 37.6359 71.9408C37.6268 71.8949 37.6315 71.8474 37.6493 71.8042C37.6672 71.761 37.6976 71.724 37.7364 71.6981C37.7753 71.6721 37.8211 71.6582 37.8678 71.6582C37.9305 71.6582 37.9907 71.6831 38.035 71.7275C38.0794 71.7718 38.1043 71.832 38.1043 71.8947Z" fill="#B7B29E"/>
<path d="M38.8904 73.5705C38.8904 73.6172 38.8766 73.663 38.8506 73.7018C38.8246 73.7407 38.7877 73.771 38.7445 73.7889C38.7012 73.8068 38.6537 73.8115 38.6078 73.8024C38.562 73.7933 38.5198 73.7707 38.4867 73.7377C38.4537 73.7046 38.4311 73.6625 38.422 73.6166C38.4129 73.5707 38.4176 73.5232 38.4355 73.48C38.4534 73.4368 38.4837 73.3998 38.5226 73.3738C38.5615 73.3479 38.6072 73.334 38.654 73.334C38.7167 73.334 38.7768 73.3589 38.8212 73.4032C38.8655 73.4476 38.8904 73.5077 38.8904 73.5705Z" fill="#B7B29E"/>
<path d="M37.9496 75.6081C38.0808 75.6081 38.1872 75.5017 38.1872 75.3705C38.1872 75.2392 38.0808 75.1328 37.9496 75.1328C37.8183 75.1328 37.7119 75.2392 37.7119 75.3705C37.7119 75.5017 37.8183 75.6081 37.9496 75.6081Z" fill="#B7B29E"/>
<path d="M36.1893 76.2302C36.3206 76.2302 36.427 76.1238 36.427 75.9925C36.427 75.8613 36.3206 75.7549 36.1893 75.7549C36.0581 75.7549 35.9517 75.8613 35.9517 75.9925C35.9517 76.1238 36.0581 76.2302 36.1893 76.2302Z" fill="#B7B29E"/>
<path d="M34.7718 75.2677C34.7718 75.3145 34.7579 75.3602 34.7319 75.3991C34.7059 75.438 34.669 75.4683 34.6258 75.4862C34.5826 75.5041 34.535 75.5088 34.4892 75.4997C34.4433 75.4905 34.4012 75.468 34.3681 75.4349C34.335 75.4019 34.3125 75.3597 34.3034 75.3139C34.2942 75.268 34.2989 75.2204 34.3168 75.1772C34.3347 75.134 34.365 75.0971 34.4039 75.0711C34.4428 75.0451 34.4885 75.0312 34.5353 75.0312C34.598 75.0312 34.6582 75.0562 34.7025 75.1005C34.7469 75.1449 34.7718 75.205 34.7718 75.2677Z" fill="#B7B29E"/>
<path d="M34.1097 73.59C34.1097 73.6368 34.0958 73.6825 34.0698 73.7214C34.0438 73.7603 34.0069 73.7906 33.9637 73.8085C33.9205 73.8264 33.8729 73.8311 33.8271 73.8219C33.7812 73.8128 33.7391 73.7903 33.706 73.7572C33.6729 73.7241 33.6504 73.682 33.6413 73.6361C33.6321 73.5903 33.6368 73.5427 33.6547 73.4995C33.6726 73.4563 33.7029 73.4194 33.7418 73.3934C33.7807 73.3674 33.8264 73.3535 33.8732 73.3535C33.9359 73.3535 33.9961 73.3784 34.0404 73.4228C34.0848 73.4671 34.1097 73.5273 34.1097 73.59Z" fill="#B7B29E"/>
<path d="M34.7718 71.8947C34.7718 71.9415 34.7579 71.9872 34.7319 72.0261C34.7059 72.0649 34.669 72.0953 34.6258 72.1132C34.5826 72.1311 34.535 72.1357 34.4892 72.1266C34.4433 72.1175 34.4012 72.095 34.3681 72.0619C34.335 72.0288 34.3125 71.9867 34.3034 71.9408C34.2942 71.8949 34.2989 71.8474 34.3168 71.8042C34.3347 71.761 34.365 71.724 34.4039 71.6981C34.4428 71.6721 34.4885 71.6582 34.5353 71.6582C34.598 71.6582 34.6582 71.6831 34.7025 71.7275C34.7469 71.7718 34.7718 71.832 34.7718 71.8947Z" fill="#B7B29E"/>
<path d="M37.3142 73.6053C37.3142 73.8238 37.2494 74.0374 37.128 74.219C37.0066 74.4006 36.834 74.5422 36.6322 74.6257C36.4303 74.7093 36.2082 74.7311 35.9939 74.6884C35.7797 74.6457 35.5829 74.5404 35.4285 74.3858C35.2741 74.2312 35.169 74.0343 35.1265 73.82C35.0841 73.6057 35.1061 73.3837 35.1899 73.1819C35.2736 72.9801 35.4154 72.8077 35.5971 72.6865C35.7789 72.5653 35.9925 72.5007 36.211 72.501C36.356 72.501 36.4995 72.5296 36.6334 72.5851C36.7674 72.6406 36.889 72.7219 36.9915 72.8245C37.0939 72.9271 37.1752 73.0488 37.2305 73.1828C37.2859 73.3168 37.3143 73.4604 37.3142 73.6053Z" fill="#B7B29E"/>
<path d="M46.5044 59.9503C46.5044 59.9503 47.0814 60.6337 47.7672 60.7366C48.654 60.8702 49.1423 61.0913 50.6723 60.2045C52.2023 59.3177 64.1101 52.532 64.1101 52.532L62.9573 52.4209C62.9573 52.4209 54.6191 55.8581 53.0654 56.6124C51.5118 57.3668 46.5044 59.9503 46.5044 59.9503Z" fill="#FFCF52"/>
<path d="M23.0385 65.1442C22.8021 64.2089 17.0084 64.6204 17.0084 64.6204C17.0084 64.6204 15.5068 66.031 15.2679 67.0774C14.9132 68.6145 15.2608 70.3502 15.2608 70.3502H19.1379C19.1379 70.3502 23.2762 66.0795 23.0385 65.1442Z" fill="#FFCF52"/>
<path d="M17.0984 65.1953C17.0984 65.1953 16.2045 66.2074 16.0342 66.7513C15.864 67.2952 15.8403 69.2615 15.8403 69.2615L16.6183 69.3206C16.6183 69.3206 16.5923 67.5672 16.9731 66.9854C17.6541 65.9343 19.5022 65.2119 19.5022 65.2119L17.0984 65.1953Z" fill="#B7B29E"/>
<path d="M122.043 62.9137C122.043 62.9137 119.146 62.8486 118.805 62.8486C118.463 62.8486 117.949 63.227 117.949 63.6999C117.949 64.1729 118.205 67.1986 118.29 67.577C118.376 67.9553 118.89 68.3337 119.489 68.3337C120.089 68.3337 123 68.4378 123 68.4378L122.043 62.9137Z" fill="#B52C1A"/>
<path d="M118.783 63.4469L119.089 67.642H120.317L120.011 63.4043L118.783 63.4469Z" fill="#F23325"/>
<path d="M115.176 62.0273C115.176 62.0273 107.303 60.5363 102.542 60.1036C97.7803 59.6708 93.8193 59.7216 91.8956 61.2587C90.271 62.5594 87.8447 68.6096 87.8447 68.6096C87.8447 68.6096 90.8101 63.348 93.5627 62.6693C97.9884 61.5792 116.559 63.8517 116.559 63.8517L115.176 62.0273Z" fill="#FF6B00"/>
<path d="M40.9497 63.2684C40.9497 63.2684 47.5864 68.8965 48.0192 68.7523C48.4519 68.608 87.1182 65.2891 87.1182 65.2891L89.1425 61.9678L40.9497 63.2684Z" fill="#FF6B00"/>
<path d="M24.3564 65.2884L22.1914 68.8958L26.9529 68.6073L30.1276 64.4229L24.3564 65.2884Z" fill="#FF6B00"/>
<path d="M86.6905 73.6592H48.5977V74.9574H86.6905V73.6592Z" fill="#FF6B00"/>
<path d="M86.6905 76.748H48.5977V78.0463H86.6905V76.748Z" fill="#008262"/>
<path d="M84.4359 63.8297C84.4399 63.9014 84.4298 63.9731 84.406 64.0409C84.3823 64.1086 84.3454 64.171 84.2975 64.2245C84.2496 64.2779 84.1917 64.3214 84.127 64.3525C84.0623 64.3836 83.9921 64.4016 83.9204 64.4055L79.4191 64.6621C79.3474 64.6663 79.2756 64.6562 79.2079 64.6326C79.1401 64.609 79.0776 64.5723 79.024 64.5245C78.9704 64.4768 78.9268 64.4189 78.8955 64.3543C78.8643 64.2896 78.8462 64.2194 78.8421 64.1478V64.1478C78.8343 64.003 78.8842 63.861 78.9808 63.7529C79.0774 63.6448 79.2129 63.5793 79.3576 63.5708L83.8589 63.3154C83.9306 63.3112 84.0024 63.3212 84.0702 63.3448C84.138 63.3684 84.2005 63.4052 84.2541 63.4529C84.3076 63.5007 84.3513 63.5586 84.3825 63.6232C84.4137 63.6879 84.4319 63.758 84.4359 63.8297V63.8297Z" fill="#2B2A25"/>
<path d="M16.5645 72.9372L17.5742 76.5435H22.3357C22.3357 76.5435 23.2024 76.9774 23.2024 75.2428C23.2024 73.5083 22.0472 72.6416 22.0472 72.6416L16.5645 72.9372Z" fill="#2B2A25"/>
<path d="M47.9789 60.3717C47.7897 60.4662 47.4666 60.1352 47.3286 59.9578L57.9109 54.8145C54.6791 56.6274 48.1681 60.2771 47.9789 60.3717Z" fill="white"/>
<path d="M44.1363 64.2137L42.4219 63.5634L72.8091 62.9131L44.1363 64.2137Z" fill="white"/>
</svg>
